M48
; #@! TF.GenerationSoftware,LibrePCB,LibrePCB,1.1.0
; #@! TF.CreationDate,2024-10-06T22:41:27
; #@! TF.ProjectId,phase1,27a80e89-1002-442c-b00c-c9f2b2e6cdd7,v1
; #@! TF.Part,Single
; #@! TF.SameCoordinates
; #@! TF.FileFunction,Plated,1,2,PTH
FMAT,2
METRIC,TZ
; #@! TA.AperFunction,ComponentDrill
T1C0.8
; #@! TA.AperFunction,ComponentDrill
T2C1.0
; #@! TA.AperFunction,ComponentDrill
T3C1.016
%
G90
G05
M71
T1
X22.225Y28.575
X32.385Y28.575
X73.025Y20.955
X73.025Y31.115
X30.48Y38.735
X40.64Y38.735
X35.56Y28.575
X45.72Y28.575
X16.51Y38.735
X26.67Y38.735
X73.025Y7.62
X73.025Y17.78
X73.025Y34.29
X73.025Y44.45
X8.89Y28.575
X19.05Y28.575
T2
X19.05Y56.515
X34.29Y47.3075
X66.04Y19.685
X66.04Y34.925
X66.04Y29.845
X66.04Y12.065
X66.04Y14.605
X66.04Y22.225
X66.04Y52.705
X66.04Y40.005
X66.04Y27.305
X66.04Y24.765
X66.04Y37.465
X66.04Y9.525
X66.04Y32.385
X66.04Y42.545
X66.04Y45.085
X66.04Y47.625
X66.04Y57.785
X66.04Y55.245
X66.04Y17.145
X66.04Y50.165
X3.175Y28.575
X3.175Y33.655
X34.29Y56.515
X95.25Y34.29
X95.25Y29.21
X19.05Y47.3075
X95.25Y24.13
X48.26Y47.625
X48.26Y32.385
X48.26Y37.465
X48.26Y55.245
X48.26Y52.705
X48.26Y45.085
X48.26Y14.605
X48.26Y27.305
X48.26Y40.005
X48.26Y42.545
X48.26Y29.845
X48.26Y57.785
X48.26Y34.925
X48.26Y24.765
X48.26Y22.225
X48.26Y19.685
X48.26Y9.525
X48.26Y12.065
X48.26Y50.165
X48.26Y17.145
X3.175Y38.735
X95.25Y39.37
X3.175Y43.815
T3
X81.28Y23.495
X81.28Y26.035
X81.28Y28.575
X22.225Y19.685
X24.765Y19.685
X27.305Y19.685
X8.89Y19.685
X11.43Y19.685
X13.97Y19.685
X81.28Y10.16
X81.28Y12.7
X81.28Y15.24
X35.56Y19.685
X38.1Y19.685
X40.64Y19.685
X81.28Y36.83
X81.28Y39.37
X81.28Y41.91
T0
M30
