G04 --- HEADER BEGIN --- *
G04 #@! TF.GenerationSoftware,LibrePCB,LibrePCB,1.1.0*
G04 #@! TF.CreationDate,2024-10-06T22:41:27*
G04 #@! TF.ProjectId,phase1,27a80e89-1002-442c-b00c-c9f2b2e6cdd7,v1*
G04 #@! TF.Part,Single*
G04 #@! TF.SameCoordinates*
G04 #@! TF.FileFunction,Copper,L2,Bot*
G04 #@! TF.FilePolarity,Positive*
%FSLAX66Y66*%
%MOMM*%
G01*
G75*
G04 --- HEADER END --- *
G04 --- APERTURE LIST BEGIN --- *
G04 #@! TA.AperFunction,ComponentPad*
%ADD10R,2.19X1.587*%
%ADD11C,1.36*%
%ADD12R,1.36X1.36*%
%ADD13O,2.19X1.587*%
%ADD14O,3.5X1.9*%
%ADD15R,3.5X1.9*%
%ADD16O,1.9X3.5*%
%ADD17R,1.9X3.5*%
G04 #@! TA.AperFunction,Conductor*
%ADD18C,0.01*%
G04 #@! TD*
G04 --- APERTURE LIST END --- *
G04 --- BOARD BEGIN --- *
D10*
G04 #@! TO.N,GND*
G04 #@! TO.C,GND*
G04 #@! TO.P,GND,1,1*
X3175000Y43815000D03*
D11*
G04 #@! TO.C,R8*
G04 #@! TO.P,R8,2,2*
X19050000Y28575000D03*
D12*
G04 #@! TO.N,N9*
G04 #@! TO.P,R8,1,1*
X8890000Y28575000D03*
D10*
G04 #@! TO.N,N8*
G04 #@! TO.C,R/GRN*
G04 #@! TO.P,R/GRN,1,1*
X95250000Y39370000D03*
G04 #@! TO.N,N3*
G04 #@! TO.C,LIN_12V*
G04 #@! TO.P,LIN_12V,1,1*
X3175000Y38735000D03*
D13*
G04 #@! TO.N,N/C*
G04 #@! TO.C,PICO_1-20*
G04 #@! TO.P,PICO_1-20,17,17*
X48260000Y17145000D03*
G04 #@! TO.N,N9*
G04 #@! TO.P,PICO_1-20,4,4*
X48260000Y50165000D03*
G04 #@! TO.N,N/C*
G04 #@! TO.P,PICO_1-20,19,19*
X48260000Y12065000D03*
G04 #@! TO.P,PICO_1-20,20,20*
X48260000Y9525000D03*
G04 #@! TO.P,PICO_1-20,16,16*
X48260000Y19685000D03*
G04 #@! TO.P,PICO_1-20,15,15*
X48260000Y22225000D03*
G04 #@! TO.P,PICO_1-20,14,14*
X48260000Y24765000D03*
G04 #@! TO.P,PICO_1-20,10,10*
X48260000Y34925000D03*
D10*
G04 #@! TO.P,PICO_1-20,1,1*
X48260000Y57785000D03*
D13*
G04 #@! TO.P,PICO_1-20,12,12*
X48260000Y29845000D03*
G04 #@! TO.P,PICO_1-20,7,7*
X48260000Y42545000D03*
G04 #@! TO.N,GND*
G04 #@! TO.P,PICO_1-20,8,8*
X48260000Y40005000D03*
G04 #@! TO.P,PICO_1-20,13,13*
X48260000Y27305000D03*
G04 #@! TO.P,PICO_1-20,18,18*
X48260000Y14605000D03*
G04 #@! TO.N,N10*
G04 #@! TO.P,PICO_1-20,6,6*
X48260000Y45085000D03*
G04 #@! TO.N,GND*
G04 #@! TO.P,PICO_1-20,3,3*
X48260000Y52705000D03*
G04 #@! TO.N,LIN_3V3*
G04 #@! TO.P,PICO_1-20,2,2*
X48260000Y55245000D03*
G04 #@! TO.N,N/C*
G04 #@! TO.P,PICO_1-20,9,9*
X48260000Y37465000D03*
G04 #@! TO.P,PICO_1-20,11,11*
X48260000Y32385000D03*
G04 #@! TO.N,N7*
G04 #@! TO.P,PICO_1-20,5,5*
X48260000Y47625000D03*
D11*
G04 #@! TO.N,12V*
G04 #@! TO.C,R3*
G04 #@! TO.P,R3,2,2*
X73025000Y44450000D03*
D12*
G04 #@! TO.N,N2*
G04 #@! TO.P,R3,1,1*
X73025000Y34290000D03*
D11*
G04 #@! TO.N,12V*
G04 #@! TO.C,R5*
G04 #@! TO.P,R5,2,2*
X73025000Y17780000D03*
D12*
G04 #@! TO.N,N5*
G04 #@! TO.P,R5,1,1*
X73025000Y7620000D03*
D11*
G04 #@! TO.N,LIN_3V3*
G04 #@! TO.C,R1*
G04 #@! TO.P,R1,2,2*
X26670000Y38735000D03*
D12*
G04 #@! TO.N,N3*
G04 #@! TO.P,R1,1,1*
X16510000Y38735000D03*
D14*
G04 #@! TO.N,12V*
G04 #@! TO.C,Q4*
G04 #@! TO.P,Q4,3,S*
X81280000Y41910000D03*
G04 #@! TO.N,N8*
G04 #@! TO.P,Q4,2,D*
X81280000Y39370000D03*
D15*
G04 #@! TO.N,N2*
G04 #@! TO.P,Q4,1,G*
X81280000Y36830000D03*
D16*
G04 #@! TO.N,GND*
G04 #@! TO.C,Q1*
G04 #@! TO.P,Q1,3,S*
X40640000Y19685000D03*
G04 #@! TO.N,N2*
G04 #@! TO.P,Q1,2,D*
X38100000Y19685000D03*
D17*
G04 #@! TO.N,N10*
G04 #@! TO.P,Q1,1,G*
X35560000Y19685000D03*
D10*
G04 #@! TO.N,GND*
G04 #@! TO.C,G/WHT*
G04 #@! TO.P,G/WHT,1,1*
X95250000Y24130000D03*
D14*
G04 #@! TO.N,12V*
G04 #@! TO.C,Q6*
G04 #@! TO.P,Q6,3,S*
X81280000Y15240000D03*
G04 #@! TO.N,N1*
G04 #@! TO.P,Q6,2,D*
X81280000Y12700000D03*
D15*
G04 #@! TO.N,N5*
G04 #@! TO.P,Q6,1,G*
X81280000Y10160000D03*
D11*
G04 #@! TO.N,GND*
G04 #@! TO.C,R6*
G04 #@! TO.P,R6,2,2*
X45720000Y28575000D03*
D12*
G04 #@! TO.N,N10*
G04 #@! TO.P,R6,1,1*
X35560000Y28575000D03*
D11*
G04 #@! TO.N,GND*
G04 #@! TO.C,R2*
G04 #@! TO.P,R2,2,2*
X40640000Y38735000D03*
D12*
G04 #@! TO.N,LIN_3V3*
G04 #@! TO.P,R2,1,1*
X30480000Y38735000D03*
D10*
G04 #@! TO.N,12V*
G04 #@! TO.C,In+*
G04 #@! TO.P,In+,1,1*
X19050000Y47307500D03*
G04 #@! TO.N,N1*
G04 #@! TO.C,T/BRN*
G04 #@! TO.P,T/BRN,1,1*
X95250000Y29210000D03*
D16*
G04 #@! TO.N,GND*
G04 #@! TO.C,Q3*
G04 #@! TO.P,Q3,3,S*
X13970000Y19685000D03*
G04 #@! TO.N,N5*
G04 #@! TO.P,Q3,2,D*
X11430000Y19685000D03*
D17*
G04 #@! TO.N,N9*
G04 #@! TO.P,Q3,1,G*
X8890000Y19685000D03*
D11*
G04 #@! TO.N,12V*
G04 #@! TO.C,R4*
G04 #@! TO.P,R4,2,2*
X73025000Y31115000D03*
D12*
G04 #@! TO.N,N4*
G04 #@! TO.P,R4,1,1*
X73025000Y20955000D03*
D10*
G04 #@! TO.N,N6*
G04 #@! TO.C,L/YLW*
G04 #@! TO.P,L/YLW,1,1*
X95250000Y34290000D03*
G04 #@! TO.N,GND*
G04 #@! TO.C,Out-*
G04 #@! TO.P,Out-,1,1*
X34290000Y56515000D03*
G04 #@! TO.N,12V*
G04 #@! TO.C,12V*
G04 #@! TO.P,12V,1,1*
X3175000Y33655000D03*
G04 #@! TO.N,N/C*
G04 #@! TO.C,DNC*
G04 #@! TO.P,DNC,1,1*
X3175000Y28575000D03*
D13*
G04 #@! TO.C,PICO_21-40*
G04 #@! TO.P,PICO_21-40,17,17*
X66040000Y50165000D03*
G04 #@! TO.P,PICO_21-40,4,4*
X66040000Y17145000D03*
G04 #@! TO.N,3V3*
G04 #@! TO.P,PICO_21-40,19,19*
X66040000Y55245000D03*
G04 #@! TO.N,N/C*
G04 #@! TO.P,PICO_21-40,20,20*
X66040000Y57785000D03*
G04 #@! TO.P,PICO_21-40,16,16*
X66040000Y47625000D03*
G04 #@! TO.P,PICO_21-40,15,15*
X66040000Y45085000D03*
G04 #@! TO.P,PICO_21-40,14,14*
X66040000Y42545000D03*
G04 #@! TO.P,PICO_21-40,10,10*
X66040000Y32385000D03*
D10*
G04 #@! TO.P,PICO_21-40,1,1*
X66040000Y9525000D03*
D13*
G04 #@! TO.P,PICO_21-40,12,12*
X66040000Y37465000D03*
G04 #@! TO.P,PICO_21-40,7,7*
X66040000Y24765000D03*
G04 #@! TO.N,GND*
G04 #@! TO.P,PICO_21-40,8,8*
X66040000Y27305000D03*
G04 #@! TO.P,PICO_21-40,13,13*
X66040000Y40005000D03*
G04 #@! TO.P,PICO_21-40,18,18*
X66040000Y52705000D03*
G04 #@! TO.N,N/C*
G04 #@! TO.P,PICO_21-40,6,6*
X66040000Y22225000D03*
G04 #@! TO.N,GND*
G04 #@! TO.P,PICO_21-40,3,3*
X66040000Y14605000D03*
G04 #@! TO.N,N/C*
G04 #@! TO.P,PICO_21-40,2,2*
X66040000Y12065000D03*
G04 #@! TO.P,PICO_21-40,9,9*
X66040000Y29845000D03*
G04 #@! TO.P,PICO_21-40,11,11*
X66040000Y34925000D03*
G04 #@! TO.P,PICO_21-40,5,5*
X66040000Y19685000D03*
D16*
G04 #@! TO.N,GND*
G04 #@! TO.C,Q2*
G04 #@! TO.P,Q2,3,S*
X27305000Y19685000D03*
G04 #@! TO.N,N4*
G04 #@! TO.P,Q2,2,D*
X24765000Y19685000D03*
D17*
G04 #@! TO.N,N7*
G04 #@! TO.P,Q2,1,G*
X22225000Y19685000D03*
D11*
G04 #@! TO.N,GND*
G04 #@! TO.C,R7*
G04 #@! TO.P,R7,2,2*
X32385000Y28575000D03*
D12*
G04 #@! TO.N,N7*
G04 #@! TO.P,R7,1,1*
X22225000Y28575000D03*
D10*
G04 #@! TO.N,3V3*
G04 #@! TO.C,Out+*
G04 #@! TO.P,Out+,1,1*
X34290000Y47307500D03*
G04 #@! TO.N,GND*
G04 #@! TO.C,In-*
G04 #@! TO.P,In-,1,1*
X19050000Y56515000D03*
D14*
G04 #@! TO.N,12V*
G04 #@! TO.C,Q5*
G04 #@! TO.P,Q5,3,S*
X81280000Y28575000D03*
G04 #@! TO.N,N6*
G04 #@! TO.P,Q5,2,D*
X81280000Y26035000D03*
D15*
G04 #@! TO.N,N4*
G04 #@! TO.P,Q5,1,G*
X81280000Y23495000D03*
D18*
G04 #@! TD.C*
G04 #@! TD.P*
G04 #@! TA.AperFunction,Conductor*
G04 #@! TO.N,GND*
G36*
X635000Y40104999D02*
X654500Y40045672D01*
X734999Y40005000D01*
X2083931Y40005000D01*
X2083931Y42721500D01*
X2076118Y42722115D01*
X1995069Y42734952D01*
X1980282Y42739756D01*
X1910674Y42775223D01*
X1898101Y42784358D01*
X1842858Y42839601D01*
X1833723Y42852174D01*
X1798256Y42921782D01*
X1793452Y42936569D01*
X1780615Y43017618D01*
X1780000Y43025431D01*
X1780000Y43648982D01*
X1781566Y43653747D01*
X1796013Y43661046D01*
X1796013Y43965005D01*
X1791248Y43966571D01*
X1780000Y43988833D01*
X1780000Y44604569D01*
X1780615Y44612382D01*
X1793452Y44693431D01*
X1798256Y44708218D01*
X1833723Y44777826D01*
X1842858Y44790399D01*
X1898101Y44845642D01*
X1910674Y44854777D01*
X1980282Y44890244D01*
X1995069Y44895048D01*
X2076118Y44907885D01*
X2083931Y44908500D01*
X3008982Y44908500D01*
X3013747Y44906934D01*
X3024995Y44884672D01*
X3024995Y44608500D01*
X2080000Y44608500D01*
X2080000Y43965005D01*
X1796013Y43965005D01*
X1796013Y43661046D01*
X1803828Y43664995D01*
X2080000Y43664995D01*
X2080000Y43021500D01*
X3024995Y43021500D01*
X3024995Y42737513D01*
X3023429Y42732748D01*
X3001167Y42721500D01*
X2083931Y42721500D01*
X2083931Y40005000D01*
X3341018Y40005000D01*
X3341018Y42721500D01*
X3336253Y42723066D01*
X3325005Y42745328D01*
X3325005Y43021500D01*
X4270000Y43021500D01*
X4270000Y43664995D01*
X4270000Y43965005D01*
X4270000Y44608500D01*
X3325005Y44608500D01*
X3325005Y44892487D01*
X3326571Y44897252D01*
X3348833Y44908500D01*
X3806435Y44908500D01*
X3806435Y57890255D01*
X3557399Y57908066D01*
X3550344Y57909080D01*
X3306364Y57962155D01*
X3299538Y57964160D01*
X3065596Y58051415D01*
X3059123Y58054371D01*
X2839977Y58174035D01*
X2833988Y58177884D01*
X2634110Y58327510D01*
X2628727Y58332175D01*
X2452175Y58508727D01*
X2447510Y58514110D01*
X2297884Y58713988D01*
X2294035Y58719977D01*
X2174371Y58939123D01*
X2171415Y58945596D01*
X2084160Y59179538D01*
X2082155Y59186364D01*
X2029080Y59430344D01*
X2028066Y59437399D01*
X2010255Y59686435D01*
X2010255Y59693565D01*
X2028066Y59942601D01*
X2029080Y59949656D01*
X2082155Y60193636D01*
X2084160Y60200462D01*
X2171415Y60434404D01*
X2174371Y60440877D01*
X2294035Y60660023D01*
X2297884Y60666012D01*
X2447510Y60865890D01*
X2452175Y60871273D01*
X2628727Y61047825D01*
X2634110Y61052490D01*
X2833988Y61202116D01*
X2839977Y61205965D01*
X3059123Y61325629D01*
X3065596Y61328585D01*
X3299538Y61415840D01*
X3306364Y61417845D01*
X3550344Y61470920D01*
X3557399Y61471934D01*
X3806435Y61489745D01*
X3813565Y61489745D01*
X4062601Y61471934D01*
X4069656Y61470920D01*
X4313636Y61417845D01*
X4320462Y61415840D01*
X4554404Y61328585D01*
X4560877Y61325629D01*
X4780023Y61205965D01*
X4786012Y61202116D01*
X4985890Y61052490D01*
X4991273Y61047825D01*
X5167825Y60871273D01*
X5172490Y60865890D01*
X5322116Y60666012D01*
X5325965Y60660023D01*
X5445629Y60440877D01*
X5448585Y60434404D01*
X5535840Y60200462D01*
X5537845Y60193636D01*
X5590920Y59949656D01*
X5591934Y59942601D01*
X5609745Y59693565D01*
X5609745Y59686435D01*
X5591934Y59437399D01*
X5590920Y59430344D01*
X5537845Y59186364D01*
X5535840Y59179538D01*
X5448585Y58945596D01*
X5445629Y58939123D01*
X5325965Y58719977D01*
X5322116Y58713988D01*
X5172490Y58514110D01*
X5167825Y58508727D01*
X4991273Y58332175D01*
X4985890Y58327510D01*
X4786012Y58177884D01*
X4780023Y58174035D01*
X4560877Y58054371D01*
X4554404Y58051415D01*
X4320462Y57964160D01*
X4313636Y57962155D01*
X4069656Y57909080D01*
X4062601Y57908066D01*
X3813565Y57890255D01*
X3806435Y57890255D01*
X3806435Y44908500D01*
X4266069Y44908500D01*
X4273882Y44907885D01*
X4354931Y44895048D01*
X4369718Y44890244D01*
X4439326Y44854777D01*
X4451899Y44845642D01*
X4507142Y44790399D01*
X4516277Y44777826D01*
X4551744Y44708218D01*
X4556548Y44693431D01*
X4569385Y44612382D01*
X4570000Y44604569D01*
X4570000Y43981018D01*
X4568434Y43976253D01*
X4546172Y43965005D01*
X4270000Y43965005D01*
X4270000Y43664995D01*
X4553987Y43664995D01*
X4558752Y43663429D01*
X4570000Y43641167D01*
X4570000Y43025431D01*
X4569385Y43017618D01*
X4556548Y42936569D01*
X4551744Y42921782D01*
X4516277Y42852174D01*
X4507142Y42839601D01*
X4451899Y42784358D01*
X4439326Y42775223D01*
X4369718Y42739756D01*
X4354931Y42734952D01*
X4273882Y42722115D01*
X4266069Y42721500D01*
X3341018Y42721500D01*
X3341018Y40005000D01*
X13870001Y40005000D01*
X13929328Y40024500D01*
X13970000Y40104999D01*
X13970000Y51418987D01*
X13971566Y51423752D01*
X13993828Y51435000D01*
X17958931Y51435000D01*
X17958931Y55421500D01*
X17951118Y55422115D01*
X17870069Y55434952D01*
X17855282Y55439756D01*
X17785674Y55475223D01*
X17773101Y55484358D01*
X17717858Y55539601D01*
X17708723Y55552174D01*
X17673256Y55621782D01*
X17668452Y55636569D01*
X17655615Y55717618D01*
X17655000Y55725431D01*
X17655000Y56348982D01*
X17656566Y56353747D01*
X17671013Y56361046D01*
X17671013Y56665005D01*
X17666248Y56666571D01*
X17655000Y56688833D01*
X17655000Y57304569D01*
X17655615Y57312382D01*
X17668452Y57393431D01*
X17673256Y57408218D01*
X17708723Y57477826D01*
X17717858Y57490399D01*
X17773101Y57545642D01*
X17785674Y57554777D01*
X17855282Y57590244D01*
X17870069Y57595048D01*
X17951118Y57607885D01*
X17958931Y57608500D01*
X18883982Y57608500D01*
X18888747Y57606934D01*
X18899995Y57584672D01*
X18899995Y57308500D01*
X17955000Y57308500D01*
X17955000Y56665005D01*
X17671013Y56665005D01*
X17671013Y56361046D01*
X17678828Y56364995D01*
X17955000Y56364995D01*
X17955000Y55721500D01*
X18899995Y55721500D01*
X18899995Y55437513D01*
X18898429Y55432748D01*
X18876167Y55421500D01*
X17958931Y55421500D01*
X17958931Y51435000D01*
X19216018Y51435000D01*
X19216018Y55421500D01*
X19211253Y55423066D01*
X19200005Y55445328D01*
X19200005Y55721500D01*
X20145000Y55721500D01*
X20145000Y56364995D01*
X20145000Y56665005D01*
X20145000Y57308500D01*
X19200005Y57308500D01*
X19200005Y57592487D01*
X19201571Y57597252D01*
X19223833Y57608500D01*
X20141069Y57608500D01*
X20148882Y57607885D01*
X20229931Y57595048D01*
X20244718Y57590244D01*
X20314326Y57554777D01*
X20326899Y57545642D01*
X20382142Y57490399D01*
X20391277Y57477826D01*
X20426744Y57408218D01*
X20431548Y57393431D01*
X20444385Y57312382D01*
X20445000Y57304569D01*
X20445000Y56681018D01*
X20443434Y56676253D01*
X20421172Y56665005D01*
X20145000Y56665005D01*
X20145000Y56364995D01*
X20428987Y56364995D01*
X20433752Y56363429D01*
X20445000Y56341167D01*
X20445000Y55725431D01*
X20444385Y55717618D01*
X20431548Y55636569D01*
X20426744Y55621782D01*
X20391277Y55552174D01*
X20382142Y55539601D01*
X20326899Y55484358D01*
X20314326Y55475223D01*
X20244718Y55439756D01*
X20229931Y55434952D01*
X20148882Y55422115D01*
X20141069Y55421500D01*
X19216018Y55421500D01*
X19216018Y51435000D01*
X33198931Y51435000D01*
X33198931Y55421500D01*
X33191118Y55422115D01*
X33110069Y55434952D01*
X33095282Y55439756D01*
X33025674Y55475223D01*
X33013101Y55484358D01*
X32957858Y55539601D01*
X32948723Y55552174D01*
X32913256Y55621782D01*
X32908452Y55636569D01*
X32895615Y55717618D01*
X32895000Y55725431D01*
X32895000Y56348982D01*
X32896566Y56353747D01*
X32911013Y56361046D01*
X32911013Y56665005D01*
X32906248Y56666571D01*
X32895000Y56688833D01*
X32895000Y57304569D01*
X32895615Y57312382D01*
X32908452Y57393431D01*
X32913256Y57408218D01*
X32948723Y57477826D01*
X32957858Y57490399D01*
X33013101Y57545642D01*
X33025674Y57554777D01*
X33095282Y57590244D01*
X33110069Y57595048D01*
X33191118Y57607885D01*
X33198931Y57608500D01*
X34123982Y57608500D01*
X34128747Y57606934D01*
X34139995Y57584672D01*
X34139995Y57308500D01*
X33195000Y57308500D01*
X33195000Y56665005D01*
X32911013Y56665005D01*
X32911013Y56361046D01*
X32918828Y56364995D01*
X33195000Y56364995D01*
X33195000Y55721500D01*
X34139995Y55721500D01*
X34139995Y55437513D01*
X34138429Y55432748D01*
X34116167Y55421500D01*
X33198931Y55421500D01*
X33198931Y51435000D01*
X34456018Y51435000D01*
X34456018Y55421500D01*
X34451253Y55423066D01*
X34440005Y55445328D01*
X34440005Y55721500D01*
X35385000Y55721500D01*
X35385000Y56364995D01*
X35385000Y56665005D01*
X35385000Y57308500D01*
X34440005Y57308500D01*
X34440005Y57592487D01*
X34441571Y57597252D01*
X34463833Y57608500D01*
X35381069Y57608500D01*
X35388882Y57607885D01*
X35469931Y57595048D01*
X35484718Y57590244D01*
X35554326Y57554777D01*
X35566899Y57545642D01*
X35622142Y57490399D01*
X35631277Y57477826D01*
X35666744Y57408218D01*
X35671548Y57393431D01*
X35684385Y57312382D01*
X35685000Y57304569D01*
X35685000Y56681018D01*
X35683434Y56676253D01*
X35661172Y56665005D01*
X35385000Y56665005D01*
X35385000Y56364995D01*
X35668987Y56364995D01*
X35673752Y56363429D01*
X35685000Y56341167D01*
X35685000Y55725431D01*
X35684385Y55717618D01*
X35671548Y55636569D01*
X35666744Y55621782D01*
X35631277Y55552174D01*
X35622142Y55539601D01*
X35566899Y55484358D01*
X35554326Y55475223D01*
X35484718Y55439756D01*
X35469931Y55434952D01*
X35388882Y55422115D01*
X35381069Y55421500D01*
X34456018Y55421500D01*
X34456018Y51435000D01*
X47726471Y51435000D01*
X47785798Y51454500D01*
X47821987Y51505395D01*
X47820925Y51567836D01*
X47783025Y51617470D01*
X47753837Y51631181D01*
X47567931Y51684076D01*
X47559337Y51687406D01*
X47386987Y51773226D01*
X47379157Y51778074D01*
X47225508Y51894104D01*
X47218695Y51900316D01*
X47088982Y52042603D01*
X47083436Y52049947D01*
X46982069Y52213661D01*
X46977971Y52221891D01*
X46908417Y52401433D01*
X46905893Y52410301D01*
X46881787Y52539255D01*
X46883583Y52552704D01*
X46884148Y52553289D01*
X46891040Y52554995D01*
X46894858Y52554995D01*
X46894858Y52855005D01*
X46881968Y52859242D01*
X46881497Y52859905D01*
X46881086Y52866994D01*
X46905893Y52999699D01*
X46908417Y53008567D01*
X46977971Y53188109D01*
X46982069Y53196339D01*
X47083436Y53360053D01*
X47088982Y53367397D01*
X47218695Y53509684D01*
X47225508Y53515896D01*
X47379157Y53631926D01*
X47386987Y53636774D01*
X47559337Y53722594D01*
X47567931Y53725924D01*
X47753126Y53778616D01*
X47762175Y53780308D01*
X47956195Y53798286D01*
X47960811Y53798500D01*
X47960811Y54151500D01*
X47956195Y54151714D01*
X47762175Y54169692D01*
X47753126Y54171384D01*
X47567931Y54224076D01*
X47559337Y54227406D01*
X47386987Y54313226D01*
X47379157Y54318074D01*
X47225508Y54434104D01*
X47218695Y54440316D01*
X47088982Y54582603D01*
X47083436Y54589947D01*
X46982069Y54753661D01*
X46977971Y54761891D01*
X46908417Y54941433D01*
X46905893Y54950301D01*
X46870514Y55139561D01*
X46869665Y55148726D01*
X46869665Y55341274D01*
X46870514Y55350439D01*
X46905893Y55539699D01*
X46908417Y55548567D01*
X46977971Y55728109D01*
X46982069Y55736339D01*
X47083436Y55900053D01*
X47088982Y55907397D01*
X47168931Y55995096D01*
X47168931Y56691500D01*
X47161118Y56692115D01*
X47080069Y56704952D01*
X47065282Y56709756D01*
X46995674Y56745223D01*
X46983101Y56754358D01*
X46927858Y56809601D01*
X46918723Y56822174D01*
X46883256Y56891782D01*
X46878452Y56906569D01*
X46865615Y56987618D01*
X46865000Y56995431D01*
X46865000Y58574569D01*
X46865615Y58582382D01*
X46878452Y58663431D01*
X46883256Y58678218D01*
X46918723Y58747826D01*
X46927858Y58760399D01*
X46983101Y58815642D01*
X46995674Y58824777D01*
X47065282Y58860244D01*
X47080069Y58865048D01*
X47161118Y58877885D01*
X47168931Y58878500D01*
X49351069Y58878500D01*
X49358882Y58877885D01*
X49439931Y58865048D01*
X49454718Y58860244D01*
X49524326Y58824777D01*
X49536899Y58815642D01*
X49592142Y58760399D01*
X49601277Y58747826D01*
X49636744Y58678218D01*
X49641548Y58663431D01*
X49654385Y58582382D01*
X49655000Y58574569D01*
X49655000Y56995431D01*
X49654385Y56987618D01*
X49641548Y56906569D01*
X49636744Y56891782D01*
X49601277Y56822174D01*
X49592142Y56809601D01*
X49536899Y56754358D01*
X49524326Y56745223D01*
X49454718Y56709756D01*
X49439931Y56704952D01*
X49358882Y56692115D01*
X49351069Y56691500D01*
X47168931Y56691500D01*
X47168931Y55995096D01*
X47218695Y56049684D01*
X47225508Y56055896D01*
X47379157Y56171926D01*
X47386987Y56176774D01*
X47559337Y56262594D01*
X47567931Y56265924D01*
X47753126Y56318616D01*
X47762175Y56320308D01*
X47956195Y56338286D01*
X47960811Y56338500D01*
X48559189Y56338500D01*
X48563805Y56338286D01*
X48757825Y56320308D01*
X48766874Y56318616D01*
X48952069Y56265924D01*
X48960663Y56262594D01*
X49133013Y56176774D01*
X49140843Y56171926D01*
X49294492Y56055896D01*
X49301305Y56049684D01*
X49431018Y55907397D01*
X49436564Y55900053D01*
X49537931Y55736339D01*
X49542029Y55728109D01*
X49611583Y55548567D01*
X49614107Y55539699D01*
X49649486Y55350439D01*
X49650335Y55341274D01*
X49650335Y55148726D01*
X49649486Y55139561D01*
X49614107Y54950301D01*
X49611583Y54941433D01*
X49542029Y54761891D01*
X49537931Y54753661D01*
X49436564Y54589947D01*
X49431018Y54582603D01*
X49301305Y54440316D01*
X49294492Y54434104D01*
X49140843Y54318074D01*
X49133013Y54313226D01*
X48960663Y54227406D01*
X48952069Y54224076D01*
X48766874Y54171384D01*
X48757825Y54169692D01*
X48563805Y54151714D01*
X48559189Y54151500D01*
X47960811Y54151500D01*
X47960811Y53798500D01*
X48093982Y53798500D01*
X48098747Y53796934D01*
X48109995Y53774672D01*
X48109995Y53498500D01*
X47958500Y53498500D01*
X47781930Y53478605D01*
X47614213Y53419919D01*
X47463761Y53325383D01*
X47338117Y53199739D01*
X47243581Y53049287D01*
X47184895Y52881570D01*
X47181902Y52855005D01*
X46894858Y52855005D01*
X46894858Y52554995D01*
X47181902Y52554995D01*
X47184895Y52528430D01*
X47243581Y52360713D01*
X47338117Y52210261D01*
X47463761Y52084617D01*
X47614213Y51990081D01*
X47781930Y51931395D01*
X47958500Y51911500D01*
X48561500Y51911500D01*
X48738070Y51931395D01*
X48905787Y51990081D01*
X49056239Y52084617D01*
X49181883Y52210261D01*
X49276419Y52360713D01*
X49335105Y52528430D01*
X49338098Y52554995D01*
X49338098Y52855005D01*
X49335105Y52881570D01*
X49276419Y53049287D01*
X49181883Y53199739D01*
X49056239Y53325383D01*
X48905787Y53419919D01*
X48738070Y53478605D01*
X48561500Y53498500D01*
X48410005Y53498500D01*
X48410005Y53782487D01*
X48411571Y53787252D01*
X48433833Y53798500D01*
X48559189Y53798500D01*
X48563805Y53798286D01*
X48757825Y53780308D01*
X48766874Y53778616D01*
X48952069Y53725924D01*
X48960663Y53722594D01*
X49133013Y53636774D01*
X49140843Y53631926D01*
X49294492Y53515896D01*
X49301305Y53509684D01*
X49431018Y53367397D01*
X49436564Y53360053D01*
X49537931Y53196339D01*
X49542029Y53188109D01*
X49611583Y53008567D01*
X49614107Y52999699D01*
X49638213Y52870745D01*
X49636417Y52857296D01*
X49635852Y52856711D01*
X49628960Y52855005D01*
X49338098Y52855005D01*
X49338098Y52554995D01*
X49625142Y52554995D01*
X49638032Y52550758D01*
X49638503Y52550095D01*
X49638914Y52543006D01*
X49614107Y52410301D01*
X49611583Y52401433D01*
X49542029Y52221891D01*
X49537931Y52213661D01*
X49436564Y52049947D01*
X49431018Y52042603D01*
X49301305Y51900316D01*
X49294492Y51894104D01*
X49140843Y51778074D01*
X49133013Y51773226D01*
X48960663Y51687406D01*
X48952069Y51684076D01*
X48766163Y51631181D01*
X48714437Y51596189D01*
X48693557Y51537333D01*
X48711667Y51477567D01*
X48761703Y51440200D01*
X48793529Y51435000D01*
X65506471Y51435000D01*
X65565798Y51454500D01*
X65601987Y51505395D01*
X65600925Y51567836D01*
X65563025Y51617470D01*
X65533837Y51631181D01*
X65347931Y51684076D01*
X65339337Y51687406D01*
X65166987Y51773226D01*
X65159157Y51778074D01*
X65005508Y51894104D01*
X64998695Y51900316D01*
X64868982Y52042603D01*
X64863436Y52049947D01*
X64762069Y52213661D01*
X64757971Y52221891D01*
X64688417Y52401433D01*
X64685893Y52410301D01*
X64661787Y52539255D01*
X64663583Y52552704D01*
X64664148Y52553289D01*
X64671040Y52554995D01*
X64674858Y52554995D01*
X64674858Y52855005D01*
X64661968Y52859242D01*
X64661497Y52859905D01*
X64661086Y52866994D01*
X64685893Y52999699D01*
X64688417Y53008567D01*
X64757971Y53188109D01*
X64762069Y53196339D01*
X64863436Y53360053D01*
X64868982Y53367397D01*
X64998695Y53509684D01*
X65005508Y53515896D01*
X65159157Y53631926D01*
X65166987Y53636774D01*
X65339337Y53722594D01*
X65347931Y53725924D01*
X65533126Y53778616D01*
X65542175Y53780308D01*
X65736195Y53798286D01*
X65740811Y53798500D01*
X65740811Y54151500D01*
X65736195Y54151714D01*
X65542175Y54169692D01*
X65533126Y54171384D01*
X65347931Y54224076D01*
X65339337Y54227406D01*
X65166987Y54313226D01*
X65159157Y54318074D01*
X65005508Y54434104D01*
X64998695Y54440316D01*
X64868982Y54582603D01*
X64863436Y54589947D01*
X64762069Y54753661D01*
X64757971Y54761891D01*
X64688417Y54941433D01*
X64685893Y54950301D01*
X64650514Y55139561D01*
X64649665Y55148726D01*
X64649665Y55341274D01*
X64650514Y55350439D01*
X64685893Y55539699D01*
X64688417Y55548567D01*
X64757971Y55728109D01*
X64762069Y55736339D01*
X64863436Y55900053D01*
X64868982Y55907397D01*
X64998695Y56049684D01*
X65005508Y56055896D01*
X65159157Y56171926D01*
X65166987Y56176774D01*
X65339337Y56262594D01*
X65347931Y56265924D01*
X65533126Y56318616D01*
X65542175Y56320308D01*
X65736195Y56338286D01*
X65740811Y56338500D01*
X65740811Y56691500D01*
X65736195Y56691714D01*
X65542175Y56709692D01*
X65533126Y56711384D01*
X65347931Y56764076D01*
X65339337Y56767406D01*
X65166987Y56853226D01*
X65159157Y56858074D01*
X65005508Y56974104D01*
X64998695Y56980316D01*
X64868982Y57122603D01*
X64863436Y57129947D01*
X64762069Y57293661D01*
X64757971Y57301891D01*
X64688417Y57481433D01*
X64685893Y57490301D01*
X64650514Y57679561D01*
X64649665Y57688726D01*
X64649665Y57881274D01*
X64650514Y57890439D01*
X64685893Y58079699D01*
X64688417Y58088567D01*
X64757971Y58268109D01*
X64762069Y58276339D01*
X64863436Y58440053D01*
X64868982Y58447397D01*
X64998695Y58589684D01*
X65005508Y58595896D01*
X65159157Y58711926D01*
X65166987Y58716774D01*
X65339337Y58802594D01*
X65347931Y58805924D01*
X65533126Y58858616D01*
X65542175Y58860308D01*
X65736195Y58878286D01*
X65740811Y58878500D01*
X66339189Y58878500D01*
X66343805Y58878286D01*
X66537825Y58860308D01*
X66546874Y58858616D01*
X66732069Y58805924D01*
X66740663Y58802594D01*
X66913013Y58716774D01*
X66920843Y58711926D01*
X67074492Y58595896D01*
X67081305Y58589684D01*
X67211018Y58447397D01*
X67216564Y58440053D01*
X67317931Y58276339D01*
X67322029Y58268109D01*
X67391583Y58088567D01*
X67394107Y58079699D01*
X67429486Y57890439D01*
X67430335Y57881274D01*
X67430335Y57688726D01*
X67429486Y57679561D01*
X67394107Y57490301D01*
X67391583Y57481433D01*
X67322029Y57301891D01*
X67317931Y57293661D01*
X67216564Y57129947D01*
X67211018Y57122603D01*
X67081305Y56980316D01*
X67074492Y56974104D01*
X66920843Y56858074D01*
X66913013Y56853226D01*
X66740663Y56767406D01*
X66732069Y56764076D01*
X66546874Y56711384D01*
X66537825Y56709692D01*
X66343805Y56691714D01*
X66339189Y56691500D01*
X65740811Y56691500D01*
X65740811Y56338500D01*
X66339189Y56338500D01*
X66343805Y56338286D01*
X66537825Y56320308D01*
X66546874Y56318616D01*
X66732069Y56265924D01*
X66740663Y56262594D01*
X66913013Y56176774D01*
X66920843Y56171926D01*
X67074492Y56055896D01*
X67081305Y56049684D01*
X67211018Y55907397D01*
X67216564Y55900053D01*
X67317931Y55736339D01*
X67322029Y55728109D01*
X67391583Y55548567D01*
X67394107Y55539699D01*
X67429486Y55350439D01*
X67430335Y55341274D01*
X67430335Y55148726D01*
X67429486Y55139561D01*
X67394107Y54950301D01*
X67391583Y54941433D01*
X67322029Y54761891D01*
X67317931Y54753661D01*
X67216564Y54589947D01*
X67211018Y54582603D01*
X67081305Y54440316D01*
X67074492Y54434104D01*
X66920843Y54318074D01*
X66913013Y54313226D01*
X66740663Y54227406D01*
X66732069Y54224076D01*
X66546874Y54171384D01*
X66537825Y54169692D01*
X66343805Y54151714D01*
X66339189Y54151500D01*
X65740811Y54151500D01*
X65740811Y53798500D01*
X65873982Y53798500D01*
X65878747Y53796934D01*
X65889995Y53774672D01*
X65889995Y53498500D01*
X65738500Y53498500D01*
X65561930Y53478605D01*
X65394213Y53419919D01*
X65243761Y53325383D01*
X65118117Y53199739D01*
X65023581Y53049287D01*
X64964895Y52881570D01*
X64961902Y52855005D01*
X64674858Y52855005D01*
X64674858Y52554995D01*
X64961902Y52554995D01*
X64964895Y52528430D01*
X65023581Y52360713D01*
X65118117Y52210261D01*
X65243761Y52084617D01*
X65394213Y51990081D01*
X65561930Y51931395D01*
X65738500Y51911500D01*
X66341500Y51911500D01*
X66518070Y51931395D01*
X66685787Y51990081D01*
X66836239Y52084617D01*
X66961883Y52210261D01*
X67056419Y52360713D01*
X67115105Y52528430D01*
X67118098Y52554995D01*
X67118098Y52855005D01*
X67115105Y52881570D01*
X67056419Y53049287D01*
X66961883Y53199739D01*
X66836239Y53325383D01*
X66685787Y53419919D01*
X66518070Y53478605D01*
X66341500Y53498500D01*
X66190005Y53498500D01*
X66190005Y53782487D01*
X66191571Y53787252D01*
X66213833Y53798500D01*
X66339189Y53798500D01*
X66343805Y53798286D01*
X66537825Y53780308D01*
X66546874Y53778616D01*
X66732069Y53725924D01*
X66740663Y53722594D01*
X66913013Y53636774D01*
X66920843Y53631926D01*
X67074492Y53515896D01*
X67081305Y53509684D01*
X67211018Y53367397D01*
X67216564Y53360053D01*
X67317931Y53196339D01*
X67322029Y53188109D01*
X67391583Y53008567D01*
X67394107Y52999699D01*
X67418213Y52870745D01*
X67416417Y52857296D01*
X67415852Y52856711D01*
X67408960Y52855005D01*
X67118098Y52855005D01*
X67118098Y52554995D01*
X67405142Y52554995D01*
X67418032Y52550758D01*
X67418503Y52550095D01*
X67418914Y52543006D01*
X67394107Y52410301D01*
X67391583Y52401433D01*
X67322029Y52221891D01*
X67317931Y52213661D01*
X67216564Y52049947D01*
X67211018Y52042603D01*
X67081305Y51900316D01*
X67074492Y51894104D01*
X66920843Y51778074D01*
X66913013Y51773226D01*
X66740663Y51687406D01*
X66732069Y51684076D01*
X66546163Y51631181D01*
X66494437Y51596189D01*
X66473557Y51537333D01*
X66491667Y51477567D01*
X66541703Y51440200D01*
X66573529Y51435000D01*
X90788987Y51435000D01*
X90793752Y51433434D01*
X90805000Y51411172D01*
X90805000Y734999D01*
X90824500Y675672D01*
X90904999Y635000D01*
X94611435Y635000D01*
X94611435Y2010255D01*
X94362399Y2028066D01*
X94355344Y2029080D01*
X94111364Y2082155D01*
X94104538Y2084160D01*
X93870596Y2171415D01*
X93864123Y2174371D01*
X93644977Y2294035D01*
X93638988Y2297884D01*
X93439110Y2447510D01*
X93433727Y2452175D01*
X93257175Y2628727D01*
X93252510Y2634110D01*
X93102884Y2833988D01*
X93099035Y2839977D01*
X92979371Y3059123D01*
X92976415Y3065596D01*
X92889160Y3299538D01*
X92887155Y3306364D01*
X92834080Y3550344D01*
X92833066Y3557399D01*
X92815255Y3806435D01*
X92815255Y3813565D01*
X92833066Y4062601D01*
X92834080Y4069656D01*
X92887155Y4313636D01*
X92889160Y4320462D01*
X92976415Y4554404D01*
X92979371Y4560877D01*
X93099035Y4780023D01*
X93102884Y4786012D01*
X93252510Y4985890D01*
X93257175Y4991273D01*
X93433727Y5167825D01*
X93439110Y5172490D01*
X93638988Y5322116D01*
X93644977Y5325965D01*
X93864123Y5445629D01*
X93870596Y5448585D01*
X94104538Y5535840D01*
X94111364Y5537845D01*
X94158931Y5548192D01*
X94158931Y23036500D01*
X94151118Y23037115D01*
X94070069Y23049952D01*
X94055282Y23054756D01*
X93985674Y23090223D01*
X93973101Y23099358D01*
X93917858Y23154601D01*
X93908723Y23167174D01*
X93873256Y23236782D01*
X93868452Y23251569D01*
X93855615Y23332618D01*
X93855000Y23340431D01*
X93855000Y23963982D01*
X93856566Y23968747D01*
X93871013Y23976046D01*
X93871013Y24280005D01*
X93866248Y24281571D01*
X93855000Y24303833D01*
X93855000Y24919569D01*
X93855615Y24927382D01*
X93868452Y25008431D01*
X93873256Y25023218D01*
X93908723Y25092826D01*
X93917858Y25105399D01*
X93973101Y25160642D01*
X93985674Y25169777D01*
X94055282Y25205244D01*
X94070069Y25210048D01*
X94151118Y25222885D01*
X94158931Y25223500D01*
X94158931Y28116500D01*
X94151118Y28117115D01*
X94070069Y28129952D01*
X94055282Y28134756D01*
X93985674Y28170223D01*
X93973101Y28179358D01*
X93917858Y28234601D01*
X93908723Y28247174D01*
X93873256Y28316782D01*
X93868452Y28331569D01*
X93855615Y28412618D01*
X93855000Y28420431D01*
X93855000Y29999569D01*
X93855615Y30007382D01*
X93868452Y30088431D01*
X93873256Y30103218D01*
X93908723Y30172826D01*
X93917858Y30185399D01*
X93973101Y30240642D01*
X93985674Y30249777D01*
X94055282Y30285244D01*
X94070069Y30290048D01*
X94151118Y30302885D01*
X94158931Y30303500D01*
X94158931Y33196500D01*
X94151118Y33197115D01*
X94070069Y33209952D01*
X94055282Y33214756D01*
X93985674Y33250223D01*
X93973101Y33259358D01*
X93917858Y33314601D01*
X93908723Y33327174D01*
X93873256Y33396782D01*
X93868452Y33411569D01*
X93855615Y33492618D01*
X93855000Y33500431D01*
X93855000Y35079569D01*
X93855615Y35087382D01*
X93868452Y35168431D01*
X93873256Y35183218D01*
X93908723Y35252826D01*
X93917858Y35265399D01*
X93973101Y35320642D01*
X93985674Y35329777D01*
X94055282Y35365244D01*
X94070069Y35370048D01*
X94151118Y35382885D01*
X94158931Y35383500D01*
X94158931Y38276500D01*
X94151118Y38277115D01*
X94070069Y38289952D01*
X94055282Y38294756D01*
X93985674Y38330223D01*
X93973101Y38339358D01*
X93917858Y38394601D01*
X93908723Y38407174D01*
X93873256Y38476782D01*
X93868452Y38491569D01*
X93855615Y38572618D01*
X93855000Y38580431D01*
X93855000Y40159569D01*
X93855615Y40167382D01*
X93868452Y40248431D01*
X93873256Y40263218D01*
X93908723Y40332826D01*
X93917858Y40345399D01*
X93973101Y40400642D01*
X93985674Y40409777D01*
X94055282Y40445244D01*
X94070069Y40450048D01*
X94151118Y40462885D01*
X94158931Y40463500D01*
X94611435Y40463500D01*
X94611435Y57890255D01*
X94362399Y57908066D01*
X94355344Y57909080D01*
X94111364Y57962155D01*
X94104538Y57964160D01*
X93870596Y58051415D01*
X93864123Y58054371D01*
X93644977Y58174035D01*
X93638988Y58177884D01*
X93439110Y58327510D01*
X93433727Y58332175D01*
X93257175Y58508727D01*
X93252510Y58514110D01*
X93102884Y58713988D01*
X93099035Y58719977D01*
X92979371Y58939123D01*
X92976415Y58945596D01*
X92889160Y59179538D01*
X92887155Y59186364D01*
X92834080Y59430344D01*
X92833066Y59437399D01*
X92815255Y59686435D01*
X92815255Y59693565D01*
X92833066Y59942601D01*
X92834080Y59949656D01*
X92887155Y60193636D01*
X92889160Y60200462D01*
X92976415Y60434404D01*
X92979371Y60440877D01*
X93099035Y60660023D01*
X93102884Y60666012D01*
X93252510Y60865890D01*
X93257175Y60871273D01*
X93433727Y61047825D01*
X93439110Y61052490D01*
X93638988Y61202116D01*
X93644977Y61205965D01*
X93864123Y61325629D01*
X93870596Y61328585D01*
X94104538Y61415840D01*
X94111364Y61417845D01*
X94355344Y61470920D01*
X94362399Y61471934D01*
X94611435Y61489745D01*
X94618565Y61489745D01*
X94867601Y61471934D01*
X94874656Y61470920D01*
X95118636Y61417845D01*
X95125462Y61415840D01*
X95359404Y61328585D01*
X95365877Y61325629D01*
X95585023Y61205965D01*
X95591012Y61202116D01*
X95790890Y61052490D01*
X95796273Y61047825D01*
X95972825Y60871273D01*
X95977490Y60865890D01*
X96127116Y60666012D01*
X96130965Y60660023D01*
X96250629Y60440877D01*
X96253585Y60434404D01*
X96340840Y60200462D01*
X96342845Y60193636D01*
X96395920Y59949656D01*
X96396934Y59942601D01*
X96414745Y59693565D01*
X96414745Y59686435D01*
X96396934Y59437399D01*
X96395920Y59430344D01*
X96342845Y59186364D01*
X96340840Y59179538D01*
X96253585Y58945596D01*
X96250629Y58939123D01*
X96130965Y58719977D01*
X96127116Y58713988D01*
X95977490Y58514110D01*
X95972825Y58508727D01*
X95796273Y58332175D01*
X95790890Y58327510D01*
X95591012Y58177884D01*
X95585023Y58174035D01*
X95365877Y58054371D01*
X95359404Y58051415D01*
X95125462Y57964160D01*
X95118636Y57962155D01*
X94874656Y57909080D01*
X94867601Y57908066D01*
X94618565Y57890255D01*
X94611435Y57890255D01*
X94611435Y40463500D01*
X96341069Y40463500D01*
X96348882Y40462885D01*
X96429931Y40450048D01*
X96444718Y40445244D01*
X96514326Y40409777D01*
X96526899Y40400642D01*
X96582142Y40345399D01*
X96591277Y40332826D01*
X96626744Y40263218D01*
X96631548Y40248431D01*
X96644385Y40167382D01*
X96645000Y40159569D01*
X96645000Y38580431D01*
X96644385Y38572618D01*
X96631548Y38491569D01*
X96626744Y38476782D01*
X96591277Y38407174D01*
X96582142Y38394601D01*
X96526899Y38339358D01*
X96514326Y38330223D01*
X96444718Y38294756D01*
X96429931Y38289952D01*
X96348882Y38277115D01*
X96341069Y38276500D01*
X94158931Y38276500D01*
X94158931Y35383500D01*
X96341069Y35383500D01*
X96348882Y35382885D01*
X96429931Y35370048D01*
X96444718Y35365244D01*
X96514326Y35329777D01*
X96526899Y35320642D01*
X96582142Y35265399D01*
X96591277Y35252826D01*
X96626744Y35183218D01*
X96631548Y35168431D01*
X96644385Y35087382D01*
X96645000Y35079569D01*
X96645000Y33500431D01*
X96644385Y33492618D01*
X96631548Y33411569D01*
X96626744Y33396782D01*
X96591277Y33327174D01*
X96582142Y33314601D01*
X96526899Y33259358D01*
X96514326Y33250223D01*
X96444718Y33214756D01*
X96429931Y33209952D01*
X96348882Y33197115D01*
X96341069Y33196500D01*
X94158931Y33196500D01*
X94158931Y30303500D01*
X96341069Y30303500D01*
X96348882Y30302885D01*
X96429931Y30290048D01*
X96444718Y30285244D01*
X96514326Y30249777D01*
X96526899Y30240642D01*
X96582142Y30185399D01*
X96591277Y30172826D01*
X96626744Y30103218D01*
X96631548Y30088431D01*
X96644385Y30007382D01*
X96645000Y29999569D01*
X96645000Y28420431D01*
X96644385Y28412618D01*
X96631548Y28331569D01*
X96626744Y28316782D01*
X96591277Y28247174D01*
X96582142Y28234601D01*
X96526899Y28179358D01*
X96514326Y28170223D01*
X96444718Y28134756D01*
X96429931Y28129952D01*
X96348882Y28117115D01*
X96341069Y28116500D01*
X94158931Y28116500D01*
X94158931Y25223500D01*
X95083982Y25223500D01*
X95088747Y25221934D01*
X95099995Y25199672D01*
X95099995Y24923500D01*
X94155000Y24923500D01*
X94155000Y24280005D01*
X93871013Y24280005D01*
X93871013Y23976046D01*
X93878828Y23979995D01*
X94155000Y23979995D01*
X94155000Y23336500D01*
X95099995Y23336500D01*
X95099995Y23052513D01*
X95098429Y23047748D01*
X95076167Y23036500D01*
X94158931Y23036500D01*
X94158931Y5548192D01*
X94355344Y5590920D01*
X94362399Y5591934D01*
X94611435Y5609745D01*
X94618565Y5609745D01*
X94867601Y5591934D01*
X94874656Y5590920D01*
X95118636Y5537845D01*
X95125462Y5535840D01*
X95359404Y5448585D01*
X95365877Y5445629D01*
X95416018Y5418249D01*
X95416018Y23036500D01*
X95411253Y23038066D01*
X95400005Y23060328D01*
X95400005Y23336500D01*
X96345000Y23336500D01*
X96345000Y23979995D01*
X96345000Y24280005D01*
X96345000Y24923500D01*
X95400005Y24923500D01*
X95400005Y25207487D01*
X95401571Y25212252D01*
X95423833Y25223500D01*
X96341069Y25223500D01*
X96348882Y25222885D01*
X96429931Y25210048D01*
X96444718Y25205244D01*
X96514326Y25169777D01*
X96526899Y25160642D01*
X96582142Y25105399D01*
X96591277Y25092826D01*
X96626744Y25023218D01*
X96631548Y25008431D01*
X96644385Y24927382D01*
X96645000Y24919569D01*
X96645000Y24296018D01*
X96643434Y24291253D01*
X96621172Y24280005D01*
X96345000Y24280005D01*
X96345000Y23979995D01*
X96628987Y23979995D01*
X96633752Y23978429D01*
X96645000Y23956167D01*
X96645000Y23340431D01*
X96644385Y23332618D01*
X96631548Y23251569D01*
X96626744Y23236782D01*
X96591277Y23167174D01*
X96582142Y23154601D01*
X96526899Y23099358D01*
X96514326Y23090223D01*
X96444718Y23054756D01*
X96429931Y23049952D01*
X96348882Y23037115D01*
X96341069Y23036500D01*
X95416018Y23036500D01*
X95416018Y5418249D01*
X95585023Y5325965D01*
X95591012Y5322116D01*
X95790890Y5172490D01*
X95796273Y5167825D01*
X95972825Y4991273D01*
X95977490Y4985890D01*
X96127116Y4786012D01*
X96130965Y4780023D01*
X96250629Y4560877D01*
X96253585Y4554404D01*
X96340840Y4320462D01*
X96342845Y4313636D01*
X96395920Y4069656D01*
X96396934Y4062601D01*
X96414745Y3813565D01*
X96414745Y3806435D01*
X96396934Y3557399D01*
X96395920Y3550344D01*
X96342845Y3306364D01*
X96340840Y3299538D01*
X96253585Y3065596D01*
X96250629Y3059123D01*
X96130965Y2839977D01*
X96127116Y2833988D01*
X95977490Y2634110D01*
X95972825Y2628727D01*
X95796273Y2452175D01*
X95790890Y2447510D01*
X95591012Y2297884D01*
X95585023Y2294035D01*
X95365877Y2174371D01*
X95359404Y2171415D01*
X95125462Y2084160D01*
X95118636Y2082155D01*
X94874656Y2029080D01*
X94867601Y2028066D01*
X94618565Y2010255D01*
X94611435Y2010255D01*
X94611435Y635000D01*
X97690001Y635000D01*
X97749328Y654500D01*
X97790000Y734999D01*
X97790000Y62765001D01*
X97770500Y62824328D01*
X97690001Y62865000D01*
X734999Y62865000D01*
X675672Y62845500D01*
X635000Y62765001D01*
X635000Y40104999D01*
G37*
G04 #@! TO.N,12V*
G36*
X635000Y8354999D02*
X654500Y8295672D01*
X734999Y8255000D01*
X2083931Y8255000D01*
X2083931Y27481500D01*
X2076118Y27482115D01*
X1995069Y27494952D01*
X1980282Y27499756D01*
X1910674Y27535223D01*
X1898101Y27544358D01*
X1842858Y27599601D01*
X1833723Y27612174D01*
X1798256Y27681782D01*
X1793452Y27696569D01*
X1780615Y27777618D01*
X1780000Y27785431D01*
X1780000Y29364569D01*
X1780615Y29372382D01*
X1793452Y29453431D01*
X1798256Y29468218D01*
X1833723Y29537826D01*
X1842858Y29550399D01*
X1898101Y29605642D01*
X1910674Y29614777D01*
X1980282Y29650244D01*
X1995069Y29655048D01*
X2076118Y29667885D01*
X2083931Y29668500D01*
X2083931Y32561500D01*
X2076118Y32562115D01*
X1995069Y32574952D01*
X1980282Y32579756D01*
X1910674Y32615223D01*
X1898101Y32624358D01*
X1842858Y32679601D01*
X1833723Y32692174D01*
X1798256Y32761782D01*
X1793452Y32776569D01*
X1780615Y32857618D01*
X1780000Y32865431D01*
X1780000Y33488982D01*
X1781566Y33493747D01*
X1796013Y33501046D01*
X1796013Y33805005D01*
X1791248Y33806571D01*
X1780000Y33828833D01*
X1780000Y34444569D01*
X1780615Y34452382D01*
X1793452Y34533431D01*
X1798256Y34548218D01*
X1833723Y34617826D01*
X1842858Y34630399D01*
X1898101Y34685642D01*
X1910674Y34694777D01*
X1980282Y34730244D01*
X1995069Y34735048D01*
X2076118Y34747885D01*
X2083931Y34748500D01*
X3008982Y34748500D01*
X3013747Y34746934D01*
X3024995Y34724672D01*
X3024995Y34448500D01*
X2080000Y34448500D01*
X2080000Y33805005D01*
X1796013Y33805005D01*
X1796013Y33501046D01*
X1803828Y33504995D01*
X2080000Y33504995D01*
X2080000Y32861500D01*
X3024995Y32861500D01*
X3024995Y32577513D01*
X3023429Y32572748D01*
X3001167Y32561500D01*
X2083931Y32561500D01*
X2083931Y29668500D01*
X3341018Y29668500D01*
X3341018Y32561500D01*
X3336253Y32563066D01*
X3325005Y32585328D01*
X3325005Y32861500D01*
X4270000Y32861500D01*
X4270000Y33504995D01*
X4270000Y33805005D01*
X4270000Y34448500D01*
X3325005Y34448500D01*
X3325005Y34732487D01*
X3326571Y34737252D01*
X3348833Y34748500D01*
X4266069Y34748500D01*
X4273882Y34747885D01*
X4354931Y34735048D01*
X4369718Y34730244D01*
X4439326Y34694777D01*
X4451899Y34685642D01*
X4507142Y34630399D01*
X4516277Y34617826D01*
X4551744Y34548218D01*
X4556548Y34533431D01*
X4569385Y34452382D01*
X4570000Y34444569D01*
X4570000Y33821018D01*
X4568434Y33816253D01*
X4546172Y33805005D01*
X4270000Y33805005D01*
X4270000Y33504995D01*
X4553987Y33504995D01*
X4558752Y33503429D01*
X4570000Y33481167D01*
X4570000Y32865431D01*
X4569385Y32857618D01*
X4556548Y32776569D01*
X4551744Y32761782D01*
X4516277Y32692174D01*
X4507142Y32679601D01*
X4451899Y32624358D01*
X4439326Y32615223D01*
X4369718Y32579756D01*
X4354931Y32574952D01*
X4273882Y32562115D01*
X4266069Y32561500D01*
X3341018Y32561500D01*
X3341018Y29668500D01*
X4266069Y29668500D01*
X4273882Y29667885D01*
X4354931Y29655048D01*
X4369718Y29650244D01*
X4439326Y29614777D01*
X4451899Y29605642D01*
X4507142Y29550399D01*
X4516277Y29537826D01*
X4551744Y29468218D01*
X4556548Y29453431D01*
X4569385Y29372382D01*
X4570000Y29364569D01*
X4570000Y27785431D01*
X4569385Y27777618D01*
X4556548Y27696569D01*
X4551744Y27681782D01*
X4516277Y27612174D01*
X4507142Y27599601D01*
X4451899Y27544358D01*
X4439326Y27535223D01*
X4369718Y27499756D01*
X4354931Y27494952D01*
X4273882Y27482115D01*
X4266069Y27481500D01*
X2083931Y27481500D01*
X2083931Y8255000D01*
X7943931Y8255000D01*
X7943931Y17635000D01*
X7936118Y17635615D01*
X7855069Y17648452D01*
X7840282Y17653256D01*
X7770674Y17688723D01*
X7758101Y17697858D01*
X7702858Y17753101D01*
X7693723Y17765674D01*
X7658256Y17835282D01*
X7653452Y17850069D01*
X7640615Y17931118D01*
X7640000Y17938931D01*
X7640000Y21431069D01*
X7640615Y21438882D01*
X7653452Y21519931D01*
X7658256Y21534718D01*
X7693723Y21604326D01*
X7702858Y21616899D01*
X7758101Y21672142D01*
X7770674Y21681277D01*
X7840282Y21716744D01*
X7855069Y21721548D01*
X7936118Y21734385D01*
X7943931Y21735000D01*
X8213931Y21735000D01*
X8213931Y27595000D01*
X8206118Y27595615D01*
X8125069Y27608452D01*
X8110282Y27613256D01*
X8040674Y27648723D01*
X8028101Y27657858D01*
X7972858Y27713101D01*
X7963723Y27725674D01*
X7928256Y27795282D01*
X7923452Y27810069D01*
X7910615Y27891118D01*
X7910000Y27898931D01*
X7910000Y29251069D01*
X7910615Y29258882D01*
X7923452Y29339931D01*
X7928256Y29354718D01*
X7963723Y29424326D01*
X7972858Y29436899D01*
X8028101Y29492142D01*
X8040674Y29501277D01*
X8110282Y29536744D01*
X8125069Y29541548D01*
X8206118Y29554385D01*
X8213931Y29555000D01*
X9566069Y29555000D01*
X9573882Y29554385D01*
X9654931Y29541548D01*
X9669718Y29536744D01*
X9739326Y29501277D01*
X9751899Y29492142D01*
X9807142Y29436899D01*
X9816277Y29424326D01*
X9851744Y29354718D01*
X9856548Y29339931D01*
X9869385Y29258882D01*
X9870000Y29251069D01*
X9870000Y27898931D01*
X9869385Y27891118D01*
X9856548Y27810069D01*
X9851744Y27795282D01*
X9816277Y27725674D01*
X9807142Y27713101D01*
X9751899Y27657858D01*
X9739326Y27648723D01*
X9669718Y27613256D01*
X9654931Y27608452D01*
X9573882Y27595615D01*
X9566069Y27595000D01*
X8213931Y27595000D01*
X8213931Y21735000D01*
X9836069Y21735000D01*
X9843882Y21734385D01*
X9924931Y21721548D01*
X9939718Y21716744D01*
X10009326Y21681277D01*
X10021899Y21672142D01*
X10077142Y21616899D01*
X10086277Y21604326D01*
X10121744Y21534718D01*
X10126548Y21519931D01*
X10139385Y21438882D01*
X10140000Y21431069D01*
X10140000Y21116150D01*
X10159500Y21056823D01*
X10210395Y21020634D01*
X10272836Y21021696D01*
X10330629Y21073888D01*
X10345626Y21106049D01*
X10349969Y21113572D01*
X10469942Y21284912D01*
X10475530Y21291571D01*
X10623429Y21439470D01*
X10630088Y21445058D01*
X10801428Y21565031D01*
X10808955Y21569376D01*
X10998524Y21657774D01*
X11006683Y21660744D01*
X11208723Y21714880D01*
X11217295Y21716391D01*
X11425645Y21734619D01*
X11434355Y21734619D01*
X11642705Y21716391D01*
X11651277Y21714880D01*
X11853317Y21660744D01*
X11861476Y21657774D01*
X12051045Y21569376D01*
X12058572Y21565031D01*
X12229912Y21445058D01*
X12236571Y21439470D01*
X12384470Y21291571D01*
X12390058Y21284912D01*
X12510031Y21113572D01*
X12514376Y21106045D01*
X12602772Y20916479D01*
X12606033Y20907521D01*
X12644650Y20858442D01*
X12704854Y20841845D01*
X12763164Y20864201D01*
X12793967Y20907521D01*
X12797228Y20916479D01*
X12885624Y21106045D01*
X12889969Y21113572D01*
X13009942Y21284912D01*
X13015530Y21291571D01*
X13163429Y21439470D01*
X13170088Y21445058D01*
X13341428Y21565031D01*
X13348955Y21569376D01*
X13538524Y21657774D01*
X13546683Y21660744D01*
X13748723Y21714880D01*
X13757295Y21716391D01*
X13965645Y21734619D01*
X13974355Y21734619D01*
X14182705Y21716391D01*
X14191277Y21714880D01*
X14393317Y21660744D01*
X14401476Y21657774D01*
X14591045Y21569376D01*
X14598572Y21565031D01*
X14769912Y21445058D01*
X14776571Y21439470D01*
X14924470Y21291571D01*
X14930058Y21284912D01*
X15050031Y21113572D01*
X15054376Y21106045D01*
X15142774Y20916476D01*
X15145744Y20908317D01*
X15199880Y20706277D01*
X15201391Y20697705D01*
X15219808Y20487192D01*
X15220000Y20482805D01*
X15220000Y18887195D01*
X15219808Y18882808D01*
X15201391Y18672295D01*
X15199880Y18663723D01*
X15145744Y18461683D01*
X15142774Y18453524D01*
X15054376Y18263955D01*
X15050031Y18256428D01*
X14930058Y18085088D01*
X14924470Y18078429D01*
X14776571Y17930530D01*
X14769912Y17924942D01*
X14598572Y17804969D01*
X14591045Y17800624D01*
X14401476Y17712226D01*
X14393317Y17709256D01*
X14191277Y17655120D01*
X14182705Y17653609D01*
X13974355Y17635381D01*
X13965645Y17635381D01*
X13757295Y17653609D01*
X13748723Y17655120D01*
X13546683Y17709256D01*
X13538524Y17712226D01*
X13348955Y17800624D01*
X13341428Y17804969D01*
X13170088Y17924942D01*
X13163429Y17930530D01*
X13015530Y18078429D01*
X13009942Y18085088D01*
X12889969Y18256428D01*
X12885624Y18263955D01*
X12797228Y18453521D01*
X12793967Y18462479D01*
X12755350Y18511558D01*
X12695146Y18528155D01*
X12636836Y18505799D01*
X12606033Y18462479D01*
X12602772Y18453521D01*
X12514376Y18263955D01*
X12510031Y18256428D01*
X12390058Y18085088D01*
X12384470Y18078429D01*
X12236571Y17930530D01*
X12229912Y17924942D01*
X12058572Y17804969D01*
X12051045Y17800624D01*
X11861476Y17712226D01*
X11853317Y17709256D01*
X11651277Y17655120D01*
X11642705Y17653609D01*
X11434355Y17635381D01*
X11425645Y17635381D01*
X11217295Y17653609D01*
X11208723Y17655120D01*
X11006683Y17709256D01*
X10998524Y17712226D01*
X10808955Y17800624D01*
X10801428Y17804969D01*
X10630088Y17924942D01*
X10623429Y17930530D01*
X10475530Y18078429D01*
X10469942Y18085088D01*
X10349969Y18256428D01*
X10345626Y18263951D01*
X10330629Y18296112D01*
X10287883Y18341639D01*
X10226462Y18352929D01*
X10170321Y18325577D01*
X10140000Y18253850D01*
X10140000Y17938931D01*
X10139385Y17931118D01*
X10126548Y17850069D01*
X10121744Y17835282D01*
X10086277Y17765674D01*
X10077142Y17753101D01*
X10021899Y17697858D01*
X10009326Y17688723D01*
X9939718Y17653256D01*
X9924931Y17648452D01*
X9843882Y17635615D01*
X9836069Y17635000D01*
X7943931Y17635000D01*
X7943931Y8255000D01*
X8238987Y8255000D01*
X8243752Y8253434D01*
X8255000Y8231172D01*
X8255000Y1369999D01*
X8274500Y1310672D01*
X8354999Y1270000D01*
X17958931Y1270000D01*
X17958931Y46214000D01*
X17951118Y46214615D01*
X17870069Y46227452D01*
X17855282Y46232256D01*
X17785674Y46267723D01*
X17773101Y46276858D01*
X17717858Y46332101D01*
X17708723Y46344674D01*
X17673256Y46414282D01*
X17668452Y46429069D01*
X17655615Y46510118D01*
X17655000Y46517931D01*
X17655000Y47141482D01*
X17656566Y47146247D01*
X17671013Y47153546D01*
X17671013Y47457505D01*
X17666248Y47459071D01*
X17655000Y47481333D01*
X17655000Y48097069D01*
X17655615Y48104882D01*
X17668452Y48185931D01*
X17673256Y48200718D01*
X17708723Y48270326D01*
X17717858Y48282899D01*
X17773101Y48338142D01*
X17785674Y48347277D01*
X17855282Y48382744D01*
X17870069Y48387548D01*
X17951118Y48400385D01*
X17958931Y48401000D01*
X18883982Y48401000D01*
X18888747Y48399434D01*
X18899995Y48377172D01*
X18899995Y48101000D01*
X17955000Y48101000D01*
X17955000Y47457505D01*
X17671013Y47457505D01*
X17671013Y47153546D01*
X17678828Y47157495D01*
X17955000Y47157495D01*
X17955000Y46514000D01*
X18899995Y46514000D01*
X18899995Y46230013D01*
X18898429Y46225248D01*
X18876167Y46214000D01*
X17958931Y46214000D01*
X17958931Y1270000D01*
X19045116Y1270000D01*
X19045116Y27595481D01*
X18863696Y27613349D01*
X18854111Y27615256D01*
X18679677Y27668170D01*
X18670632Y27671917D01*
X18509876Y27757843D01*
X18501740Y27763280D01*
X18360838Y27878914D01*
X18353914Y27885838D01*
X18238280Y28026740D01*
X18232843Y28034876D01*
X18146917Y28195632D01*
X18143170Y28204677D01*
X18090256Y28379111D01*
X18088349Y28388696D01*
X18070481Y28570116D01*
X18070481Y28579884D01*
X18088349Y28761304D01*
X18090256Y28770889D01*
X18143170Y28945323D01*
X18146917Y28954368D01*
X18232843Y29115124D01*
X18238280Y29123260D01*
X18353914Y29264162D01*
X18360838Y29271086D01*
X18501740Y29386720D01*
X18509876Y29392157D01*
X18670632Y29478083D01*
X18679677Y29481830D01*
X18854111Y29534744D01*
X18863696Y29536651D01*
X19045116Y29554519D01*
X19054884Y29554519D01*
X19216018Y29538648D01*
X19216018Y46214000D01*
X19211253Y46215566D01*
X19200005Y46237828D01*
X19200005Y46514000D01*
X20145000Y46514000D01*
X20145000Y47157495D01*
X20145000Y47457505D01*
X20145000Y48101000D01*
X19200005Y48101000D01*
X19200005Y48384987D01*
X19201571Y48389752D01*
X19223833Y48401000D01*
X20141069Y48401000D01*
X20148882Y48400385D01*
X20229931Y48387548D01*
X20244718Y48382744D01*
X20314326Y48347277D01*
X20326899Y48338142D01*
X20382142Y48282899D01*
X20391277Y48270326D01*
X20426744Y48200718D01*
X20431548Y48185931D01*
X20444385Y48104882D01*
X20445000Y48097069D01*
X20445000Y47473518D01*
X20443434Y47468753D01*
X20421172Y47457505D01*
X20145000Y47457505D01*
X20145000Y47157495D01*
X20428987Y47157495D01*
X20433752Y47155929D01*
X20445000Y47133667D01*
X20445000Y46517931D01*
X20444385Y46510118D01*
X20431548Y46429069D01*
X20426744Y46414282D01*
X20391277Y46344674D01*
X20382142Y46332101D01*
X20326899Y46276858D01*
X20314326Y46267723D01*
X20244718Y46232256D01*
X20229931Y46227452D01*
X20148882Y46214615D01*
X20141069Y46214000D01*
X19216018Y46214000D01*
X19216018Y29538648D01*
X19236304Y29536651D01*
X19245889Y29534744D01*
X19420323Y29481830D01*
X19429368Y29478083D01*
X19590124Y29392157D01*
X19598260Y29386720D01*
X19739162Y29271086D01*
X19746086Y29264162D01*
X19861720Y29123260D01*
X19867157Y29115124D01*
X19953083Y28954368D01*
X19956830Y28945323D01*
X20009744Y28770889D01*
X20011651Y28761304D01*
X20029519Y28579884D01*
X20029519Y28570116D01*
X20011651Y28388696D01*
X20009744Y28379111D01*
X19956830Y28204677D01*
X19953083Y28195632D01*
X19867157Y28034876D01*
X19861720Y28026740D01*
X19746086Y27885838D01*
X19739162Y27878914D01*
X19598260Y27763280D01*
X19590124Y27757843D01*
X19429368Y27671917D01*
X19420323Y27668170D01*
X19245889Y27615256D01*
X19236304Y27613349D01*
X19054884Y27595481D01*
X19045116Y27595481D01*
X19045116Y1270000D01*
X21278931Y1270000D01*
X21278931Y17635000D01*
X21271118Y17635615D01*
X21190069Y17648452D01*
X21175282Y17653256D01*
X21105674Y17688723D01*
X21093101Y17697858D01*
X21037858Y17753101D01*
X21028723Y17765674D01*
X20993256Y17835282D01*
X20988452Y17850069D01*
X20975615Y17931118D01*
X20975000Y17938931D01*
X20975000Y21431069D01*
X20975615Y21438882D01*
X20988452Y21519931D01*
X20993256Y21534718D01*
X21028723Y21604326D01*
X21037858Y21616899D01*
X21093101Y21672142D01*
X21105674Y21681277D01*
X21175282Y21716744D01*
X21190069Y21721548D01*
X21271118Y21734385D01*
X21278931Y21735000D01*
X21548931Y21735000D01*
X21548931Y27595000D01*
X21541118Y27595615D01*
X21460069Y27608452D01*
X21445282Y27613256D01*
X21375674Y27648723D01*
X21363101Y27657858D01*
X21307858Y27713101D01*
X21298723Y27725674D01*
X21263256Y27795282D01*
X21258452Y27810069D01*
X21245615Y27891118D01*
X21245000Y27898931D01*
X21245000Y29251069D01*
X21245615Y29258882D01*
X21258452Y29339931D01*
X21263256Y29354718D01*
X21298723Y29424326D01*
X21307858Y29436899D01*
X21363101Y29492142D01*
X21375674Y29501277D01*
X21445282Y29536744D01*
X21460069Y29541548D01*
X21541118Y29554385D01*
X21548931Y29555000D01*
X22901069Y29555000D01*
X22908882Y29554385D01*
X22989931Y29541548D01*
X23004718Y29536744D01*
X23074326Y29501277D01*
X23086899Y29492142D01*
X23142142Y29436899D01*
X23151277Y29424326D01*
X23186744Y29354718D01*
X23191548Y29339931D01*
X23204385Y29258882D01*
X23205000Y29251069D01*
X23205000Y27898931D01*
X23204385Y27891118D01*
X23191548Y27810069D01*
X23186744Y27795282D01*
X23151277Y27725674D01*
X23142142Y27713101D01*
X23086899Y27657858D01*
X23074326Y27648723D01*
X23004718Y27613256D01*
X22989931Y27608452D01*
X22908882Y27595615D01*
X22901069Y27595000D01*
X21548931Y27595000D01*
X21548931Y21735000D01*
X23171069Y21735000D01*
X23178882Y21734385D01*
X23259931Y21721548D01*
X23274718Y21716744D01*
X23344326Y21681277D01*
X23356899Y21672142D01*
X23412142Y21616899D01*
X23421277Y21604326D01*
X23456744Y21534718D01*
X23461548Y21519931D01*
X23474385Y21438882D01*
X23475000Y21431069D01*
X23475000Y21116150D01*
X23494500Y21056823D01*
X23545395Y21020634D01*
X23607836Y21021696D01*
X23665629Y21073888D01*
X23680626Y21106049D01*
X23684969Y21113572D01*
X23804942Y21284912D01*
X23810530Y21291571D01*
X23958429Y21439470D01*
X23965088Y21445058D01*
X24136428Y21565031D01*
X24143955Y21569376D01*
X24333524Y21657774D01*
X24341683Y21660744D01*
X24543723Y21714880D01*
X24552295Y21716391D01*
X24760645Y21734619D01*
X24769355Y21734619D01*
X24977705Y21716391D01*
X24986277Y21714880D01*
X25188317Y21660744D01*
X25196476Y21657774D01*
X25386045Y21569376D01*
X25393572Y21565031D01*
X25564912Y21445058D01*
X25571571Y21439470D01*
X25719470Y21291571D01*
X25725058Y21284912D01*
X25845031Y21113572D01*
X25849376Y21106045D01*
X25937772Y20916479D01*
X25941033Y20907521D01*
X25979650Y20858442D01*
X26039854Y20841845D01*
X26098164Y20864201D01*
X26128967Y20907521D01*
X26132228Y20916479D01*
X26220624Y21106045D01*
X26224969Y21113572D01*
X26344942Y21284912D01*
X26350530Y21291571D01*
X26498429Y21439470D01*
X26505088Y21445058D01*
X26665116Y21557110D01*
X26665116Y37755481D01*
X26483696Y37773349D01*
X26474111Y37775256D01*
X26299677Y37828170D01*
X26290632Y37831917D01*
X26129876Y37917843D01*
X26121740Y37923280D01*
X25980838Y38038914D01*
X25973914Y38045838D01*
X25858280Y38186740D01*
X25852843Y38194876D01*
X25766917Y38355632D01*
X25763170Y38364677D01*
X25710256Y38539111D01*
X25708349Y38548696D01*
X25690481Y38730116D01*
X25690481Y38739884D01*
X25708349Y38921304D01*
X25710256Y38930889D01*
X25763170Y39105323D01*
X25766917Y39114368D01*
X25852843Y39275124D01*
X25858280Y39283260D01*
X25973914Y39424162D01*
X25980838Y39431086D01*
X26121740Y39546720D01*
X26129876Y39552157D01*
X26290632Y39638083D01*
X26299677Y39641830D01*
X26474111Y39694744D01*
X26483696Y39696651D01*
X26665116Y39714519D01*
X26674884Y39714519D01*
X26856304Y39696651D01*
X26865889Y39694744D01*
X27040323Y39641830D01*
X27049368Y39638083D01*
X27210124Y39552157D01*
X27218260Y39546720D01*
X27359162Y39431086D01*
X27366086Y39424162D01*
X27481720Y39283260D01*
X27487157Y39275124D01*
X27573083Y39114368D01*
X27576830Y39105323D01*
X27629744Y38930889D01*
X27631651Y38921304D01*
X27649519Y38739884D01*
X27649519Y38730116D01*
X27631651Y38548696D01*
X27629744Y38539111D01*
X27576830Y38364677D01*
X27573083Y38355632D01*
X27487157Y38194876D01*
X27481720Y38186740D01*
X27366086Y38045838D01*
X27359162Y38038914D01*
X27218260Y37923280D01*
X27210124Y37917843D01*
X27049368Y37831917D01*
X27040323Y37828170D01*
X26865889Y37775256D01*
X26856304Y37773349D01*
X26674884Y37755481D01*
X26665116Y37755481D01*
X26665116Y21557110D01*
X26676428Y21565031D01*
X26683955Y21569376D01*
X26873524Y21657774D01*
X26881683Y21660744D01*
X27083723Y21714880D01*
X27092295Y21716391D01*
X27300645Y21734619D01*
X27309355Y21734619D01*
X27517705Y21716391D01*
X27526277Y21714880D01*
X27728317Y21660744D01*
X27736476Y21657774D01*
X27926045Y21569376D01*
X27933572Y21565031D01*
X28104912Y21445058D01*
X28111571Y21439470D01*
X28259470Y21291571D01*
X28265058Y21284912D01*
X28385031Y21113572D01*
X28389376Y21106045D01*
X28477774Y20916476D01*
X28480744Y20908317D01*
X28534880Y20706277D01*
X28536391Y20697705D01*
X28554808Y20487192D01*
X28555000Y20482805D01*
X28555000Y18887195D01*
X28554808Y18882808D01*
X28536391Y18672295D01*
X28534880Y18663723D01*
X28480744Y18461683D01*
X28477774Y18453524D01*
X28389376Y18263955D01*
X28385031Y18256428D01*
X28265058Y18085088D01*
X28259470Y18078429D01*
X28111571Y17930530D01*
X28104912Y17924942D01*
X27933572Y17804969D01*
X27926045Y17800624D01*
X27736476Y17712226D01*
X27728317Y17709256D01*
X27526277Y17655120D01*
X27517705Y17653609D01*
X27309355Y17635381D01*
X27300645Y17635381D01*
X27092295Y17653609D01*
X27083723Y17655120D01*
X26881683Y17709256D01*
X26873524Y17712226D01*
X26683955Y17800624D01*
X26676428Y17804969D01*
X26505088Y17924942D01*
X26498429Y17930530D01*
X26350530Y18078429D01*
X26344942Y18085088D01*
X26224969Y18256428D01*
X26220624Y18263955D01*
X26132228Y18453521D01*
X26128967Y18462479D01*
X26090350Y18511558D01*
X26030146Y18528155D01*
X25971836Y18505799D01*
X25941033Y18462479D01*
X25937772Y18453521D01*
X25849376Y18263955D01*
X25845031Y18256428D01*
X25725058Y18085088D01*
X25719470Y18078429D01*
X25571571Y17930530D01*
X25564912Y17924942D01*
X25393572Y17804969D01*
X25386045Y17800624D01*
X25196476Y17712226D01*
X25188317Y17709256D01*
X24986277Y17655120D01*
X24977705Y17653609D01*
X24769355Y17635381D01*
X24760645Y17635381D01*
X24552295Y17653609D01*
X24543723Y17655120D01*
X24341683Y17709256D01*
X24333524Y17712226D01*
X24143955Y17800624D01*
X24136428Y17804969D01*
X23965088Y17924942D01*
X23958429Y17930530D01*
X23810530Y18078429D01*
X23804942Y18085088D01*
X23684969Y18256428D01*
X23680626Y18263951D01*
X23665629Y18296112D01*
X23622883Y18341639D01*
X23561462Y18352929D01*
X23505321Y18325577D01*
X23475000Y18253850D01*
X23475000Y17938931D01*
X23474385Y17931118D01*
X23461548Y17850069D01*
X23456744Y17835282D01*
X23421277Y17765674D01*
X23412142Y17753101D01*
X23356899Y17697858D01*
X23344326Y17688723D01*
X23274718Y17653256D01*
X23259931Y17648452D01*
X23178882Y17635615D01*
X23171069Y17635000D01*
X21278931Y17635000D01*
X21278931Y1270000D01*
X29803931Y1270000D01*
X29803931Y37755000D01*
X29796118Y37755615D01*
X29715069Y37768452D01*
X29700282Y37773256D01*
X29630674Y37808723D01*
X29618101Y37817858D01*
X29562858Y37873101D01*
X29553723Y37885674D01*
X29518256Y37955282D01*
X29513452Y37970069D01*
X29500615Y38051118D01*
X29500000Y38058931D01*
X29500000Y39411069D01*
X29500615Y39418882D01*
X29513452Y39499931D01*
X29518256Y39514718D01*
X29553723Y39584326D01*
X29562858Y39596899D01*
X29618101Y39652142D01*
X29630674Y39661277D01*
X29700282Y39696744D01*
X29715069Y39701548D01*
X29796118Y39714385D01*
X29803931Y39715000D01*
X31156069Y39715000D01*
X31163882Y39714385D01*
X31244931Y39701548D01*
X31259718Y39696744D01*
X31329326Y39661277D01*
X31341899Y39652142D01*
X31397142Y39596899D01*
X31406277Y39584326D01*
X31441744Y39514718D01*
X31446548Y39499931D01*
X31459385Y39418882D01*
X31460000Y39411069D01*
X31460000Y38058931D01*
X31459385Y38051118D01*
X31446548Y37970069D01*
X31441744Y37955282D01*
X31406277Y37885674D01*
X31397142Y37873101D01*
X31341899Y37817858D01*
X31329326Y37808723D01*
X31259718Y37773256D01*
X31244931Y37768452D01*
X31163882Y37755615D01*
X31156069Y37755000D01*
X29803931Y37755000D01*
X29803931Y1270000D01*
X32380116Y1270000D01*
X32380116Y27595481D01*
X32198696Y27613349D01*
X32189111Y27615256D01*
X32014677Y27668170D01*
X32005632Y27671917D01*
X31844876Y27757843D01*
X31836740Y27763280D01*
X31695838Y27878914D01*
X31688914Y27885838D01*
X31573280Y28026740D01*
X31567843Y28034876D01*
X31481917Y28195632D01*
X31478170Y28204677D01*
X31425256Y28379111D01*
X31423349Y28388696D01*
X31405481Y28570116D01*
X31405481Y28579884D01*
X31423349Y28761304D01*
X31425256Y28770889D01*
X31478170Y28945323D01*
X31481917Y28954368D01*
X31567843Y29115124D01*
X31573280Y29123260D01*
X31688914Y29264162D01*
X31695838Y29271086D01*
X31836740Y29386720D01*
X31844876Y29392157D01*
X32005632Y29478083D01*
X32014677Y29481830D01*
X32189111Y29534744D01*
X32198696Y29536651D01*
X32380116Y29554519D01*
X32389884Y29554519D01*
X32571304Y29536651D01*
X32580889Y29534744D01*
X32755323Y29481830D01*
X32764368Y29478083D01*
X32925124Y29392157D01*
X32933260Y29386720D01*
X33074162Y29271086D01*
X33081086Y29264162D01*
X33196720Y29123260D01*
X33198931Y29119951D01*
X33198931Y46214000D01*
X33191118Y46214615D01*
X33110069Y46227452D01*
X33095282Y46232256D01*
X33025674Y46267723D01*
X33013101Y46276858D01*
X32957858Y46332101D01*
X32948723Y46344674D01*
X32913256Y46414282D01*
X32908452Y46429069D01*
X32895615Y46510118D01*
X32895000Y46517931D01*
X32895000Y48097069D01*
X32895615Y48104882D01*
X32908452Y48185931D01*
X32913256Y48200718D01*
X32948723Y48270326D01*
X32957858Y48282899D01*
X33013101Y48338142D01*
X33025674Y48347277D01*
X33095282Y48382744D01*
X33110069Y48387548D01*
X33191118Y48400385D01*
X33198931Y48401000D01*
X35381069Y48401000D01*
X35388882Y48400385D01*
X35469931Y48387548D01*
X35484718Y48382744D01*
X35554326Y48347277D01*
X35566899Y48338142D01*
X35622142Y48282899D01*
X35631277Y48270326D01*
X35666744Y48200718D01*
X35671548Y48185931D01*
X35684385Y48104882D01*
X35685000Y48097069D01*
X35685000Y46517931D01*
X35684385Y46510118D01*
X35671548Y46429069D01*
X35666744Y46414282D01*
X35631277Y46344674D01*
X35622142Y46332101D01*
X35566899Y46276858D01*
X35554326Y46267723D01*
X35484718Y46232256D01*
X35469931Y46227452D01*
X35388882Y46214615D01*
X35381069Y46214000D01*
X33198931Y46214000D01*
X33198931Y29119951D01*
X33202157Y29115124D01*
X33288083Y28954368D01*
X33291830Y28945323D01*
X33344744Y28770889D01*
X33346651Y28761304D01*
X33364519Y28579884D01*
X33364519Y28570116D01*
X33346651Y28388696D01*
X33344744Y28379111D01*
X33291830Y28204677D01*
X33288083Y28195632D01*
X33202157Y28034876D01*
X33196720Y28026740D01*
X33081086Y27885838D01*
X33074162Y27878914D01*
X32933260Y27763280D01*
X32925124Y27757843D01*
X32764368Y27671917D01*
X32755323Y27668170D01*
X32580889Y27615256D01*
X32571304Y27613349D01*
X32389884Y27595481D01*
X32380116Y27595481D01*
X32380116Y1270000D01*
X34613931Y1270000D01*
X34613931Y17635000D01*
X34606118Y17635615D01*
X34525069Y17648452D01*
X34510282Y17653256D01*
X34440674Y17688723D01*
X34428101Y17697858D01*
X34372858Y17753101D01*
X34363723Y17765674D01*
X34328256Y17835282D01*
X34323452Y17850069D01*
X34310615Y17931118D01*
X34310000Y17938931D01*
X34310000Y21431069D01*
X34310615Y21438882D01*
X34323452Y21519931D01*
X34328256Y21534718D01*
X34363723Y21604326D01*
X34372858Y21616899D01*
X34428101Y21672142D01*
X34440674Y21681277D01*
X34510282Y21716744D01*
X34525069Y21721548D01*
X34606118Y21734385D01*
X34613931Y21735000D01*
X34883931Y21735000D01*
X34883931Y27595000D01*
X34876118Y27595615D01*
X34795069Y27608452D01*
X34780282Y27613256D01*
X34710674Y27648723D01*
X34698101Y27657858D01*
X34642858Y27713101D01*
X34633723Y27725674D01*
X34598256Y27795282D01*
X34593452Y27810069D01*
X34580615Y27891118D01*
X34580000Y27898931D01*
X34580000Y29251069D01*
X34580615Y29258882D01*
X34593452Y29339931D01*
X34598256Y29354718D01*
X34633723Y29424326D01*
X34642858Y29436899D01*
X34698101Y29492142D01*
X34710674Y29501277D01*
X34780282Y29536744D01*
X34795069Y29541548D01*
X34876118Y29554385D01*
X34883931Y29555000D01*
X36236069Y29555000D01*
X36243882Y29554385D01*
X36324931Y29541548D01*
X36339718Y29536744D01*
X36409326Y29501277D01*
X36421899Y29492142D01*
X36477142Y29436899D01*
X36486277Y29424326D01*
X36521744Y29354718D01*
X36526548Y29339931D01*
X36539385Y29258882D01*
X36540000Y29251069D01*
X36540000Y27898931D01*
X36539385Y27891118D01*
X36526548Y27810069D01*
X36521744Y27795282D01*
X36486277Y27725674D01*
X36477142Y27713101D01*
X36421899Y27657858D01*
X36409326Y27648723D01*
X36339718Y27613256D01*
X36324931Y27608452D01*
X36243882Y27595615D01*
X36236069Y27595000D01*
X34883931Y27595000D01*
X34883931Y21735000D01*
X36506069Y21735000D01*
X36513882Y21734385D01*
X36594931Y21721548D01*
X36609718Y21716744D01*
X36679326Y21681277D01*
X36691899Y21672142D01*
X36747142Y21616899D01*
X36756277Y21604326D01*
X36791744Y21534718D01*
X36796548Y21519931D01*
X36809385Y21438882D01*
X36810000Y21431069D01*
X36810000Y21116150D01*
X36829500Y21056823D01*
X36880395Y21020634D01*
X36942836Y21021696D01*
X37000629Y21073888D01*
X37015626Y21106049D01*
X37019969Y21113572D01*
X37139942Y21284912D01*
X37145530Y21291571D01*
X37293429Y21439470D01*
X37300088Y21445058D01*
X37471428Y21565031D01*
X37478955Y21569376D01*
X37668524Y21657774D01*
X37676683Y21660744D01*
X37878723Y21714880D01*
X37887295Y21716391D01*
X38095645Y21734619D01*
X38104355Y21734619D01*
X38312705Y21716391D01*
X38321277Y21714880D01*
X38523317Y21660744D01*
X38531476Y21657774D01*
X38721045Y21569376D01*
X38728572Y21565031D01*
X38899912Y21445058D01*
X38906571Y21439470D01*
X39054470Y21291571D01*
X39060058Y21284912D01*
X39180031Y21113572D01*
X39184376Y21106045D01*
X39272772Y20916479D01*
X39276033Y20907521D01*
X39314650Y20858442D01*
X39374854Y20841845D01*
X39433164Y20864201D01*
X39463967Y20907521D01*
X39467228Y20916479D01*
X39555624Y21106045D01*
X39559969Y21113572D01*
X39679942Y21284912D01*
X39685530Y21291571D01*
X39833429Y21439470D01*
X39840088Y21445058D01*
X40011428Y21565031D01*
X40018955Y21569376D01*
X40208524Y21657774D01*
X40216683Y21660744D01*
X40418723Y21714880D01*
X40427295Y21716391D01*
X40635116Y21734572D01*
X40635116Y37755481D01*
X40453696Y37773349D01*
X40444111Y37775256D01*
X40269677Y37828170D01*
X40260632Y37831917D01*
X40099876Y37917843D01*
X40091740Y37923280D01*
X39950838Y38038914D01*
X39943914Y38045838D01*
X39828280Y38186740D01*
X39822843Y38194876D01*
X39736917Y38355632D01*
X39733170Y38364677D01*
X39680256Y38539111D01*
X39678349Y38548696D01*
X39660481Y38730116D01*
X39660481Y38739884D01*
X39678349Y38921304D01*
X39680256Y38930889D01*
X39733170Y39105323D01*
X39736917Y39114368D01*
X39822843Y39275124D01*
X39828280Y39283260D01*
X39943914Y39424162D01*
X39950838Y39431086D01*
X40091740Y39546720D01*
X40099876Y39552157D01*
X40260632Y39638083D01*
X40269677Y39641830D01*
X40444111Y39694744D01*
X40453696Y39696651D01*
X40635116Y39714519D01*
X40644884Y39714519D01*
X40826304Y39696651D01*
X40835889Y39694744D01*
X41010323Y39641830D01*
X41019368Y39638083D01*
X41180124Y39552157D01*
X41188260Y39546720D01*
X41329162Y39431086D01*
X41336086Y39424162D01*
X41451720Y39283260D01*
X41457157Y39275124D01*
X41543083Y39114368D01*
X41546830Y39105323D01*
X41599744Y38930889D01*
X41601651Y38921304D01*
X41619519Y38739884D01*
X41619519Y38730116D01*
X41601651Y38548696D01*
X41599744Y38539111D01*
X41546830Y38364677D01*
X41543083Y38355632D01*
X41457157Y38194876D01*
X41451720Y38186740D01*
X41336086Y38045838D01*
X41329162Y38038914D01*
X41188260Y37923280D01*
X41180124Y37917843D01*
X41019368Y37831917D01*
X41010323Y37828170D01*
X40835889Y37775256D01*
X40826304Y37773349D01*
X40644884Y37755481D01*
X40635116Y37755481D01*
X40635116Y21734572D01*
X40635645Y21734619D01*
X40644355Y21734619D01*
X40852705Y21716391D01*
X40861277Y21714880D01*
X41063317Y21660744D01*
X41071476Y21657774D01*
X41261045Y21569376D01*
X41268572Y21565031D01*
X41439912Y21445058D01*
X41446571Y21439470D01*
X41594470Y21291571D01*
X41600058Y21284912D01*
X41720031Y21113572D01*
X41724376Y21106045D01*
X41812774Y20916476D01*
X41815744Y20908317D01*
X41869880Y20706277D01*
X41871391Y20697705D01*
X41889808Y20487192D01*
X41890000Y20482805D01*
X41890000Y18887195D01*
X41889808Y18882808D01*
X41871391Y18672295D01*
X41869880Y18663723D01*
X41815744Y18461683D01*
X41812774Y18453524D01*
X41724376Y18263955D01*
X41720031Y18256428D01*
X41600058Y18085088D01*
X41594470Y18078429D01*
X41446571Y17930530D01*
X41439912Y17924942D01*
X41268572Y17804969D01*
X41261045Y17800624D01*
X41071476Y17712226D01*
X41063317Y17709256D01*
X40861277Y17655120D01*
X40852705Y17653609D01*
X40644355Y17635381D01*
X40635645Y17635381D01*
X40427295Y17653609D01*
X40418723Y17655120D01*
X40216683Y17709256D01*
X40208524Y17712226D01*
X40018955Y17800624D01*
X40011428Y17804969D01*
X39840088Y17924942D01*
X39833429Y17930530D01*
X39685530Y18078429D01*
X39679942Y18085088D01*
X39559969Y18256428D01*
X39555624Y18263955D01*
X39467228Y18453521D01*
X39463967Y18462479D01*
X39425350Y18511558D01*
X39365146Y18528155D01*
X39306836Y18505799D01*
X39276033Y18462479D01*
X39272772Y18453521D01*
X39184376Y18263955D01*
X39180031Y18256428D01*
X39060058Y18085088D01*
X39054470Y18078429D01*
X38906571Y17930530D01*
X38899912Y17924942D01*
X38728572Y17804969D01*
X38721045Y17800624D01*
X38531476Y17712226D01*
X38523317Y17709256D01*
X38321277Y17655120D01*
X38312705Y17653609D01*
X38104355Y17635381D01*
X38095645Y17635381D01*
X37887295Y17653609D01*
X37878723Y17655120D01*
X37676683Y17709256D01*
X37668524Y17712226D01*
X37478955Y17800624D01*
X37471428Y17804969D01*
X37300088Y17924942D01*
X37293429Y17930530D01*
X37145530Y18078429D01*
X37139942Y18085088D01*
X37019969Y18256428D01*
X37015626Y18263951D01*
X37000629Y18296112D01*
X36957883Y18341639D01*
X36896462Y18352929D01*
X36840321Y18325577D01*
X36810000Y18253850D01*
X36810000Y17938931D01*
X36809385Y17931118D01*
X36796548Y17850069D01*
X36791744Y17835282D01*
X36756277Y17765674D01*
X36747142Y17753101D01*
X36691899Y17697858D01*
X36679326Y17688723D01*
X36609718Y17653256D01*
X36594931Y17648452D01*
X36513882Y17635615D01*
X36506069Y17635000D01*
X34613931Y17635000D01*
X34613931Y1270000D01*
X45715116Y1270000D01*
X45715116Y27595481D01*
X45533696Y27613349D01*
X45524111Y27615256D01*
X45349677Y27668170D01*
X45340632Y27671917D01*
X45179876Y27757843D01*
X45171740Y27763280D01*
X45030838Y27878914D01*
X45023914Y27885838D01*
X44908280Y28026740D01*
X44902843Y28034876D01*
X44816917Y28195632D01*
X44813170Y28204677D01*
X44760256Y28379111D01*
X44758349Y28388696D01*
X44740481Y28570116D01*
X44740481Y28579884D01*
X44758349Y28761304D01*
X44760256Y28770889D01*
X44813170Y28945323D01*
X44816917Y28954368D01*
X44902843Y29115124D01*
X44908280Y29123260D01*
X45023914Y29264162D01*
X45030838Y29271086D01*
X45171740Y29386720D01*
X45179876Y29392157D01*
X45340632Y29478083D01*
X45349677Y29481830D01*
X45524111Y29534744D01*
X45533696Y29536651D01*
X45715116Y29554519D01*
X45724884Y29554519D01*
X45906304Y29536651D01*
X45915889Y29534744D01*
X46090323Y29481830D01*
X46099368Y29478083D01*
X46260124Y29392157D01*
X46268260Y29386720D01*
X46409162Y29271086D01*
X46416086Y29264162D01*
X46531720Y29123260D01*
X46537157Y29115124D01*
X46623083Y28954368D01*
X46626830Y28945323D01*
X46679744Y28770889D01*
X46681651Y28761304D01*
X46699519Y28579884D01*
X46699519Y28570116D01*
X46681651Y28388696D01*
X46679744Y28379111D01*
X46626830Y28204677D01*
X46623083Y28195632D01*
X46537157Y28034876D01*
X46531720Y28026740D01*
X46416086Y27885838D01*
X46409162Y27878914D01*
X46268260Y27763280D01*
X46260124Y27757843D01*
X46099368Y27671917D01*
X46090323Y27668170D01*
X45915889Y27615256D01*
X45906304Y27613349D01*
X45724884Y27595481D01*
X45715116Y27595481D01*
X45715116Y1270000D01*
X47960811Y1270000D01*
X47960811Y8431500D01*
X47956195Y8431714D01*
X47762175Y8449692D01*
X47753126Y8451384D01*
X47567931Y8504076D01*
X47559337Y8507406D01*
X47386987Y8593226D01*
X47379157Y8598074D01*
X47225508Y8714104D01*
X47218695Y8720316D01*
X47088982Y8862603D01*
X47083436Y8869947D01*
X46982069Y9033661D01*
X46977971Y9041891D01*
X46908417Y9221433D01*
X46905893Y9230301D01*
X46870514Y9419561D01*
X46869665Y9428726D01*
X46869665Y9621274D01*
X46870514Y9630439D01*
X46905893Y9819699D01*
X46908417Y9828567D01*
X46977971Y10008109D01*
X46982069Y10016339D01*
X47083436Y10180053D01*
X47088982Y10187397D01*
X47218695Y10329684D01*
X47225508Y10335896D01*
X47379157Y10451926D01*
X47386987Y10456774D01*
X47559337Y10542594D01*
X47567931Y10545924D01*
X47753126Y10598616D01*
X47762175Y10600308D01*
X47956195Y10618286D01*
X47960811Y10618500D01*
X47960811Y10971500D01*
X47956195Y10971714D01*
X47762175Y10989692D01*
X47753126Y10991384D01*
X47567931Y11044076D01*
X47559337Y11047406D01*
X47386987Y11133226D01*
X47379157Y11138074D01*
X47225508Y11254104D01*
X47218695Y11260316D01*
X47088982Y11402603D01*
X47083436Y11409947D01*
X46982069Y11573661D01*
X46977971Y11581891D01*
X46908417Y11761433D01*
X46905893Y11770301D01*
X46870514Y11959561D01*
X46869665Y11968726D01*
X46869665Y12161274D01*
X46870514Y12170439D01*
X46905893Y12359699D01*
X46908417Y12368567D01*
X46977971Y12548109D01*
X46982069Y12556339D01*
X47083436Y12720053D01*
X47088982Y12727397D01*
X47218695Y12869684D01*
X47225508Y12875896D01*
X47379157Y12991926D01*
X47386987Y12996774D01*
X47559337Y13082594D01*
X47567931Y13085924D01*
X47753126Y13138616D01*
X47762175Y13140308D01*
X47956195Y13158286D01*
X47960811Y13158500D01*
X47960811Y13511500D01*
X47956195Y13511714D01*
X47762175Y13529692D01*
X47753126Y13531384D01*
X47567931Y13584076D01*
X47559337Y13587406D01*
X47386987Y13673226D01*
X47379157Y13678074D01*
X47225508Y13794104D01*
X47218695Y13800316D01*
X47088982Y13942603D01*
X47083436Y13949947D01*
X46982069Y14113661D01*
X46977971Y14121891D01*
X46908417Y14301433D01*
X46905893Y14310301D01*
X46870514Y14499561D01*
X46869665Y14508726D01*
X46869665Y14701274D01*
X46870514Y14710439D01*
X46905893Y14899699D01*
X46908417Y14908567D01*
X46977971Y15088109D01*
X46982069Y15096339D01*
X47083436Y15260053D01*
X47088982Y15267397D01*
X47218695Y15409684D01*
X47225508Y15415896D01*
X47379157Y15531926D01*
X47386987Y15536774D01*
X47559337Y15622594D01*
X47567931Y15625924D01*
X47753126Y15678616D01*
X47762175Y15680308D01*
X47956195Y15698286D01*
X47960811Y15698500D01*
X47960811Y16051500D01*
X47956195Y16051714D01*
X47762175Y16069692D01*
X47753126Y16071384D01*
X47567931Y16124076D01*
X47559337Y16127406D01*
X47386987Y16213226D01*
X47379157Y16218074D01*
X47225508Y16334104D01*
X47218695Y16340316D01*
X47088982Y16482603D01*
X47083436Y16489947D01*
X46982069Y16653661D01*
X46977971Y16661891D01*
X46908417Y16841433D01*
X46905893Y16850301D01*
X46870514Y17039561D01*
X46869665Y17048726D01*
X46869665Y17241274D01*
X46870514Y17250439D01*
X46905893Y17439699D01*
X46908417Y17448567D01*
X46977971Y17628109D01*
X46982069Y17636339D01*
X47083436Y17800053D01*
X47088982Y17807397D01*
X47218695Y17949684D01*
X47225508Y17955896D01*
X47379157Y18071926D01*
X47386987Y18076774D01*
X47559337Y18162594D01*
X47567931Y18165924D01*
X47753126Y18218616D01*
X47762175Y18220308D01*
X47956195Y18238286D01*
X47960811Y18238500D01*
X47960811Y18591500D01*
X47956195Y18591714D01*
X47762175Y18609692D01*
X47753126Y18611384D01*
X47567931Y18664076D01*
X47559337Y18667406D01*
X47386987Y18753226D01*
X47379157Y18758074D01*
X47225508Y18874104D01*
X47218695Y18880316D01*
X47088982Y19022603D01*
X47083436Y19029947D01*
X46982069Y19193661D01*
X46977971Y19201891D01*
X46908417Y19381433D01*
X46905893Y19390301D01*
X46870514Y19579561D01*
X46869665Y19588726D01*
X46869665Y19781274D01*
X46870514Y19790439D01*
X46905893Y19979699D01*
X46908417Y19988567D01*
X46977971Y20168109D01*
X46982069Y20176339D01*
X47083436Y20340053D01*
X47088982Y20347397D01*
X47218695Y20489684D01*
X47225508Y20495896D01*
X47379157Y20611926D01*
X47386987Y20616774D01*
X47559337Y20702594D01*
X47567931Y20705924D01*
X47753126Y20758616D01*
X47762175Y20760308D01*
X47956195Y20778286D01*
X47960811Y20778500D01*
X47960811Y21131500D01*
X47956195Y21131714D01*
X47762175Y21149692D01*
X47753126Y21151384D01*
X47567931Y21204076D01*
X47559337Y21207406D01*
X47386987Y21293226D01*
X47379157Y21298074D01*
X47225508Y21414104D01*
X47218695Y21420316D01*
X47088982Y21562603D01*
X47083436Y21569947D01*
X46982069Y21733661D01*
X46977971Y21741891D01*
X46908417Y21921433D01*
X46905893Y21930301D01*
X46870514Y22119561D01*
X46869665Y22128726D01*
X46869665Y22321274D01*
X46870514Y22330439D01*
X46905893Y22519699D01*
X46908417Y22528567D01*
X46977971Y22708109D01*
X46982069Y22716339D01*
X47083436Y22880053D01*
X47088982Y22887397D01*
X47218695Y23029684D01*
X47225508Y23035896D01*
X47379157Y23151926D01*
X47386987Y23156774D01*
X47559337Y23242594D01*
X47567931Y23245924D01*
X47753126Y23298616D01*
X47762175Y23300308D01*
X47956195Y23318286D01*
X47960811Y23318500D01*
X47960811Y23671500D01*
X47956195Y23671714D01*
X47762175Y23689692D01*
X47753126Y23691384D01*
X47567931Y23744076D01*
X47559337Y23747406D01*
X47386987Y23833226D01*
X47379157Y23838074D01*
X47225508Y23954104D01*
X47218695Y23960316D01*
X47088982Y24102603D01*
X47083436Y24109947D01*
X46982069Y24273661D01*
X46977971Y24281891D01*
X46908417Y24461433D01*
X46905893Y24470301D01*
X46870514Y24659561D01*
X46869665Y24668726D01*
X46869665Y24861274D01*
X46870514Y24870439D01*
X46905893Y25059699D01*
X46908417Y25068567D01*
X46977971Y25248109D01*
X46982069Y25256339D01*
X47083436Y25420053D01*
X47088982Y25427397D01*
X47218695Y25569684D01*
X47225508Y25575896D01*
X47379157Y25691926D01*
X47386987Y25696774D01*
X47559337Y25782594D01*
X47567931Y25785924D01*
X47753126Y25838616D01*
X47762175Y25840308D01*
X47956195Y25858286D01*
X47960811Y25858500D01*
X47960811Y26211500D01*
X47956195Y26211714D01*
X47762175Y26229692D01*
X47753126Y26231384D01*
X47567931Y26284076D01*
X47559337Y26287406D01*
X47386987Y26373226D01*
X47379157Y26378074D01*
X47225508Y26494104D01*
X47218695Y26500316D01*
X47088982Y26642603D01*
X47083436Y26649947D01*
X46982069Y26813661D01*
X46977971Y26821891D01*
X46908417Y27001433D01*
X46905893Y27010301D01*
X46870514Y27199561D01*
X46869665Y27208726D01*
X46869665Y27401274D01*
X46870514Y27410439D01*
X46905893Y27599699D01*
X46908417Y27608567D01*
X46977971Y27788109D01*
X46982069Y27796339D01*
X47083436Y27960053D01*
X47088982Y27967397D01*
X47218695Y28109684D01*
X47225508Y28115896D01*
X47379157Y28231926D01*
X47386987Y28236774D01*
X47559337Y28322594D01*
X47567931Y28325924D01*
X47753126Y28378616D01*
X47762175Y28380308D01*
X47956195Y28398286D01*
X47960811Y28398500D01*
X47960811Y28751500D01*
X47956195Y28751714D01*
X47762175Y28769692D01*
X47753126Y28771384D01*
X47567931Y28824076D01*
X47559337Y28827406D01*
X47386987Y28913226D01*
X47379157Y28918074D01*
X47225508Y29034104D01*
X47218695Y29040316D01*
X47088982Y29182603D01*
X47083436Y29189947D01*
X46982069Y29353661D01*
X46977971Y29361891D01*
X46908417Y29541433D01*
X46905893Y29550301D01*
X46870514Y29739561D01*
X46869665Y29748726D01*
X46869665Y29941274D01*
X46870514Y29950439D01*
X46905893Y30139699D01*
X46908417Y30148567D01*
X46977971Y30328109D01*
X46982069Y30336339D01*
X47083436Y30500053D01*
X47088982Y30507397D01*
X47218695Y30649684D01*
X47225508Y30655896D01*
X47379157Y30771926D01*
X47386987Y30776774D01*
X47559337Y30862594D01*
X47567931Y30865924D01*
X47753126Y30918616D01*
X47762175Y30920308D01*
X47956195Y30938286D01*
X47960811Y30938500D01*
X47960811Y31291500D01*
X47956195Y31291714D01*
X47762175Y31309692D01*
X47753126Y31311384D01*
X47567931Y31364076D01*
X47559337Y31367406D01*
X47386987Y31453226D01*
X47379157Y31458074D01*
X47225508Y31574104D01*
X47218695Y31580316D01*
X47088982Y31722603D01*
X47083436Y31729947D01*
X46982069Y31893661D01*
X46977971Y31901891D01*
X46908417Y32081433D01*
X46905893Y32090301D01*
X46870514Y32279561D01*
X46869665Y32288726D01*
X46869665Y32481274D01*
X46870514Y32490439D01*
X46905893Y32679699D01*
X46908417Y32688567D01*
X46977971Y32868109D01*
X46982069Y32876339D01*
X47083436Y33040053D01*
X47088982Y33047397D01*
X47218695Y33189684D01*
X47225508Y33195896D01*
X47379157Y33311926D01*
X47386987Y33316774D01*
X47559337Y33402594D01*
X47567931Y33405924D01*
X47753126Y33458616D01*
X47762175Y33460308D01*
X47956195Y33478286D01*
X47960811Y33478500D01*
X47960811Y33831500D01*
X47956195Y33831714D01*
X47762175Y33849692D01*
X47753126Y33851384D01*
X47567931Y33904076D01*
X47559337Y33907406D01*
X47386987Y33993226D01*
X47379157Y33998074D01*
X47225508Y34114104D01*
X47218695Y34120316D01*
X47088982Y34262603D01*
X47083436Y34269947D01*
X46982069Y34433661D01*
X46977971Y34441891D01*
X46908417Y34621433D01*
X46905893Y34630301D01*
X46870514Y34819561D01*
X46869665Y34828726D01*
X46869665Y35021274D01*
X46870514Y35030439D01*
X46905893Y35219699D01*
X46908417Y35228567D01*
X46977971Y35408109D01*
X46982069Y35416339D01*
X47083436Y35580053D01*
X47088982Y35587397D01*
X47218695Y35729684D01*
X47225508Y35735896D01*
X47379157Y35851926D01*
X47386987Y35856774D01*
X47559337Y35942594D01*
X47567931Y35945924D01*
X47753126Y35998616D01*
X47762175Y36000308D01*
X47956195Y36018286D01*
X47960811Y36018500D01*
X47960811Y36371500D01*
X47956195Y36371714D01*
X47762175Y36389692D01*
X47753126Y36391384D01*
X47567931Y36444076D01*
X47559337Y36447406D01*
X47386987Y36533226D01*
X47379157Y36538074D01*
X47225508Y36654104D01*
X47218695Y36660316D01*
X47088982Y36802603D01*
X47083436Y36809947D01*
X46982069Y36973661D01*
X46977971Y36981891D01*
X46908417Y37161433D01*
X46905893Y37170301D01*
X46870514Y37359561D01*
X46869665Y37368726D01*
X46869665Y37561274D01*
X46870514Y37570439D01*
X46905893Y37759699D01*
X46908417Y37768567D01*
X46977971Y37948109D01*
X46982067Y37956336D01*
X47083436Y38120053D01*
X47088982Y38127397D01*
X47218695Y38269684D01*
X47225508Y38275896D01*
X47379157Y38391926D01*
X47386987Y38396774D01*
X47559337Y38482594D01*
X47567931Y38485924D01*
X47753126Y38538616D01*
X47762175Y38540308D01*
X47956195Y38558286D01*
X47960811Y38558500D01*
X47960811Y38911500D01*
X47956195Y38911714D01*
X47762175Y38929692D01*
X47753126Y38931384D01*
X47567931Y38984076D01*
X47559337Y38987406D01*
X47386987Y39073226D01*
X47379157Y39078074D01*
X47225508Y39194104D01*
X47218695Y39200316D01*
X47088982Y39342603D01*
X47083436Y39349947D01*
X46982069Y39513661D01*
X46977971Y39521891D01*
X46908417Y39701433D01*
X46905893Y39710301D01*
X46870514Y39899561D01*
X46869665Y39908726D01*
X46869665Y40101274D01*
X46870514Y40110439D01*
X46905893Y40299699D01*
X46908417Y40308567D01*
X46977971Y40488109D01*
X46982069Y40496339D01*
X47083436Y40660053D01*
X47088982Y40667397D01*
X47218695Y40809684D01*
X47225508Y40815896D01*
X47379157Y40931926D01*
X47386987Y40936774D01*
X47559337Y41022594D01*
X47567931Y41025924D01*
X47753126Y41078616D01*
X47762175Y41080308D01*
X47956195Y41098286D01*
X47960811Y41098500D01*
X47960811Y41451500D01*
X47956195Y41451714D01*
X47762175Y41469692D01*
X47753126Y41471384D01*
X47567931Y41524076D01*
X47559337Y41527406D01*
X47386987Y41613226D01*
X47379157Y41618074D01*
X47225508Y41734104D01*
X47218695Y41740316D01*
X47088982Y41882603D01*
X47083436Y41889947D01*
X46982069Y42053661D01*
X46977971Y42061891D01*
X46908417Y42241433D01*
X46905893Y42250301D01*
X46870514Y42439561D01*
X46869665Y42448726D01*
X46869665Y42641274D01*
X46870514Y42650439D01*
X46905893Y42839699D01*
X46908417Y42848567D01*
X46977971Y43028109D01*
X46982069Y43036339D01*
X47083436Y43200053D01*
X47088982Y43207397D01*
X47218695Y43349684D01*
X47225508Y43355896D01*
X47379157Y43471926D01*
X47386987Y43476774D01*
X47559337Y43562594D01*
X47567931Y43565924D01*
X47753126Y43618616D01*
X47762175Y43620308D01*
X47956195Y43638286D01*
X47960811Y43638500D01*
X47960811Y43991500D01*
X47956195Y43991714D01*
X47762175Y44009692D01*
X47753126Y44011384D01*
X47567931Y44064076D01*
X47559337Y44067406D01*
X47386987Y44153226D01*
X47379157Y44158074D01*
X47225508Y44274104D01*
X47218695Y44280316D01*
X47088982Y44422603D01*
X47083436Y44429947D01*
X46982069Y44593661D01*
X46977971Y44601891D01*
X46908417Y44781433D01*
X46905893Y44790301D01*
X46870514Y44979561D01*
X46869665Y44988726D01*
X46869665Y45181274D01*
X46870514Y45190439D01*
X46905893Y45379699D01*
X46908417Y45388567D01*
X46977971Y45568109D01*
X46982069Y45576339D01*
X47083436Y45740053D01*
X47088982Y45747397D01*
X47218695Y45889684D01*
X47225508Y45895896D01*
X47379157Y46011926D01*
X47386987Y46016774D01*
X47559337Y46102594D01*
X47567931Y46105924D01*
X47753126Y46158616D01*
X47762175Y46160308D01*
X47956195Y46178286D01*
X47960811Y46178500D01*
X47960811Y46531500D01*
X47956195Y46531714D01*
X47762175Y46549692D01*
X47753126Y46551384D01*
X47567931Y46604076D01*
X47559337Y46607406D01*
X47386987Y46693226D01*
X47379157Y46698074D01*
X47225508Y46814104D01*
X47218695Y46820316D01*
X47088982Y46962603D01*
X47083436Y46969947D01*
X46982069Y47133661D01*
X46977971Y47141891D01*
X46908417Y47321433D01*
X46905893Y47330301D01*
X46870514Y47519561D01*
X46869665Y47528726D01*
X46869665Y47721274D01*
X46870514Y47730439D01*
X46905893Y47919699D01*
X46908417Y47928567D01*
X46977971Y48108109D01*
X46982069Y48116339D01*
X47083436Y48280053D01*
X47088982Y48287397D01*
X47218695Y48429684D01*
X47225508Y48435896D01*
X47379157Y48551926D01*
X47386987Y48556774D01*
X47559337Y48642594D01*
X47567931Y48645924D01*
X47753126Y48698616D01*
X47762175Y48700308D01*
X47956195Y48718286D01*
X47960811Y48718500D01*
X48559189Y48718500D01*
X48563805Y48718286D01*
X48757825Y48700308D01*
X48766874Y48698616D01*
X48952069Y48645924D01*
X48960663Y48642594D01*
X49133013Y48556774D01*
X49140843Y48551926D01*
X49294492Y48435896D01*
X49301305Y48429684D01*
X49431018Y48287397D01*
X49436564Y48280053D01*
X49537931Y48116339D01*
X49542029Y48108109D01*
X49611583Y47928567D01*
X49614107Y47919699D01*
X49649486Y47730439D01*
X49650335Y47721274D01*
X49650335Y47528726D01*
X49649486Y47519561D01*
X49614107Y47330301D01*
X49611583Y47321433D01*
X49542029Y47141891D01*
X49537931Y47133661D01*
X49436564Y46969947D01*
X49431018Y46962603D01*
X49301305Y46820316D01*
X49294492Y46814104D01*
X49140843Y46698074D01*
X49133013Y46693226D01*
X48960663Y46607406D01*
X48952069Y46604076D01*
X48766874Y46551384D01*
X48757825Y46549692D01*
X48563805Y46531714D01*
X48559189Y46531500D01*
X47960811Y46531500D01*
X47960811Y46178500D01*
X48559189Y46178500D01*
X48563805Y46178286D01*
X48757825Y46160308D01*
X48766874Y46158616D01*
X48952069Y46105924D01*
X48960663Y46102594D01*
X49133013Y46016774D01*
X49140843Y46011926D01*
X49294492Y45895896D01*
X49301305Y45889684D01*
X49431018Y45747397D01*
X49436564Y45740053D01*
X49537931Y45576339D01*
X49542029Y45568109D01*
X49611583Y45388567D01*
X49614107Y45379699D01*
X49649486Y45190439D01*
X49650335Y45181274D01*
X49650335Y44988726D01*
X49649486Y44979561D01*
X49614107Y44790301D01*
X49611583Y44781433D01*
X49542029Y44601891D01*
X49537931Y44593661D01*
X49436564Y44429947D01*
X49431018Y44422603D01*
X49301305Y44280316D01*
X49294492Y44274104D01*
X49140843Y44158074D01*
X49133013Y44153226D01*
X48960663Y44067406D01*
X48952069Y44064076D01*
X48766874Y44011384D01*
X48757825Y44009692D01*
X48563805Y43991714D01*
X48559189Y43991500D01*
X47960811Y43991500D01*
X47960811Y43638500D01*
X48559189Y43638500D01*
X48563805Y43638286D01*
X48757825Y43620308D01*
X48766874Y43618616D01*
X48952069Y43565924D01*
X48960663Y43562594D01*
X49133013Y43476774D01*
X49140843Y43471926D01*
X49294492Y43355896D01*
X49301305Y43349684D01*
X49431018Y43207397D01*
X49436564Y43200053D01*
X49537931Y43036339D01*
X49542029Y43028109D01*
X49611583Y42848567D01*
X49614107Y42839699D01*
X49649486Y42650439D01*
X49650335Y42641274D01*
X49650335Y42448726D01*
X49649486Y42439561D01*
X49614107Y42250301D01*
X49611583Y42241433D01*
X49542029Y42061891D01*
X49537931Y42053661D01*
X49436564Y41889947D01*
X49431018Y41882603D01*
X49301305Y41740316D01*
X49294492Y41734104D01*
X49140843Y41618074D01*
X49133013Y41613226D01*
X48960663Y41527406D01*
X48952069Y41524076D01*
X48766874Y41471384D01*
X48757825Y41469692D01*
X48563805Y41451714D01*
X48559189Y41451500D01*
X47960811Y41451500D01*
X47960811Y41098500D01*
X48559189Y41098500D01*
X48563805Y41098286D01*
X48757825Y41080308D01*
X48766874Y41078616D01*
X48952069Y41025924D01*
X48960663Y41022594D01*
X49133013Y40936774D01*
X49140843Y40931926D01*
X49294492Y40815896D01*
X49301305Y40809684D01*
X49431018Y40667397D01*
X49436564Y40660053D01*
X49537931Y40496339D01*
X49542029Y40488109D01*
X49611583Y40308567D01*
X49614107Y40299699D01*
X49649486Y40110439D01*
X49650335Y40101274D01*
X49650335Y39908726D01*
X49649486Y39899561D01*
X49614107Y39710301D01*
X49611583Y39701433D01*
X49542029Y39521891D01*
X49537931Y39513661D01*
X49436564Y39349947D01*
X49431018Y39342603D01*
X49301305Y39200316D01*
X49294492Y39194104D01*
X49140843Y39078074D01*
X49133013Y39073226D01*
X48960663Y38987406D01*
X48952069Y38984076D01*
X48766874Y38931384D01*
X48757825Y38929692D01*
X48563805Y38911714D01*
X48559189Y38911500D01*
X47960811Y38911500D01*
X47960811Y38558500D01*
X48559189Y38558500D01*
X48563805Y38558286D01*
X48757825Y38540308D01*
X48766874Y38538616D01*
X48952069Y38485924D01*
X48960663Y38482594D01*
X49133013Y38396774D01*
X49140843Y38391926D01*
X49294492Y38275896D01*
X49301305Y38269684D01*
X49431018Y38127397D01*
X49436564Y38120053D01*
X49537933Y37956336D01*
X49542029Y37948109D01*
X49611583Y37768567D01*
X49614107Y37759699D01*
X49649486Y37570439D01*
X49650335Y37561274D01*
X49650335Y37368726D01*
X49649486Y37359561D01*
X49614107Y37170301D01*
X49611583Y37161433D01*
X49542029Y36981891D01*
X49537931Y36973661D01*
X49436564Y36809947D01*
X49431018Y36802603D01*
X49301305Y36660316D01*
X49294492Y36654104D01*
X49140843Y36538074D01*
X49133013Y36533226D01*
X48960663Y36447406D01*
X48952069Y36444076D01*
X48766874Y36391384D01*
X48757825Y36389692D01*
X48563805Y36371714D01*
X48559189Y36371500D01*
X47960811Y36371500D01*
X47960811Y36018500D01*
X48559189Y36018500D01*
X48563805Y36018286D01*
X48757825Y36000308D01*
X48766874Y35998616D01*
X48952069Y35945924D01*
X48960663Y35942594D01*
X49133013Y35856774D01*
X49140843Y35851926D01*
X49294492Y35735896D01*
X49301305Y35729684D01*
X49431018Y35587397D01*
X49436564Y35580053D01*
X49537931Y35416339D01*
X49542029Y35408109D01*
X49611583Y35228567D01*
X49614107Y35219699D01*
X49649486Y35030439D01*
X49650335Y35021274D01*
X49650335Y34828726D01*
X49649486Y34819561D01*
X49614107Y34630301D01*
X49611583Y34621433D01*
X49542029Y34441891D01*
X49537931Y34433661D01*
X49436564Y34269947D01*
X49431018Y34262603D01*
X49301305Y34120316D01*
X49294492Y34114104D01*
X49140843Y33998074D01*
X49133013Y33993226D01*
X48960663Y33907406D01*
X48952069Y33904076D01*
X48766874Y33851384D01*
X48757825Y33849692D01*
X48563805Y33831714D01*
X48559189Y33831500D01*
X47960811Y33831500D01*
X47960811Y33478500D01*
X48559189Y33478500D01*
X48563805Y33478286D01*
X48757825Y33460308D01*
X48766874Y33458616D01*
X48952069Y33405924D01*
X48960663Y33402594D01*
X49133013Y33316774D01*
X49140843Y33311926D01*
X49294492Y33195896D01*
X49301305Y33189684D01*
X49431018Y33047397D01*
X49436564Y33040053D01*
X49537931Y32876339D01*
X49542029Y32868109D01*
X49611583Y32688567D01*
X49614107Y32679699D01*
X49649486Y32490439D01*
X49650335Y32481274D01*
X49650335Y32288726D01*
X49649486Y32279561D01*
X49614107Y32090301D01*
X49611583Y32081433D01*
X49542029Y31901891D01*
X49537931Y31893661D01*
X49436564Y31729947D01*
X49431018Y31722603D01*
X49301305Y31580316D01*
X49294492Y31574104D01*
X49140843Y31458074D01*
X49133013Y31453226D01*
X48960663Y31367406D01*
X48952069Y31364076D01*
X48766874Y31311384D01*
X48757825Y31309692D01*
X48563805Y31291714D01*
X48559189Y31291500D01*
X47960811Y31291500D01*
X47960811Y30938500D01*
X48559189Y30938500D01*
X48563805Y30938286D01*
X48757825Y30920308D01*
X48766874Y30918616D01*
X48952069Y30865924D01*
X48960663Y30862594D01*
X49133013Y30776774D01*
X49140843Y30771926D01*
X49294492Y30655896D01*
X49301305Y30649684D01*
X49431018Y30507397D01*
X49436564Y30500053D01*
X49537931Y30336339D01*
X49542029Y30328109D01*
X49611583Y30148567D01*
X49614107Y30139699D01*
X49649486Y29950439D01*
X49650335Y29941274D01*
X49650335Y29748726D01*
X49649486Y29739561D01*
X49614107Y29550301D01*
X49611583Y29541433D01*
X49542029Y29361891D01*
X49537931Y29353661D01*
X49436564Y29189947D01*
X49431018Y29182603D01*
X49301305Y29040316D01*
X49294492Y29034104D01*
X49140843Y28918074D01*
X49133013Y28913226D01*
X48960663Y28827406D01*
X48952069Y28824076D01*
X48766874Y28771384D01*
X48757825Y28769692D01*
X48563805Y28751714D01*
X48559189Y28751500D01*
X47960811Y28751500D01*
X47960811Y28398500D01*
X48559189Y28398500D01*
X48563805Y28398286D01*
X48757825Y28380308D01*
X48766874Y28378616D01*
X48952069Y28325924D01*
X48960663Y28322594D01*
X49133013Y28236774D01*
X49140843Y28231926D01*
X49294492Y28115896D01*
X49301305Y28109684D01*
X49431018Y27967397D01*
X49436564Y27960053D01*
X49537931Y27796339D01*
X49542029Y27788109D01*
X49611583Y27608567D01*
X49614107Y27599699D01*
X49649486Y27410439D01*
X49650335Y27401274D01*
X49650335Y27208726D01*
X49649486Y27199561D01*
X49614107Y27010301D01*
X49611583Y27001433D01*
X49542029Y26821891D01*
X49537931Y26813661D01*
X49436564Y26649947D01*
X49431018Y26642603D01*
X49301305Y26500316D01*
X49294492Y26494104D01*
X49140843Y26378074D01*
X49133013Y26373226D01*
X48960663Y26287406D01*
X48952069Y26284076D01*
X48766874Y26231384D01*
X48757825Y26229692D01*
X48563805Y26211714D01*
X48559189Y26211500D01*
X47960811Y26211500D01*
X47960811Y25858500D01*
X48559189Y25858500D01*
X48563805Y25858286D01*
X48757825Y25840308D01*
X48766874Y25838616D01*
X48952069Y25785924D01*
X48960663Y25782594D01*
X49133013Y25696774D01*
X49140843Y25691926D01*
X49294492Y25575896D01*
X49301305Y25569684D01*
X49431018Y25427397D01*
X49436564Y25420053D01*
X49537931Y25256339D01*
X49542029Y25248109D01*
X49611583Y25068567D01*
X49614107Y25059699D01*
X49649486Y24870439D01*
X49650335Y24861274D01*
X49650335Y24668726D01*
X49649486Y24659561D01*
X49614107Y24470301D01*
X49611583Y24461433D01*
X49542029Y24281891D01*
X49537931Y24273661D01*
X49436564Y24109947D01*
X49431018Y24102603D01*
X49301305Y23960316D01*
X49294492Y23954104D01*
X49140843Y23838074D01*
X49133013Y23833226D01*
X48960663Y23747406D01*
X48952069Y23744076D01*
X48766874Y23691384D01*
X48757825Y23689692D01*
X48563805Y23671714D01*
X48559189Y23671500D01*
X47960811Y23671500D01*
X47960811Y23318500D01*
X48559189Y23318500D01*
X48563805Y23318286D01*
X48757825Y23300308D01*
X48766874Y23298616D01*
X48952069Y23245924D01*
X48960663Y23242594D01*
X49133013Y23156774D01*
X49140843Y23151926D01*
X49294492Y23035896D01*
X49301305Y23029684D01*
X49431018Y22887397D01*
X49436564Y22880053D01*
X49537931Y22716339D01*
X49542029Y22708109D01*
X49611583Y22528567D01*
X49614107Y22519699D01*
X49649486Y22330439D01*
X49650335Y22321274D01*
X49650335Y22128726D01*
X49649486Y22119561D01*
X49614107Y21930301D01*
X49611583Y21921433D01*
X49542029Y21741891D01*
X49537931Y21733661D01*
X49436564Y21569947D01*
X49431018Y21562603D01*
X49301305Y21420316D01*
X49294492Y21414104D01*
X49140843Y21298074D01*
X49133013Y21293226D01*
X48960663Y21207406D01*
X48952069Y21204076D01*
X48766874Y21151384D01*
X48757825Y21149692D01*
X48563805Y21131714D01*
X48559189Y21131500D01*
X47960811Y21131500D01*
X47960811Y20778500D01*
X48559189Y20778500D01*
X48563805Y20778286D01*
X48757825Y20760308D01*
X48766874Y20758616D01*
X48952069Y20705924D01*
X48960663Y20702594D01*
X49133013Y20616774D01*
X49140843Y20611926D01*
X49294492Y20495896D01*
X49301305Y20489684D01*
X49431018Y20347397D01*
X49436564Y20340053D01*
X49537931Y20176339D01*
X49542029Y20168109D01*
X49611583Y19988567D01*
X49614107Y19979699D01*
X49649486Y19790439D01*
X49650335Y19781274D01*
X49650335Y19588726D01*
X49649486Y19579561D01*
X49614107Y19390301D01*
X49611583Y19381433D01*
X49542029Y19201891D01*
X49537931Y19193661D01*
X49436564Y19029947D01*
X49431018Y19022603D01*
X49301305Y18880316D01*
X49294492Y18874104D01*
X49140843Y18758074D01*
X49133013Y18753226D01*
X48960663Y18667406D01*
X48952069Y18664076D01*
X48766874Y18611384D01*
X48757825Y18609692D01*
X48563805Y18591714D01*
X48559189Y18591500D01*
X47960811Y18591500D01*
X47960811Y18238500D01*
X48559189Y18238500D01*
X48563805Y18238286D01*
X48757825Y18220308D01*
X48766874Y18218616D01*
X48952069Y18165924D01*
X48960663Y18162594D01*
X49133013Y18076774D01*
X49140843Y18071926D01*
X49294492Y17955896D01*
X49301305Y17949684D01*
X49431018Y17807397D01*
X49436564Y17800053D01*
X49537931Y17636339D01*
X49542029Y17628109D01*
X49611583Y17448567D01*
X49614107Y17439699D01*
X49649486Y17250439D01*
X49650335Y17241274D01*
X49650335Y17048726D01*
X49649486Y17039561D01*
X49614107Y16850301D01*
X49611583Y16841433D01*
X49542029Y16661891D01*
X49537931Y16653661D01*
X49436564Y16489947D01*
X49431018Y16482603D01*
X49301305Y16340316D01*
X49294492Y16334104D01*
X49140843Y16218074D01*
X49133013Y16213226D01*
X48960663Y16127406D01*
X48952069Y16124076D01*
X48766874Y16071384D01*
X48757825Y16069692D01*
X48563805Y16051714D01*
X48559189Y16051500D01*
X47960811Y16051500D01*
X47960811Y15698500D01*
X48559189Y15698500D01*
X48563805Y15698286D01*
X48757825Y15680308D01*
X48766874Y15678616D01*
X48952069Y15625924D01*
X48960663Y15622594D01*
X49133013Y15536774D01*
X49140843Y15531926D01*
X49294492Y15415896D01*
X49301305Y15409684D01*
X49431018Y15267397D01*
X49436564Y15260053D01*
X49537931Y15096339D01*
X49542029Y15088109D01*
X49611583Y14908567D01*
X49614107Y14899699D01*
X49649486Y14710439D01*
X49650335Y14701274D01*
X49650335Y14508726D01*
X49649486Y14499561D01*
X49614107Y14310301D01*
X49611583Y14301433D01*
X49542029Y14121891D01*
X49537931Y14113661D01*
X49436564Y13949947D01*
X49431018Y13942603D01*
X49301305Y13800316D01*
X49294492Y13794104D01*
X49140843Y13678074D01*
X49133013Y13673226D01*
X48960663Y13587406D01*
X48952069Y13584076D01*
X48766874Y13531384D01*
X48757825Y13529692D01*
X48563805Y13511714D01*
X48559189Y13511500D01*
X47960811Y13511500D01*
X47960811Y13158500D01*
X48559189Y13158500D01*
X48563805Y13158286D01*
X48757825Y13140308D01*
X48766874Y13138616D01*
X48952069Y13085924D01*
X48960663Y13082594D01*
X49133013Y12996774D01*
X49140843Y12991926D01*
X49294492Y12875896D01*
X49301305Y12869684D01*
X49431018Y12727397D01*
X49436564Y12720053D01*
X49537931Y12556339D01*
X49542029Y12548109D01*
X49611583Y12368567D01*
X49614107Y12359699D01*
X49649486Y12170439D01*
X49650335Y12161274D01*
X49650335Y11968726D01*
X49649486Y11959561D01*
X49614107Y11770301D01*
X49611583Y11761433D01*
X49542029Y11581891D01*
X49537931Y11573661D01*
X49436564Y11409947D01*
X49431018Y11402603D01*
X49301305Y11260316D01*
X49294492Y11254104D01*
X49140843Y11138074D01*
X49133013Y11133226D01*
X48960663Y11047406D01*
X48952069Y11044076D01*
X48766874Y10991384D01*
X48757825Y10989692D01*
X48563805Y10971714D01*
X48559189Y10971500D01*
X47960811Y10971500D01*
X47960811Y10618500D01*
X48559189Y10618500D01*
X48563805Y10618286D01*
X48757825Y10600308D01*
X48766874Y10598616D01*
X48952069Y10545924D01*
X48960663Y10542594D01*
X49133013Y10456774D01*
X49140843Y10451926D01*
X49294492Y10335896D01*
X49301305Y10329684D01*
X49431018Y10187397D01*
X49436564Y10180053D01*
X49537931Y10016339D01*
X49542029Y10008109D01*
X49611583Y9828567D01*
X49614107Y9819699D01*
X49649486Y9630439D01*
X49650335Y9621274D01*
X49650335Y9428726D01*
X49649486Y9419561D01*
X49614107Y9230301D01*
X49611583Y9221433D01*
X49542029Y9041891D01*
X49537931Y9033661D01*
X49436564Y8869947D01*
X49431018Y8862603D01*
X49301305Y8720316D01*
X49294492Y8714104D01*
X49140843Y8598074D01*
X49133013Y8593226D01*
X48960663Y8507406D01*
X48952069Y8504076D01*
X48766874Y8451384D01*
X48757825Y8449692D01*
X48563805Y8431714D01*
X48559189Y8431500D01*
X47960811Y8431500D01*
X47960811Y1270000D01*
X64948931Y1270000D01*
X64948931Y8431500D01*
X64941118Y8432115D01*
X64860069Y8444952D01*
X64845282Y8449756D01*
X64775674Y8485223D01*
X64763101Y8494358D01*
X64707858Y8549601D01*
X64698723Y8562174D01*
X64663256Y8631782D01*
X64658452Y8646569D01*
X64645615Y8727618D01*
X64645000Y8735431D01*
X64645000Y10314569D01*
X64645615Y10322382D01*
X64658452Y10403431D01*
X64663256Y10418218D01*
X64698723Y10487826D01*
X64707858Y10500399D01*
X64763101Y10555642D01*
X64775674Y10564777D01*
X64845282Y10600244D01*
X64860069Y10605048D01*
X64941118Y10617885D01*
X64948931Y10618500D01*
X65740811Y10618500D01*
X65740811Y10971500D01*
X65736195Y10971714D01*
X65542175Y10989692D01*
X65533126Y10991384D01*
X65347931Y11044076D01*
X65339337Y11047406D01*
X65166987Y11133226D01*
X65159157Y11138074D01*
X65005508Y11254104D01*
X64998695Y11260316D01*
X64868982Y11402603D01*
X64863436Y11409947D01*
X64762069Y11573661D01*
X64757971Y11581891D01*
X64688417Y11761433D01*
X64685893Y11770301D01*
X64650514Y11959561D01*
X64649665Y11968726D01*
X64649665Y12161274D01*
X64650514Y12170439D01*
X64685893Y12359699D01*
X64688417Y12368567D01*
X64757971Y12548109D01*
X64762069Y12556339D01*
X64863436Y12720053D01*
X64868982Y12727397D01*
X64998695Y12869684D01*
X65005508Y12875896D01*
X65159157Y12991926D01*
X65166987Y12996774D01*
X65339337Y13082594D01*
X65347931Y13085924D01*
X65533126Y13138616D01*
X65542175Y13140308D01*
X65736195Y13158286D01*
X65740811Y13158500D01*
X65740811Y13511500D01*
X65736195Y13511714D01*
X65542175Y13529692D01*
X65533126Y13531384D01*
X65347931Y13584076D01*
X65339337Y13587406D01*
X65166987Y13673226D01*
X65159157Y13678074D01*
X65005508Y13794104D01*
X64998695Y13800316D01*
X64868982Y13942603D01*
X64863436Y13949947D01*
X64762069Y14113661D01*
X64757971Y14121891D01*
X64688417Y14301433D01*
X64685893Y14310301D01*
X64650514Y14499561D01*
X64649665Y14508726D01*
X64649665Y14701274D01*
X64650514Y14710439D01*
X64685893Y14899699D01*
X64688417Y14908567D01*
X64757971Y15088109D01*
X64762069Y15096339D01*
X64863436Y15260053D01*
X64868982Y15267397D01*
X64998695Y15409684D01*
X65005508Y15415896D01*
X65159157Y15531926D01*
X65166987Y15536774D01*
X65339337Y15622594D01*
X65347931Y15625924D01*
X65533126Y15678616D01*
X65542175Y15680308D01*
X65736195Y15698286D01*
X65740811Y15698500D01*
X65740811Y16051500D01*
X65736195Y16051714D01*
X65542175Y16069692D01*
X65533126Y16071384D01*
X65347931Y16124076D01*
X65339337Y16127406D01*
X65166987Y16213226D01*
X65159157Y16218074D01*
X65005508Y16334104D01*
X64998695Y16340316D01*
X64868982Y16482603D01*
X64863436Y16489947D01*
X64762069Y16653661D01*
X64757971Y16661891D01*
X64688417Y16841433D01*
X64685893Y16850301D01*
X64650514Y17039561D01*
X64649665Y17048726D01*
X64649665Y17241274D01*
X64650514Y17250439D01*
X64685893Y17439699D01*
X64688417Y17448567D01*
X64757971Y17628109D01*
X64762069Y17636339D01*
X64863436Y17800053D01*
X64868982Y17807397D01*
X64998695Y17949684D01*
X65005508Y17955896D01*
X65159157Y18071926D01*
X65166987Y18076774D01*
X65339337Y18162594D01*
X65347931Y18165924D01*
X65533126Y18218616D01*
X65542175Y18220308D01*
X65736195Y18238286D01*
X65740811Y18238500D01*
X65740811Y18591500D01*
X65736195Y18591714D01*
X65542175Y18609692D01*
X65533126Y18611384D01*
X65347931Y18664076D01*
X65339337Y18667406D01*
X65166987Y18753226D01*
X65159157Y18758074D01*
X65005508Y18874104D01*
X64998695Y18880316D01*
X64868982Y19022603D01*
X64863436Y19029947D01*
X64762069Y19193661D01*
X64757971Y19201891D01*
X64688417Y19381433D01*
X64685893Y19390301D01*
X64650514Y19579561D01*
X64649665Y19588726D01*
X64649665Y19781274D01*
X64650514Y19790439D01*
X64685893Y19979699D01*
X64688417Y19988567D01*
X64757971Y20168109D01*
X64762069Y20176339D01*
X64863436Y20340053D01*
X64868982Y20347397D01*
X64998695Y20489684D01*
X65005508Y20495896D01*
X65159157Y20611926D01*
X65166987Y20616774D01*
X65339337Y20702594D01*
X65347931Y20705924D01*
X65533126Y20758616D01*
X65542175Y20760308D01*
X65736195Y20778286D01*
X65740811Y20778500D01*
X65740811Y21131500D01*
X65736195Y21131714D01*
X65542175Y21149692D01*
X65533126Y21151384D01*
X65347931Y21204076D01*
X65339337Y21207406D01*
X65166987Y21293226D01*
X65159157Y21298074D01*
X65005508Y21414104D01*
X64998695Y21420316D01*
X64868982Y21562603D01*
X64863436Y21569947D01*
X64762069Y21733661D01*
X64757971Y21741891D01*
X64688417Y21921433D01*
X64685893Y21930301D01*
X64650514Y22119561D01*
X64649665Y22128726D01*
X64649665Y22321274D01*
X64650514Y22330439D01*
X64685893Y22519699D01*
X64688417Y22528567D01*
X64757971Y22708109D01*
X64762069Y22716339D01*
X64863436Y22880053D01*
X64868982Y22887397D01*
X64998695Y23029684D01*
X65005508Y23035896D01*
X65159157Y23151926D01*
X65166987Y23156774D01*
X65339337Y23242594D01*
X65347931Y23245924D01*
X65533126Y23298616D01*
X65542175Y23300308D01*
X65736195Y23318286D01*
X65740811Y23318500D01*
X65740811Y23671500D01*
X65736195Y23671714D01*
X65542175Y23689692D01*
X65533126Y23691384D01*
X65347931Y23744076D01*
X65339337Y23747406D01*
X65166987Y23833226D01*
X65159157Y23838074D01*
X65005508Y23954104D01*
X64998695Y23960316D01*
X64868982Y24102603D01*
X64863436Y24109947D01*
X64762069Y24273661D01*
X64757971Y24281891D01*
X64688417Y24461433D01*
X64685893Y24470301D01*
X64650514Y24659561D01*
X64649665Y24668726D01*
X64649665Y24861274D01*
X64650514Y24870439D01*
X64685893Y25059699D01*
X64688417Y25068567D01*
X64757971Y25248109D01*
X64762069Y25256339D01*
X64863436Y25420053D01*
X64868982Y25427397D01*
X64998695Y25569684D01*
X65005508Y25575896D01*
X65159157Y25691926D01*
X65166987Y25696774D01*
X65339337Y25782594D01*
X65347931Y25785924D01*
X65533126Y25838616D01*
X65542175Y25840308D01*
X65736195Y25858286D01*
X65740811Y25858500D01*
X65740811Y26211500D01*
X65736195Y26211714D01*
X65542175Y26229692D01*
X65533126Y26231384D01*
X65347931Y26284076D01*
X65339337Y26287406D01*
X65166987Y26373226D01*
X65159157Y26378074D01*
X65005508Y26494104D01*
X64998695Y26500316D01*
X64868982Y26642603D01*
X64863436Y26649947D01*
X64762069Y26813661D01*
X64757971Y26821891D01*
X64688417Y27001433D01*
X64685893Y27010301D01*
X64650514Y27199561D01*
X64649665Y27208726D01*
X64649665Y27401274D01*
X64650514Y27410439D01*
X64685893Y27599699D01*
X64688417Y27608567D01*
X64757971Y27788109D01*
X64762069Y27796339D01*
X64863436Y27960053D01*
X64868982Y27967397D01*
X64998695Y28109684D01*
X65005508Y28115896D01*
X65159157Y28231926D01*
X65166987Y28236774D01*
X65339337Y28322594D01*
X65347931Y28325924D01*
X65533126Y28378616D01*
X65542175Y28380308D01*
X65736195Y28398286D01*
X65740811Y28398500D01*
X65740811Y28751500D01*
X65736195Y28751714D01*
X65542175Y28769692D01*
X65533126Y28771384D01*
X65347931Y28824076D01*
X65339337Y28827406D01*
X65166987Y28913226D01*
X65159157Y28918074D01*
X65005508Y29034104D01*
X64998695Y29040316D01*
X64868982Y29182603D01*
X64863436Y29189947D01*
X64762069Y29353661D01*
X64757971Y29361891D01*
X64688417Y29541433D01*
X64685893Y29550301D01*
X64650514Y29739561D01*
X64649665Y29748726D01*
X64649665Y29941274D01*
X64650514Y29950439D01*
X64685893Y30139699D01*
X64688417Y30148567D01*
X64757971Y30328109D01*
X64762069Y30336339D01*
X64863436Y30500053D01*
X64868982Y30507397D01*
X64998695Y30649684D01*
X65005508Y30655896D01*
X65159157Y30771926D01*
X65166987Y30776774D01*
X65339337Y30862594D01*
X65347931Y30865924D01*
X65533126Y30918616D01*
X65542175Y30920308D01*
X65736195Y30938286D01*
X65740811Y30938500D01*
X65740811Y31291500D01*
X65736195Y31291714D01*
X65542175Y31309692D01*
X65533126Y31311384D01*
X65347931Y31364076D01*
X65339337Y31367406D01*
X65166987Y31453226D01*
X65159157Y31458074D01*
X65005508Y31574104D01*
X64998695Y31580316D01*
X64868982Y31722603D01*
X64863436Y31729947D01*
X64762069Y31893661D01*
X64757971Y31901891D01*
X64688417Y32081433D01*
X64685893Y32090301D01*
X64650514Y32279561D01*
X64649665Y32288726D01*
X64649665Y32481274D01*
X64650514Y32490439D01*
X64685893Y32679699D01*
X64688417Y32688567D01*
X64757971Y32868109D01*
X64762069Y32876339D01*
X64863436Y33040053D01*
X64868982Y33047397D01*
X64998695Y33189684D01*
X65005508Y33195896D01*
X65159157Y33311926D01*
X65166987Y33316774D01*
X65339337Y33402594D01*
X65347931Y33405924D01*
X65533126Y33458616D01*
X65542175Y33460308D01*
X65736195Y33478286D01*
X65740811Y33478500D01*
X65740811Y33831500D01*
X65736195Y33831714D01*
X65542175Y33849692D01*
X65533126Y33851384D01*
X65347931Y33904076D01*
X65339337Y33907406D01*
X65166987Y33993226D01*
X65159157Y33998074D01*
X65005508Y34114104D01*
X64998695Y34120316D01*
X64868982Y34262603D01*
X64863436Y34269947D01*
X64762069Y34433661D01*
X64757971Y34441891D01*
X64688417Y34621433D01*
X64685893Y34630301D01*
X64650514Y34819561D01*
X64649665Y34828726D01*
X64649665Y35021274D01*
X64650514Y35030439D01*
X64685893Y35219699D01*
X64688417Y35228567D01*
X64757971Y35408109D01*
X64762069Y35416339D01*
X64863436Y35580053D01*
X64868982Y35587397D01*
X64998695Y35729684D01*
X65005508Y35735896D01*
X65159157Y35851926D01*
X65166987Y35856774D01*
X65339337Y35942594D01*
X65347931Y35945924D01*
X65533126Y35998616D01*
X65542175Y36000308D01*
X65736195Y36018286D01*
X65740811Y36018500D01*
X65740811Y36371500D01*
X65736195Y36371714D01*
X65542175Y36389692D01*
X65533126Y36391384D01*
X65347931Y36444076D01*
X65339337Y36447406D01*
X65166987Y36533226D01*
X65159157Y36538074D01*
X65005508Y36654104D01*
X64998695Y36660316D01*
X64868982Y36802603D01*
X64863436Y36809947D01*
X64762069Y36973661D01*
X64757971Y36981891D01*
X64688417Y37161433D01*
X64685893Y37170301D01*
X64650514Y37359561D01*
X64649665Y37368726D01*
X64649665Y37561274D01*
X64650514Y37570439D01*
X64685893Y37759699D01*
X64688417Y37768567D01*
X64757971Y37948109D01*
X64762067Y37956336D01*
X64863436Y38120053D01*
X64868982Y38127397D01*
X64998695Y38269684D01*
X65005508Y38275896D01*
X65159157Y38391926D01*
X65166987Y38396774D01*
X65339337Y38482594D01*
X65347931Y38485924D01*
X65533126Y38538616D01*
X65542175Y38540308D01*
X65736195Y38558286D01*
X65740811Y38558500D01*
X65740811Y38911500D01*
X65736195Y38911714D01*
X65542175Y38929692D01*
X65533126Y38931384D01*
X65347931Y38984076D01*
X65339337Y38987406D01*
X65166987Y39073226D01*
X65159157Y39078074D01*
X65005508Y39194104D01*
X64998695Y39200316D01*
X64868982Y39342603D01*
X64863436Y39349947D01*
X64762069Y39513661D01*
X64757971Y39521891D01*
X64688417Y39701433D01*
X64685893Y39710301D01*
X64650514Y39899561D01*
X64649665Y39908726D01*
X64649665Y40101274D01*
X64650514Y40110439D01*
X64685893Y40299699D01*
X64688417Y40308567D01*
X64757971Y40488109D01*
X64762069Y40496339D01*
X64863436Y40660053D01*
X64868982Y40667397D01*
X64998695Y40809684D01*
X65005508Y40815896D01*
X65159157Y40931926D01*
X65166987Y40936774D01*
X65339337Y41022594D01*
X65347931Y41025924D01*
X65533126Y41078616D01*
X65542175Y41080308D01*
X65736195Y41098286D01*
X65740811Y41098500D01*
X65740811Y41451500D01*
X65736195Y41451714D01*
X65542175Y41469692D01*
X65533126Y41471384D01*
X65347931Y41524076D01*
X65339337Y41527406D01*
X65166987Y41613226D01*
X65159157Y41618074D01*
X65005508Y41734104D01*
X64998695Y41740316D01*
X64868982Y41882603D01*
X64863436Y41889947D01*
X64762069Y42053661D01*
X64757971Y42061891D01*
X64688417Y42241433D01*
X64685893Y42250301D01*
X64650514Y42439561D01*
X64649665Y42448726D01*
X64649665Y42641274D01*
X64650514Y42650439D01*
X64685893Y42839699D01*
X64688417Y42848567D01*
X64757971Y43028109D01*
X64762069Y43036339D01*
X64863436Y43200053D01*
X64868982Y43207397D01*
X64998695Y43349684D01*
X65005508Y43355896D01*
X65159157Y43471926D01*
X65166987Y43476774D01*
X65339337Y43562594D01*
X65347931Y43565924D01*
X65533126Y43618616D01*
X65542175Y43620308D01*
X65736195Y43638286D01*
X65740811Y43638500D01*
X65740811Y43991500D01*
X65736195Y43991714D01*
X65542175Y44009692D01*
X65533126Y44011384D01*
X65347931Y44064076D01*
X65339337Y44067406D01*
X65166987Y44153226D01*
X65159157Y44158074D01*
X65005508Y44274104D01*
X64998695Y44280316D01*
X64868982Y44422603D01*
X64863436Y44429947D01*
X64762069Y44593661D01*
X64757971Y44601891D01*
X64688417Y44781433D01*
X64685893Y44790301D01*
X64650514Y44979561D01*
X64649665Y44988726D01*
X64649665Y45181274D01*
X64650514Y45190439D01*
X64685893Y45379699D01*
X64688417Y45388567D01*
X64757971Y45568109D01*
X64762069Y45576339D01*
X64863436Y45740053D01*
X64868982Y45747397D01*
X64998695Y45889684D01*
X65005508Y45895896D01*
X65159157Y46011926D01*
X65166987Y46016774D01*
X65339337Y46102594D01*
X65347931Y46105924D01*
X65533126Y46158616D01*
X65542175Y46160308D01*
X65736195Y46178286D01*
X65740811Y46178500D01*
X65740811Y46531500D01*
X65736195Y46531714D01*
X65542175Y46549692D01*
X65533126Y46551384D01*
X65347931Y46604076D01*
X65339337Y46607406D01*
X65166987Y46693226D01*
X65159157Y46698074D01*
X65005508Y46814104D01*
X64998695Y46820316D01*
X64868982Y46962603D01*
X64863436Y46969947D01*
X64762069Y47133661D01*
X64757971Y47141891D01*
X64688417Y47321433D01*
X64685893Y47330301D01*
X64650514Y47519561D01*
X64649665Y47528726D01*
X64649665Y47721274D01*
X64650514Y47730439D01*
X64685893Y47919699D01*
X64688417Y47928567D01*
X64757971Y48108109D01*
X64762069Y48116339D01*
X64863436Y48280053D01*
X64868982Y48287397D01*
X64998695Y48429684D01*
X65005508Y48435896D01*
X65159157Y48551926D01*
X65166987Y48556774D01*
X65339337Y48642594D01*
X65347931Y48645924D01*
X65533126Y48698616D01*
X65542175Y48700308D01*
X65736195Y48718286D01*
X65740811Y48718500D01*
X66339189Y48718500D01*
X66343805Y48718286D01*
X66537825Y48700308D01*
X66546874Y48698616D01*
X66732069Y48645924D01*
X66740663Y48642594D01*
X66913013Y48556774D01*
X66920843Y48551926D01*
X67074492Y48435896D01*
X67081305Y48429684D01*
X67211018Y48287397D01*
X67216564Y48280053D01*
X67317931Y48116339D01*
X67322029Y48108109D01*
X67391583Y47928567D01*
X67394107Y47919699D01*
X67429486Y47730439D01*
X67430335Y47721274D01*
X67430335Y47528726D01*
X67429486Y47519561D01*
X67394107Y47330301D01*
X67391583Y47321433D01*
X67322029Y47141891D01*
X67317931Y47133661D01*
X67216564Y46969947D01*
X67211018Y46962603D01*
X67081305Y46820316D01*
X67074492Y46814104D01*
X66920843Y46698074D01*
X66913013Y46693226D01*
X66740663Y46607406D01*
X66732069Y46604076D01*
X66546874Y46551384D01*
X66537825Y46549692D01*
X66343805Y46531714D01*
X66339189Y46531500D01*
X65740811Y46531500D01*
X65740811Y46178500D01*
X66339189Y46178500D01*
X66343805Y46178286D01*
X66537825Y46160308D01*
X66546874Y46158616D01*
X66732069Y46105924D01*
X66740663Y46102594D01*
X66913013Y46016774D01*
X66920843Y46011926D01*
X67074492Y45895896D01*
X67081305Y45889684D01*
X67211018Y45747397D01*
X67216564Y45740053D01*
X67317931Y45576339D01*
X67322029Y45568109D01*
X67391583Y45388567D01*
X67394107Y45379699D01*
X67429486Y45190439D01*
X67430335Y45181274D01*
X67430335Y44988726D01*
X67429486Y44979561D01*
X67394107Y44790301D01*
X67391583Y44781433D01*
X67322029Y44601891D01*
X67317931Y44593661D01*
X67216564Y44429947D01*
X67211018Y44422603D01*
X67081305Y44280316D01*
X67074492Y44274104D01*
X66920843Y44158074D01*
X66913013Y44153226D01*
X66740663Y44067406D01*
X66732069Y44064076D01*
X66546874Y44011384D01*
X66537825Y44009692D01*
X66343805Y43991714D01*
X66339189Y43991500D01*
X65740811Y43991500D01*
X65740811Y43638500D01*
X66339189Y43638500D01*
X66343805Y43638286D01*
X66537825Y43620308D01*
X66546874Y43618616D01*
X66732069Y43565924D01*
X66740663Y43562594D01*
X66913013Y43476774D01*
X66920843Y43471926D01*
X67074492Y43355896D01*
X67081305Y43349684D01*
X67211018Y43207397D01*
X67216564Y43200053D01*
X67317931Y43036339D01*
X67322029Y43028109D01*
X67391583Y42848567D01*
X67394107Y42839699D01*
X67429486Y42650439D01*
X67430335Y42641274D01*
X67430335Y42448726D01*
X67429486Y42439561D01*
X67394107Y42250301D01*
X67391583Y42241433D01*
X67322029Y42061891D01*
X67317931Y42053661D01*
X67216564Y41889947D01*
X67211018Y41882603D01*
X67081305Y41740316D01*
X67074492Y41734104D01*
X66920843Y41618074D01*
X66913013Y41613226D01*
X66740663Y41527406D01*
X66732069Y41524076D01*
X66546874Y41471384D01*
X66537825Y41469692D01*
X66343805Y41451714D01*
X66339189Y41451500D01*
X65740811Y41451500D01*
X65740811Y41098500D01*
X66339189Y41098500D01*
X66343805Y41098286D01*
X66537825Y41080308D01*
X66546874Y41078616D01*
X66732069Y41025924D01*
X66740663Y41022594D01*
X66913013Y40936774D01*
X66920843Y40931926D01*
X67074492Y40815896D01*
X67081305Y40809684D01*
X67211018Y40667397D01*
X67216564Y40660053D01*
X67317931Y40496339D01*
X67322029Y40488109D01*
X67391583Y40308567D01*
X67394107Y40299699D01*
X67429486Y40110439D01*
X67430335Y40101274D01*
X67430335Y39908726D01*
X67429486Y39899561D01*
X67394107Y39710301D01*
X67391583Y39701433D01*
X67322029Y39521891D01*
X67317931Y39513661D01*
X67216564Y39349947D01*
X67211018Y39342603D01*
X67081305Y39200316D01*
X67074492Y39194104D01*
X66920843Y39078074D01*
X66913013Y39073226D01*
X66740663Y38987406D01*
X66732069Y38984076D01*
X66546874Y38931384D01*
X66537825Y38929692D01*
X66343805Y38911714D01*
X66339189Y38911500D01*
X65740811Y38911500D01*
X65740811Y38558500D01*
X66339189Y38558500D01*
X66343805Y38558286D01*
X66537825Y38540308D01*
X66546874Y38538616D01*
X66732069Y38485924D01*
X66740663Y38482594D01*
X66913013Y38396774D01*
X66920843Y38391926D01*
X67074492Y38275896D01*
X67081305Y38269684D01*
X67211018Y38127397D01*
X67216564Y38120053D01*
X67317933Y37956336D01*
X67322029Y37948109D01*
X67391583Y37768567D01*
X67394107Y37759699D01*
X67429486Y37570439D01*
X67430335Y37561274D01*
X67430335Y37368726D01*
X67429486Y37359561D01*
X67394107Y37170301D01*
X67391583Y37161433D01*
X67322029Y36981891D01*
X67317931Y36973661D01*
X67216564Y36809947D01*
X67211018Y36802603D01*
X67081305Y36660316D01*
X67074492Y36654104D01*
X66920843Y36538074D01*
X66913013Y36533226D01*
X66740663Y36447406D01*
X66732069Y36444076D01*
X66546874Y36391384D01*
X66537825Y36389692D01*
X66343805Y36371714D01*
X66339189Y36371500D01*
X65740811Y36371500D01*
X65740811Y36018500D01*
X66339189Y36018500D01*
X66343805Y36018286D01*
X66537825Y36000308D01*
X66546874Y35998616D01*
X66732069Y35945924D01*
X66740663Y35942594D01*
X66913013Y35856774D01*
X66920843Y35851926D01*
X67074492Y35735896D01*
X67081305Y35729684D01*
X67211018Y35587397D01*
X67216564Y35580053D01*
X67317931Y35416339D01*
X67322029Y35408109D01*
X67391583Y35228567D01*
X67394107Y35219699D01*
X67429486Y35030439D01*
X67430335Y35021274D01*
X67430335Y34828726D01*
X67429486Y34819561D01*
X67394107Y34630301D01*
X67391583Y34621433D01*
X67322029Y34441891D01*
X67317931Y34433661D01*
X67216564Y34269947D01*
X67211018Y34262603D01*
X67081305Y34120316D01*
X67074492Y34114104D01*
X66920843Y33998074D01*
X66913013Y33993226D01*
X66740663Y33907406D01*
X66732069Y33904076D01*
X66546874Y33851384D01*
X66537825Y33849692D01*
X66343805Y33831714D01*
X66339189Y33831500D01*
X65740811Y33831500D01*
X65740811Y33478500D01*
X66339189Y33478500D01*
X66343805Y33478286D01*
X66537825Y33460308D01*
X66546874Y33458616D01*
X66732069Y33405924D01*
X66740663Y33402594D01*
X66913013Y33316774D01*
X66920843Y33311926D01*
X67074492Y33195896D01*
X67081305Y33189684D01*
X67211018Y33047397D01*
X67216564Y33040053D01*
X67317931Y32876339D01*
X67322029Y32868109D01*
X67391583Y32688567D01*
X67394107Y32679699D01*
X67429486Y32490439D01*
X67430335Y32481274D01*
X67430335Y32288726D01*
X67429486Y32279561D01*
X67394107Y32090301D01*
X67391583Y32081433D01*
X67322029Y31901891D01*
X67317931Y31893661D01*
X67216564Y31729947D01*
X67211018Y31722603D01*
X67081305Y31580316D01*
X67074492Y31574104D01*
X66920843Y31458074D01*
X66913013Y31453226D01*
X66740663Y31367406D01*
X66732069Y31364076D01*
X66546874Y31311384D01*
X66537825Y31309692D01*
X66343805Y31291714D01*
X66339189Y31291500D01*
X65740811Y31291500D01*
X65740811Y30938500D01*
X66339189Y30938500D01*
X66343805Y30938286D01*
X66537825Y30920308D01*
X66546874Y30918616D01*
X66732069Y30865924D01*
X66740663Y30862594D01*
X66913013Y30776774D01*
X66920843Y30771926D01*
X67074492Y30655896D01*
X67081305Y30649684D01*
X67211018Y30507397D01*
X67216564Y30500053D01*
X67317931Y30336339D01*
X67322029Y30328109D01*
X67391583Y30148567D01*
X67394107Y30139699D01*
X67429486Y29950439D01*
X67430335Y29941274D01*
X67430335Y29748726D01*
X67429486Y29739561D01*
X67394107Y29550301D01*
X67391583Y29541433D01*
X67322029Y29361891D01*
X67317931Y29353661D01*
X67216564Y29189947D01*
X67211018Y29182603D01*
X67081305Y29040316D01*
X67074492Y29034104D01*
X66920843Y28918074D01*
X66913013Y28913226D01*
X66740663Y28827406D01*
X66732069Y28824076D01*
X66546874Y28771384D01*
X66537825Y28769692D01*
X66343805Y28751714D01*
X66339189Y28751500D01*
X65740811Y28751500D01*
X65740811Y28398500D01*
X66339189Y28398500D01*
X66343805Y28398286D01*
X66537825Y28380308D01*
X66546874Y28378616D01*
X66732069Y28325924D01*
X66740663Y28322594D01*
X66913013Y28236774D01*
X66920843Y28231926D01*
X67074492Y28115896D01*
X67081305Y28109684D01*
X67211018Y27967397D01*
X67216564Y27960053D01*
X67317931Y27796339D01*
X67322029Y27788109D01*
X67391583Y27608567D01*
X67394107Y27599699D01*
X67429486Y27410439D01*
X67430335Y27401274D01*
X67430335Y27208726D01*
X67429486Y27199561D01*
X67394107Y27010301D01*
X67391583Y27001433D01*
X67322029Y26821891D01*
X67317931Y26813661D01*
X67216564Y26649947D01*
X67211018Y26642603D01*
X67081305Y26500316D01*
X67074492Y26494104D01*
X66920843Y26378074D01*
X66913013Y26373226D01*
X66740663Y26287406D01*
X66732069Y26284076D01*
X66546874Y26231384D01*
X66537825Y26229692D01*
X66343805Y26211714D01*
X66339189Y26211500D01*
X65740811Y26211500D01*
X65740811Y25858500D01*
X66339189Y25858500D01*
X66343805Y25858286D01*
X66537825Y25840308D01*
X66546874Y25838616D01*
X66732069Y25785924D01*
X66740663Y25782594D01*
X66913013Y25696774D01*
X66920843Y25691926D01*
X67074492Y25575896D01*
X67081305Y25569684D01*
X67211018Y25427397D01*
X67216564Y25420053D01*
X67317931Y25256339D01*
X67322029Y25248109D01*
X67391583Y25068567D01*
X67394107Y25059699D01*
X67429486Y24870439D01*
X67430335Y24861274D01*
X67430335Y24668726D01*
X67429486Y24659561D01*
X67394107Y24470301D01*
X67391583Y24461433D01*
X67322029Y24281891D01*
X67317931Y24273661D01*
X67216564Y24109947D01*
X67211018Y24102603D01*
X67081305Y23960316D01*
X67074492Y23954104D01*
X66920843Y23838074D01*
X66913013Y23833226D01*
X66740663Y23747406D01*
X66732069Y23744076D01*
X66546874Y23691384D01*
X66537825Y23689692D01*
X66343805Y23671714D01*
X66339189Y23671500D01*
X65740811Y23671500D01*
X65740811Y23318500D01*
X66339189Y23318500D01*
X66343805Y23318286D01*
X66537825Y23300308D01*
X66546874Y23298616D01*
X66732069Y23245924D01*
X66740663Y23242594D01*
X66913013Y23156774D01*
X66920843Y23151926D01*
X67074492Y23035896D01*
X67081305Y23029684D01*
X67211018Y22887397D01*
X67216564Y22880053D01*
X67317931Y22716339D01*
X67322029Y22708109D01*
X67391583Y22528567D01*
X67394107Y22519699D01*
X67429486Y22330439D01*
X67430335Y22321274D01*
X67430335Y22128726D01*
X67429486Y22119561D01*
X67394107Y21930301D01*
X67391583Y21921433D01*
X67322029Y21741891D01*
X67317931Y21733661D01*
X67216564Y21569947D01*
X67211018Y21562603D01*
X67081305Y21420316D01*
X67074492Y21414104D01*
X66920843Y21298074D01*
X66913013Y21293226D01*
X66740663Y21207406D01*
X66732069Y21204076D01*
X66546874Y21151384D01*
X66537825Y21149692D01*
X66343805Y21131714D01*
X66339189Y21131500D01*
X65740811Y21131500D01*
X65740811Y20778500D01*
X66339189Y20778500D01*
X66343805Y20778286D01*
X66537825Y20760308D01*
X66546874Y20758616D01*
X66732069Y20705924D01*
X66740663Y20702594D01*
X66913013Y20616774D01*
X66920843Y20611926D01*
X67074492Y20495896D01*
X67081305Y20489684D01*
X67211018Y20347397D01*
X67216564Y20340053D01*
X67317931Y20176339D01*
X67322029Y20168109D01*
X67391583Y19988567D01*
X67394107Y19979699D01*
X67429486Y19790439D01*
X67430335Y19781274D01*
X67430335Y19588726D01*
X67429486Y19579561D01*
X67394107Y19390301D01*
X67391583Y19381433D01*
X67322029Y19201891D01*
X67317931Y19193661D01*
X67216564Y19029947D01*
X67211018Y19022603D01*
X67081305Y18880316D01*
X67074492Y18874104D01*
X66920843Y18758074D01*
X66913013Y18753226D01*
X66740663Y18667406D01*
X66732069Y18664076D01*
X66546874Y18611384D01*
X66537825Y18609692D01*
X66343805Y18591714D01*
X66339189Y18591500D01*
X65740811Y18591500D01*
X65740811Y18238500D01*
X66339189Y18238500D01*
X66343805Y18238286D01*
X66537825Y18220308D01*
X66546874Y18218616D01*
X66732069Y18165924D01*
X66740663Y18162594D01*
X66913013Y18076774D01*
X66920843Y18071926D01*
X67074492Y17955896D01*
X67081305Y17949684D01*
X67211018Y17807397D01*
X67216564Y17800053D01*
X67317931Y17636339D01*
X67322029Y17628109D01*
X67391583Y17448567D01*
X67394107Y17439699D01*
X67429486Y17250439D01*
X67430335Y17241274D01*
X67430335Y17048726D01*
X67429486Y17039561D01*
X67394107Y16850301D01*
X67391583Y16841433D01*
X67322029Y16661891D01*
X67317931Y16653661D01*
X67216564Y16489947D01*
X67211018Y16482603D01*
X67081305Y16340316D01*
X67074492Y16334104D01*
X66920843Y16218074D01*
X66913013Y16213226D01*
X66740663Y16127406D01*
X66732069Y16124076D01*
X66546874Y16071384D01*
X66537825Y16069692D01*
X66343805Y16051714D01*
X66339189Y16051500D01*
X65740811Y16051500D01*
X65740811Y15698500D01*
X66339189Y15698500D01*
X66343805Y15698286D01*
X66537825Y15680308D01*
X66546874Y15678616D01*
X66732069Y15625924D01*
X66740663Y15622594D01*
X66913013Y15536774D01*
X66920843Y15531926D01*
X67074492Y15415896D01*
X67081305Y15409684D01*
X67211018Y15267397D01*
X67216564Y15260053D01*
X67317931Y15096339D01*
X67322029Y15088109D01*
X67391583Y14908567D01*
X67394107Y14899699D01*
X67429486Y14710439D01*
X67430335Y14701274D01*
X67430335Y14508726D01*
X67429486Y14499561D01*
X67394107Y14310301D01*
X67391583Y14301433D01*
X67322029Y14121891D01*
X67317931Y14113661D01*
X67216564Y13949947D01*
X67211018Y13942603D01*
X67081305Y13800316D01*
X67074492Y13794104D01*
X66920843Y13678074D01*
X66913013Y13673226D01*
X66740663Y13587406D01*
X66732069Y13584076D01*
X66546874Y13531384D01*
X66537825Y13529692D01*
X66343805Y13511714D01*
X66339189Y13511500D01*
X65740811Y13511500D01*
X65740811Y13158500D01*
X66339189Y13158500D01*
X66343805Y13158286D01*
X66537825Y13140308D01*
X66546874Y13138616D01*
X66732069Y13085924D01*
X66740663Y13082594D01*
X66913013Y12996774D01*
X66920843Y12991926D01*
X67074492Y12875896D01*
X67081305Y12869684D01*
X67211018Y12727397D01*
X67216564Y12720053D01*
X67317931Y12556339D01*
X67322029Y12548109D01*
X67391583Y12368567D01*
X67394107Y12359699D01*
X67429486Y12170439D01*
X67430335Y12161274D01*
X67430335Y11968726D01*
X67429486Y11959561D01*
X67394107Y11770301D01*
X67391583Y11761433D01*
X67322029Y11581891D01*
X67317931Y11573661D01*
X67216564Y11409947D01*
X67211018Y11402603D01*
X67081305Y11260316D01*
X67074492Y11254104D01*
X66920843Y11138074D01*
X66913013Y11133226D01*
X66740663Y11047406D01*
X66732069Y11044076D01*
X66546874Y10991384D01*
X66537825Y10989692D01*
X66343805Y10971714D01*
X66339189Y10971500D01*
X65740811Y10971500D01*
X65740811Y10618500D01*
X67131069Y10618500D01*
X67138882Y10617885D01*
X67219931Y10605048D01*
X67234718Y10600244D01*
X67304326Y10564777D01*
X67316899Y10555642D01*
X67372142Y10500399D01*
X67381277Y10487826D01*
X67416744Y10418218D01*
X67421548Y10403431D01*
X67434385Y10322382D01*
X67435000Y10314569D01*
X67435000Y8735431D01*
X67434385Y8727618D01*
X67421548Y8646569D01*
X67416744Y8631782D01*
X67381277Y8562174D01*
X67372142Y8549601D01*
X67316899Y8494358D01*
X67304326Y8485223D01*
X67234718Y8449756D01*
X67219931Y8444952D01*
X67138882Y8432115D01*
X67131069Y8431500D01*
X64948931Y8431500D01*
X64948931Y1270000D01*
X72348931Y1270000D01*
X72348931Y6640000D01*
X72341118Y6640615D01*
X72260069Y6653452D01*
X72245282Y6658256D01*
X72175674Y6693723D01*
X72163101Y6702858D01*
X72107858Y6758101D01*
X72098723Y6770674D01*
X72063256Y6840282D01*
X72058452Y6855069D01*
X72045615Y6936118D01*
X72045000Y6943931D01*
X72045000Y8296069D01*
X72045615Y8303882D01*
X72058452Y8384931D01*
X72063256Y8399718D01*
X72098723Y8469326D01*
X72107858Y8481899D01*
X72163101Y8537142D01*
X72175674Y8546277D01*
X72235624Y8576823D01*
X72235624Y17208756D01*
X72232526Y17209279D01*
X72230068Y17211284D01*
X72213277Y17231743D01*
X72207843Y17239875D01*
X72121917Y17400632D01*
X72118170Y17409677D01*
X72065256Y17584111D01*
X72063349Y17593696D01*
X72045481Y17775116D01*
X72045481Y17784884D01*
X72063349Y17966304D01*
X72065256Y17975889D01*
X72118170Y18150323D01*
X72121917Y18159368D01*
X72207843Y18320125D01*
X72213277Y18328257D01*
X72226255Y18344070D01*
X72237708Y18351347D01*
X72240843Y18351130D01*
X72243485Y18349376D01*
X72348931Y18243930D01*
X72348931Y19975000D01*
X72341118Y19975615D01*
X72260069Y19988452D01*
X72245282Y19993256D01*
X72175674Y20028723D01*
X72163101Y20037858D01*
X72107858Y20093101D01*
X72098723Y20105674D01*
X72063256Y20175282D01*
X72058452Y20190069D01*
X72045615Y20271118D01*
X72045000Y20278931D01*
X72045000Y21631069D01*
X72045615Y21638882D01*
X72058452Y21719931D01*
X72063256Y21734718D01*
X72098723Y21804326D01*
X72107858Y21816899D01*
X72163101Y21872142D01*
X72175674Y21881277D01*
X72235624Y21911823D01*
X72235624Y30543756D01*
X72232526Y30544279D01*
X72230068Y30546284D01*
X72213277Y30566743D01*
X72207843Y30574875D01*
X72121917Y30735632D01*
X72118170Y30744677D01*
X72065256Y30919111D01*
X72063349Y30928696D01*
X72045481Y31110116D01*
X72045481Y31119884D01*
X72063349Y31301304D01*
X72065256Y31310889D01*
X72118170Y31485323D01*
X72121917Y31494368D01*
X72207843Y31655125D01*
X72213277Y31663257D01*
X72226255Y31679070D01*
X72237708Y31686347D01*
X72240843Y31686130D01*
X72243485Y31684376D01*
X72348931Y31578930D01*
X72348931Y33310000D01*
X72341118Y33310615D01*
X72260069Y33323452D01*
X72245282Y33328256D01*
X72175674Y33363723D01*
X72163101Y33372858D01*
X72107858Y33428101D01*
X72098723Y33440674D01*
X72063256Y33510282D01*
X72058452Y33525069D01*
X72045615Y33606118D01*
X72045000Y33613931D01*
X72045000Y34966069D01*
X72045615Y34973882D01*
X72058452Y35054931D01*
X72063256Y35069718D01*
X72098723Y35139326D01*
X72107858Y35151899D01*
X72163101Y35207142D01*
X72175674Y35216277D01*
X72235624Y35246823D01*
X72235624Y43878756D01*
X72232526Y43879279D01*
X72230068Y43881284D01*
X72213277Y43901743D01*
X72207843Y43909875D01*
X72121917Y44070632D01*
X72118170Y44079677D01*
X72065256Y44254111D01*
X72063349Y44263696D01*
X72045481Y44445116D01*
X72045481Y44454884D01*
X72063349Y44636304D01*
X72065256Y44645889D01*
X72118170Y44820323D01*
X72121917Y44829368D01*
X72207843Y44990125D01*
X72213277Y44998257D01*
X72226255Y45014070D01*
X72237708Y45021347D01*
X72240843Y45021130D01*
X72243485Y45019376D01*
X72452018Y44810843D01*
X72389189Y44691131D01*
X72349958Y44531965D01*
X72349958Y44368035D01*
X72389189Y44208869D01*
X72452018Y44089157D01*
X72247736Y43884875D01*
X72235624Y43878756D01*
X72235624Y35246823D01*
X72245282Y35251744D01*
X72260069Y35256548D01*
X72341118Y35269385D01*
X72348931Y35270000D01*
X73020116Y35270000D01*
X73020116Y43470481D01*
X72838696Y43488349D01*
X72829111Y43490256D01*
X72654677Y43543170D01*
X72645632Y43546917D01*
X72484875Y43632843D01*
X72476743Y43638277D01*
X72460930Y43651255D01*
X72453653Y43662708D01*
X72453870Y43665843D01*
X72455624Y43668485D01*
X72665232Y43878093D01*
X72665232Y45021907D01*
X72459875Y45227264D01*
X72453756Y45239376D01*
X72454279Y45242474D01*
X72456284Y45244932D01*
X72476743Y45261723D01*
X72484875Y45267157D01*
X72645632Y45353083D01*
X72654677Y45356830D01*
X72829111Y45409744D01*
X72838696Y45411651D01*
X73020116Y45429519D01*
X73029884Y45429519D01*
X73211304Y45411651D01*
X73220889Y45409744D01*
X73395323Y45356830D01*
X73404368Y45353083D01*
X73565125Y45267157D01*
X73573257Y45261723D01*
X73589070Y45248745D01*
X73596347Y45237292D01*
X73596130Y45234157D01*
X73594376Y45231515D01*
X73384768Y45021907D01*
X73341012Y45052110D01*
X73187735Y45110240D01*
X73025000Y45130000D01*
X72862265Y45110240D01*
X72708988Y45052110D01*
X72665232Y45021907D01*
X72665232Y43878093D01*
X72708988Y43847890D01*
X72862265Y43789760D01*
X73025000Y43770000D01*
X73187735Y43789760D01*
X73341012Y43847890D01*
X73384768Y43878093D01*
X73590125Y43672736D01*
X73596244Y43660624D01*
X73595721Y43657526D01*
X73593716Y43655068D01*
X73573257Y43638277D01*
X73565125Y43632843D01*
X73404368Y43546917D01*
X73395323Y43543170D01*
X73220889Y43490256D01*
X73211304Y43488349D01*
X73029884Y43470481D01*
X73020116Y43470481D01*
X73020116Y35270000D01*
X73701069Y35270000D01*
X73708882Y35269385D01*
X73789931Y35256548D01*
X73804718Y35251744D01*
X73812292Y35247884D01*
X73812292Y43878653D01*
X73809157Y43878870D01*
X73806515Y43880624D01*
X73597982Y44089157D01*
X73660811Y44208869D01*
X73700042Y44368035D01*
X73700042Y44531965D01*
X73660811Y44691131D01*
X73597982Y44810843D01*
X73802264Y45015125D01*
X73814376Y45021244D01*
X73817474Y45020721D01*
X73819932Y45018716D01*
X73836723Y44998257D01*
X73842157Y44990125D01*
X73928083Y44829368D01*
X73931830Y44820323D01*
X73984744Y44645889D01*
X73986651Y44636304D01*
X74004519Y44454884D01*
X74004519Y44445116D01*
X73986651Y44263696D01*
X73984744Y44254111D01*
X73931830Y44079677D01*
X73928083Y44070632D01*
X73842157Y43909875D01*
X73836723Y43901743D01*
X73823745Y43885930D01*
X73812292Y43878653D01*
X73812292Y35247884D01*
X73874326Y35216277D01*
X73886899Y35207142D01*
X73942142Y35151899D01*
X73951277Y35139326D01*
X73986744Y35069718D01*
X73991548Y35054931D01*
X74004385Y34973882D01*
X74005000Y34966069D01*
X74005000Y33613931D01*
X74004385Y33606118D01*
X73991548Y33525069D01*
X73986744Y33510282D01*
X73951277Y33440674D01*
X73942142Y33428101D01*
X73886899Y33372858D01*
X73874326Y33363723D01*
X73804718Y33328256D01*
X73789931Y33323452D01*
X73708882Y33310615D01*
X73701069Y33310000D01*
X72348931Y33310000D01*
X72348931Y31578930D01*
X72452018Y31475843D01*
X72389189Y31356131D01*
X72349958Y31196965D01*
X72349958Y31033035D01*
X72389189Y30873869D01*
X72452018Y30754157D01*
X72247736Y30549875D01*
X72235624Y30543756D01*
X72235624Y21911823D01*
X72245282Y21916744D01*
X72260069Y21921548D01*
X72341118Y21934385D01*
X72348931Y21935000D01*
X73020116Y21935000D01*
X73020116Y30135481D01*
X72838696Y30153349D01*
X72829111Y30155256D01*
X72654677Y30208170D01*
X72645632Y30211917D01*
X72484875Y30297843D01*
X72476743Y30303277D01*
X72460930Y30316255D01*
X72453653Y30327708D01*
X72453870Y30330843D01*
X72455624Y30333485D01*
X72665232Y30543093D01*
X72665232Y31686907D01*
X72459875Y31892264D01*
X72453756Y31904376D01*
X72454279Y31907474D01*
X72456284Y31909932D01*
X72476743Y31926723D01*
X72484875Y31932157D01*
X72645632Y32018083D01*
X72654677Y32021830D01*
X72829111Y32074744D01*
X72838696Y32076651D01*
X73020116Y32094519D01*
X73029884Y32094519D01*
X73211304Y32076651D01*
X73220889Y32074744D01*
X73395323Y32021830D01*
X73404368Y32018083D01*
X73565125Y31932157D01*
X73573257Y31926723D01*
X73589070Y31913745D01*
X73596347Y31902292D01*
X73596130Y31899157D01*
X73594376Y31896515D01*
X73384768Y31686907D01*
X73341012Y31717110D01*
X73187735Y31775240D01*
X73025000Y31795000D01*
X72862265Y31775240D01*
X72708988Y31717110D01*
X72665232Y31686907D01*
X72665232Y30543093D01*
X72708988Y30512890D01*
X72862265Y30454760D01*
X73025000Y30435000D01*
X73187735Y30454760D01*
X73341012Y30512890D01*
X73384768Y30543093D01*
X73590125Y30337736D01*
X73596244Y30325624D01*
X73595721Y30322526D01*
X73593716Y30320068D01*
X73573257Y30303277D01*
X73565125Y30297843D01*
X73404368Y30211917D01*
X73395323Y30208170D01*
X73220889Y30155256D01*
X73211304Y30153349D01*
X73029884Y30135481D01*
X73020116Y30135481D01*
X73020116Y21935000D01*
X73701069Y21935000D01*
X73708882Y21934385D01*
X73789931Y21921548D01*
X73804718Y21916744D01*
X73812292Y21912884D01*
X73812292Y30543653D01*
X73809157Y30543870D01*
X73806515Y30545624D01*
X73597982Y30754157D01*
X73660811Y30873869D01*
X73700042Y31033035D01*
X73700042Y31196965D01*
X73660811Y31356131D01*
X73597982Y31475843D01*
X73802264Y31680125D01*
X73814376Y31686244D01*
X73817474Y31685721D01*
X73819932Y31683716D01*
X73836723Y31663257D01*
X73842157Y31655125D01*
X73928083Y31494368D01*
X73931830Y31485323D01*
X73984744Y31310889D01*
X73986651Y31301304D01*
X74004519Y31119884D01*
X74004519Y31110116D01*
X73986651Y30928696D01*
X73984744Y30919111D01*
X73931830Y30744677D01*
X73928083Y30735632D01*
X73842157Y30574875D01*
X73836723Y30566743D01*
X73823745Y30550930D01*
X73812292Y30543653D01*
X73812292Y21912884D01*
X73874326Y21881277D01*
X73886899Y21872142D01*
X73942142Y21816899D01*
X73951277Y21804326D01*
X73986744Y21734718D01*
X73991548Y21719931D01*
X74004385Y21638882D01*
X74005000Y21631069D01*
X74005000Y20278931D01*
X74004385Y20271118D01*
X73991548Y20190069D01*
X73986744Y20175282D01*
X73951277Y20105674D01*
X73942142Y20093101D01*
X73886899Y20037858D01*
X73874326Y20028723D01*
X73804718Y19993256D01*
X73789931Y19988452D01*
X73708882Y19975615D01*
X73701069Y19975000D01*
X72348931Y19975000D01*
X72348931Y18243930D01*
X72452018Y18140843D01*
X72389189Y18021131D01*
X72349958Y17861965D01*
X72349958Y17698035D01*
X72389189Y17538869D01*
X72452018Y17419157D01*
X72247736Y17214875D01*
X72235624Y17208756D01*
X72235624Y8576823D01*
X72245282Y8581744D01*
X72260069Y8586548D01*
X72341118Y8599385D01*
X72348931Y8600000D01*
X73020116Y8600000D01*
X73020116Y16800481D01*
X72838696Y16818349D01*
X72829111Y16820256D01*
X72654677Y16873170D01*
X72645632Y16876917D01*
X72484875Y16962843D01*
X72476743Y16968277D01*
X72460930Y16981255D01*
X72453653Y16992708D01*
X72453870Y16995843D01*
X72455624Y16998485D01*
X72665232Y17208093D01*
X72665232Y18351907D01*
X72459875Y18557264D01*
X72453756Y18569376D01*
X72454279Y18572474D01*
X72456284Y18574932D01*
X72476743Y18591723D01*
X72484875Y18597157D01*
X72645632Y18683083D01*
X72654677Y18686830D01*
X72829111Y18739744D01*
X72838696Y18741651D01*
X73020116Y18759519D01*
X73029884Y18759519D01*
X73211304Y18741651D01*
X73220889Y18739744D01*
X73395323Y18686830D01*
X73404368Y18683083D01*
X73565125Y18597157D01*
X73573257Y18591723D01*
X73589070Y18578745D01*
X73596347Y18567292D01*
X73596130Y18564157D01*
X73594376Y18561515D01*
X73384768Y18351907D01*
X73341012Y18382110D01*
X73187735Y18440240D01*
X73025000Y18460000D01*
X72862265Y18440240D01*
X72708988Y18382110D01*
X72665232Y18351907D01*
X72665232Y17208093D01*
X72708988Y17177890D01*
X72862265Y17119760D01*
X73025000Y17100000D01*
X73187735Y17119760D01*
X73341012Y17177890D01*
X73384768Y17208093D01*
X73590125Y17002736D01*
X73596244Y16990624D01*
X73595721Y16987526D01*
X73593716Y16985068D01*
X73573257Y16968277D01*
X73565125Y16962843D01*
X73404368Y16876917D01*
X73395323Y16873170D01*
X73220889Y16820256D01*
X73211304Y16818349D01*
X73029884Y16800481D01*
X73020116Y16800481D01*
X73020116Y8600000D01*
X73701069Y8600000D01*
X73708882Y8599385D01*
X73789931Y8586548D01*
X73804718Y8581744D01*
X73812292Y8577884D01*
X73812292Y17208653D01*
X73809157Y17208870D01*
X73806515Y17210624D01*
X73597982Y17419157D01*
X73660811Y17538869D01*
X73700042Y17698035D01*
X73700042Y17861965D01*
X73660811Y18021131D01*
X73597982Y18140843D01*
X73802264Y18345125D01*
X73814376Y18351244D01*
X73817474Y18350721D01*
X73819932Y18348716D01*
X73836723Y18328257D01*
X73842157Y18320125D01*
X73928083Y18159368D01*
X73931830Y18150323D01*
X73984744Y17975889D01*
X73986651Y17966304D01*
X74004519Y17784884D01*
X74004519Y17775116D01*
X73986651Y17593696D01*
X73984744Y17584111D01*
X73931830Y17409677D01*
X73928083Y17400632D01*
X73842157Y17239875D01*
X73836723Y17231743D01*
X73823745Y17215930D01*
X73812292Y17208653D01*
X73812292Y8577884D01*
X73874326Y8546277D01*
X73886899Y8537142D01*
X73942142Y8481899D01*
X73951277Y8469326D01*
X73986744Y8399718D01*
X73991548Y8384931D01*
X74004385Y8303882D01*
X74005000Y8296069D01*
X74005000Y6943931D01*
X74004385Y6936118D01*
X73991548Y6855069D01*
X73986744Y6840282D01*
X73951277Y6770674D01*
X73942142Y6758101D01*
X73886899Y6702858D01*
X73874326Y6693723D01*
X73804718Y6658256D01*
X73789931Y6653452D01*
X73708882Y6640615D01*
X73701069Y6640000D01*
X72348931Y6640000D01*
X72348931Y1270000D01*
X79533931Y1270000D01*
X79533931Y8910000D01*
X79526118Y8910615D01*
X79445069Y8923452D01*
X79430282Y8928256D01*
X79360674Y8963723D01*
X79348101Y8972858D01*
X79292858Y9028101D01*
X79283723Y9040674D01*
X79248256Y9110282D01*
X79243452Y9125069D01*
X79230615Y9206118D01*
X79230000Y9213931D01*
X79230000Y11106069D01*
X79230615Y11113882D01*
X79243452Y11194931D01*
X79248256Y11209718D01*
X79283723Y11279326D01*
X79292858Y11291899D01*
X79348101Y11347142D01*
X79360674Y11356277D01*
X79430282Y11391744D01*
X79445069Y11396548D01*
X79526118Y11409385D01*
X79533931Y11410000D01*
X79848850Y11410000D01*
X79908177Y11429500D01*
X79944366Y11480395D01*
X79943304Y11542836D01*
X79891112Y11600629D01*
X79858951Y11615626D01*
X79851428Y11619969D01*
X79680088Y11739942D01*
X79673429Y11745530D01*
X79525530Y11893429D01*
X79519942Y11900088D01*
X79399969Y12071428D01*
X79395624Y12078955D01*
X79307226Y12268524D01*
X79304256Y12276683D01*
X79250120Y12478723D01*
X79248609Y12487295D01*
X79230381Y12695645D01*
X79230381Y12704355D01*
X79248609Y12912705D01*
X79250120Y12921277D01*
X79304256Y13123317D01*
X79307226Y13131476D01*
X79395624Y13321045D01*
X79399969Y13328572D01*
X79519942Y13499912D01*
X79525530Y13506571D01*
X79673429Y13654470D01*
X79680088Y13660058D01*
X79851428Y13780031D01*
X79858955Y13784376D01*
X80048521Y13872772D01*
X80057479Y13876033D01*
X80106558Y13914650D01*
X80123155Y13974854D01*
X80100799Y14033164D01*
X80057479Y14063967D01*
X80048521Y14067228D01*
X79858955Y14155624D01*
X79851428Y14159969D01*
X79680088Y14279942D01*
X79673429Y14285530D01*
X79525530Y14433429D01*
X79519942Y14440088D01*
X79399969Y14611428D01*
X79395624Y14618955D01*
X79307226Y14808524D01*
X79304256Y14816683D01*
X79250120Y15018725D01*
X79248610Y15027287D01*
X79244520Y15074043D01*
X79247617Y15087254D01*
X79250233Y15089481D01*
X79252850Y15089995D01*
X79259137Y15089995D01*
X79259137Y15390005D01*
X79246247Y15394242D01*
X79244256Y15397043D01*
X79243972Y15399695D01*
X79248610Y15452713D01*
X79250120Y15461275D01*
X79304256Y15663317D01*
X79307226Y15671476D01*
X79395624Y15861045D01*
X79399969Y15868572D01*
X79519942Y16039912D01*
X79525530Y16046571D01*
X79533931Y16054972D01*
X79533931Y22245000D01*
X79526118Y22245615D01*
X79445069Y22258452D01*
X79430282Y22263256D01*
X79360674Y22298723D01*
X79348101Y22307858D01*
X79292858Y22363101D01*
X79283723Y22375674D01*
X79248256Y22445282D01*
X79243452Y22460069D01*
X79230615Y22541118D01*
X79230000Y22548931D01*
X79230000Y24441069D01*
X79230615Y24448882D01*
X79243452Y24529931D01*
X79248256Y24544718D01*
X79283723Y24614326D01*
X79292858Y24626899D01*
X79348101Y24682142D01*
X79360674Y24691277D01*
X79430282Y24726744D01*
X79445069Y24731548D01*
X79526118Y24744385D01*
X79533931Y24745000D01*
X79848850Y24745000D01*
X79908177Y24764500D01*
X79944366Y24815395D01*
X79943304Y24877836D01*
X79891112Y24935629D01*
X79858951Y24950626D01*
X79851428Y24954969D01*
X79680088Y25074942D01*
X79673429Y25080530D01*
X79525530Y25228429D01*
X79519942Y25235088D01*
X79399969Y25406428D01*
X79395624Y25413955D01*
X79307226Y25603524D01*
X79304256Y25611683D01*
X79250120Y25813723D01*
X79248609Y25822295D01*
X79230381Y26030645D01*
X79230381Y26039355D01*
X79248609Y26247705D01*
X79250120Y26256277D01*
X79304256Y26458317D01*
X79307226Y26466476D01*
X79395624Y26656045D01*
X79399969Y26663572D01*
X79519942Y26834912D01*
X79525530Y26841571D01*
X79673429Y26989470D01*
X79680088Y26995058D01*
X79851428Y27115031D01*
X79858955Y27119376D01*
X80048521Y27207772D01*
X80057479Y27211033D01*
X80106558Y27249650D01*
X80123155Y27309854D01*
X80100799Y27368164D01*
X80057479Y27398967D01*
X80048521Y27402228D01*
X79858955Y27490624D01*
X79851428Y27494969D01*
X79680088Y27614942D01*
X79673429Y27620530D01*
X79525530Y27768429D01*
X79519942Y27775088D01*
X79399969Y27946428D01*
X79395624Y27953955D01*
X79307226Y28143524D01*
X79304256Y28151683D01*
X79250120Y28353725D01*
X79248610Y28362287D01*
X79244520Y28409043D01*
X79247617Y28422254D01*
X79250233Y28424481D01*
X79252850Y28424995D01*
X79259137Y28424995D01*
X79259137Y28725005D01*
X79246247Y28729242D01*
X79244256Y28732043D01*
X79243972Y28734695D01*
X79248610Y28787713D01*
X79250120Y28796275D01*
X79304256Y28998317D01*
X79307226Y29006476D01*
X79395624Y29196045D01*
X79399969Y29203572D01*
X79519942Y29374912D01*
X79525530Y29381571D01*
X79533931Y29389972D01*
X79533931Y35580000D01*
X79526118Y35580615D01*
X79445069Y35593452D01*
X79430282Y35598256D01*
X79360674Y35633723D01*
X79348101Y35642858D01*
X79292858Y35698101D01*
X79283723Y35710674D01*
X79248256Y35780282D01*
X79243452Y35795069D01*
X79230615Y35876118D01*
X79230000Y35883931D01*
X79230000Y37776069D01*
X79230615Y37783882D01*
X79243452Y37864931D01*
X79248256Y37879718D01*
X79283723Y37949326D01*
X79292858Y37961899D01*
X79348101Y38017142D01*
X79360674Y38026277D01*
X79430282Y38061744D01*
X79445069Y38066548D01*
X79526118Y38079385D01*
X79533931Y38080000D01*
X79848850Y38080000D01*
X79908177Y38099500D01*
X79944366Y38150395D01*
X79943304Y38212836D01*
X79891112Y38270629D01*
X79858951Y38285626D01*
X79851428Y38289969D01*
X79680088Y38409942D01*
X79673429Y38415530D01*
X79525530Y38563429D01*
X79519942Y38570088D01*
X79399969Y38741428D01*
X79395624Y38748955D01*
X79307226Y38938524D01*
X79304256Y38946683D01*
X79250120Y39148723D01*
X79248609Y39157295D01*
X79230381Y39365645D01*
X79230381Y39374355D01*
X79248609Y39582705D01*
X79250120Y39591277D01*
X79304256Y39793317D01*
X79307226Y39801476D01*
X79395624Y39991045D01*
X79399969Y39998572D01*
X79519942Y40169912D01*
X79525530Y40176571D01*
X79673429Y40324470D01*
X79680088Y40330058D01*
X79851428Y40450031D01*
X79858955Y40454376D01*
X80048521Y40542772D01*
X80057479Y40546033D01*
X80106558Y40584650D01*
X80123155Y40644854D01*
X80100799Y40703164D01*
X80057479Y40733967D01*
X80048521Y40737228D01*
X79858955Y40825624D01*
X79851428Y40829969D01*
X79680088Y40949942D01*
X79673429Y40955530D01*
X79525530Y41103429D01*
X79519942Y41110088D01*
X79399969Y41281428D01*
X79395624Y41288955D01*
X79307226Y41478524D01*
X79304256Y41486683D01*
X79250120Y41688725D01*
X79248610Y41697287D01*
X79244520Y41744043D01*
X79247617Y41757254D01*
X79250233Y41759481D01*
X79252850Y41759995D01*
X79259137Y41759995D01*
X79259137Y42060005D01*
X79246247Y42064242D01*
X79244256Y42067043D01*
X79243972Y42069695D01*
X79248610Y42122713D01*
X79250120Y42131275D01*
X79304256Y42333317D01*
X79307226Y42341476D01*
X79395624Y42531045D01*
X79399969Y42538572D01*
X79519942Y42709912D01*
X79525530Y42716571D01*
X79673429Y42864470D01*
X79680088Y42870058D01*
X79851428Y42990031D01*
X79858955Y42994376D01*
X80048524Y43082774D01*
X80056683Y43085744D01*
X80258723Y43139880D01*
X80267295Y43141391D01*
X80477808Y43159808D01*
X80482195Y43160000D01*
X81113982Y43160000D01*
X81118747Y43158434D01*
X81129995Y43136172D01*
X81129995Y42860000D01*
X80480000Y42860000D01*
X80294664Y42841746D01*
X80116451Y42787686D01*
X79952208Y42699896D01*
X79808249Y42581751D01*
X79690104Y42437792D01*
X79602314Y42273549D01*
X79548254Y42095336D01*
X79544774Y42060005D01*
X79259137Y42060005D01*
X79259137Y41759995D01*
X79544774Y41759995D01*
X79548254Y41724664D01*
X79602314Y41546451D01*
X79690104Y41382208D01*
X79808249Y41238249D01*
X79952208Y41120104D01*
X80116451Y41032314D01*
X80294664Y40978254D01*
X80480000Y40960000D01*
X82080000Y40960000D01*
X82265336Y40978254D01*
X82443549Y41032314D01*
X82607792Y41120104D01*
X82751751Y41238249D01*
X82869896Y41382208D01*
X82957686Y41546451D01*
X83011746Y41724664D01*
X83015226Y41759995D01*
X83015226Y42060005D01*
X83011746Y42095336D01*
X82957686Y42273549D01*
X82869896Y42437792D01*
X82751751Y42581751D01*
X82607792Y42699896D01*
X82443549Y42787686D01*
X82265336Y42841746D01*
X82080000Y42860000D01*
X81430005Y42860000D01*
X81430005Y43143987D01*
X81431571Y43148752D01*
X81453833Y43160000D01*
X82077805Y43160000D01*
X82082192Y43159808D01*
X82292705Y43141391D01*
X82301277Y43139880D01*
X82503317Y43085744D01*
X82511476Y43082774D01*
X82701045Y42994376D01*
X82708572Y42990031D01*
X82879912Y42870058D01*
X82886571Y42864470D01*
X83034470Y42716571D01*
X83040058Y42709912D01*
X83160031Y42538572D01*
X83164376Y42531045D01*
X83252774Y42341476D01*
X83255744Y42333317D01*
X83309880Y42131275D01*
X83311390Y42122713D01*
X83315480Y42075957D01*
X83312383Y42062746D01*
X83309767Y42060519D01*
X83307150Y42060005D01*
X83015226Y42060005D01*
X83015226Y41759995D01*
X83300863Y41759995D01*
X83313753Y41755758D01*
X83315744Y41752957D01*
X83316028Y41750305D01*
X83311390Y41697287D01*
X83309880Y41688725D01*
X83255744Y41486683D01*
X83252774Y41478524D01*
X83164376Y41288955D01*
X83160031Y41281428D01*
X83040058Y41110088D01*
X83034470Y41103429D01*
X82886571Y40955530D01*
X82879912Y40949942D01*
X82708572Y40829969D01*
X82701045Y40825624D01*
X82511479Y40737228D01*
X82502521Y40733967D01*
X82453442Y40695350D01*
X82436845Y40635146D01*
X82459201Y40576836D01*
X82502521Y40546033D01*
X82511479Y40542772D01*
X82701045Y40454376D01*
X82708572Y40450031D01*
X82879912Y40330058D01*
X82886571Y40324470D01*
X83034470Y40176571D01*
X83040058Y40169912D01*
X83160031Y39998572D01*
X83164376Y39991045D01*
X83252774Y39801476D01*
X83255744Y39793317D01*
X83309880Y39591277D01*
X83311391Y39582705D01*
X83329619Y39374355D01*
X83329619Y39365645D01*
X83311391Y39157295D01*
X83309880Y39148723D01*
X83255744Y38946683D01*
X83252774Y38938524D01*
X83164376Y38748955D01*
X83160031Y38741428D01*
X83040058Y38570088D01*
X83034470Y38563429D01*
X82886571Y38415530D01*
X82879912Y38409942D01*
X82708572Y38289969D01*
X82701049Y38285626D01*
X82668888Y38270629D01*
X82623361Y38227883D01*
X82612071Y38166462D01*
X82639423Y38110321D01*
X82711150Y38080000D01*
X83026069Y38080000D01*
X83033882Y38079385D01*
X83114931Y38066548D01*
X83129718Y38061744D01*
X83199326Y38026277D01*
X83211899Y38017142D01*
X83267142Y37961899D01*
X83276277Y37949326D01*
X83311744Y37879718D01*
X83316548Y37864931D01*
X83329385Y37783882D01*
X83330000Y37776069D01*
X83330000Y35883931D01*
X83329385Y35876118D01*
X83316548Y35795069D01*
X83311744Y35780282D01*
X83276277Y35710674D01*
X83267142Y35698101D01*
X83211899Y35642858D01*
X83199326Y35633723D01*
X83129718Y35598256D01*
X83114931Y35593452D01*
X83033882Y35580615D01*
X83026069Y35580000D01*
X79533931Y35580000D01*
X79533931Y29389972D01*
X79673429Y29529470D01*
X79680088Y29535058D01*
X79851428Y29655031D01*
X79858955Y29659376D01*
X80048524Y29747774D01*
X80056683Y29750744D01*
X80258723Y29804880D01*
X80267295Y29806391D01*
X80477808Y29824808D01*
X80482195Y29825000D01*
X81113982Y29825000D01*
X81118747Y29823434D01*
X81129995Y29801172D01*
X81129995Y29525000D01*
X80480000Y29525000D01*
X80294664Y29506746D01*
X80116451Y29452686D01*
X79952208Y29364896D01*
X79808249Y29246751D01*
X79690104Y29102792D01*
X79602314Y28938549D01*
X79548254Y28760336D01*
X79544774Y28725005D01*
X79259137Y28725005D01*
X79259137Y28424995D01*
X79544774Y28424995D01*
X79548254Y28389664D01*
X79602314Y28211451D01*
X79690104Y28047208D01*
X79808249Y27903249D01*
X79952208Y27785104D01*
X80116451Y27697314D01*
X80294664Y27643254D01*
X80480000Y27625000D01*
X82080000Y27625000D01*
X82265336Y27643254D01*
X82443549Y27697314D01*
X82607792Y27785104D01*
X82751751Y27903249D01*
X82869896Y28047208D01*
X82957686Y28211451D01*
X83011746Y28389664D01*
X83015226Y28424995D01*
X83015226Y28725005D01*
X83011746Y28760336D01*
X82957686Y28938549D01*
X82869896Y29102792D01*
X82751751Y29246751D01*
X82607792Y29364896D01*
X82443549Y29452686D01*
X82265336Y29506746D01*
X82080000Y29525000D01*
X81430005Y29525000D01*
X81430005Y29808987D01*
X81431571Y29813752D01*
X81453833Y29825000D01*
X82077805Y29825000D01*
X82082192Y29824808D01*
X82292705Y29806391D01*
X82301277Y29804880D01*
X82503317Y29750744D01*
X82511476Y29747774D01*
X82701045Y29659376D01*
X82708572Y29655031D01*
X82879912Y29535058D01*
X82886571Y29529470D01*
X83034470Y29381571D01*
X83040058Y29374912D01*
X83160031Y29203572D01*
X83164376Y29196045D01*
X83252774Y29006476D01*
X83255744Y28998317D01*
X83309880Y28796275D01*
X83311390Y28787713D01*
X83315480Y28740957D01*
X83312383Y28727746D01*
X83309767Y28725519D01*
X83307150Y28725005D01*
X83015226Y28725005D01*
X83015226Y28424995D01*
X83300863Y28424995D01*
X83313753Y28420758D01*
X83315744Y28417957D01*
X83316028Y28415305D01*
X83311390Y28362287D01*
X83309880Y28353725D01*
X83255744Y28151683D01*
X83252774Y28143524D01*
X83164376Y27953955D01*
X83160031Y27946428D01*
X83040058Y27775088D01*
X83034470Y27768429D01*
X82886571Y27620530D01*
X82879912Y27614942D01*
X82708572Y27494969D01*
X82701045Y27490624D01*
X82511479Y27402228D01*
X82502521Y27398967D01*
X82453442Y27360350D01*
X82436845Y27300146D01*
X82459201Y27241836D01*
X82502521Y27211033D01*
X82511479Y27207772D01*
X82701045Y27119376D01*
X82708572Y27115031D01*
X82879912Y26995058D01*
X82886571Y26989470D01*
X83034470Y26841571D01*
X83040058Y26834912D01*
X83160031Y26663572D01*
X83164376Y26656045D01*
X83252774Y26466476D01*
X83255744Y26458317D01*
X83309880Y26256277D01*
X83311391Y26247705D01*
X83329619Y26039355D01*
X83329619Y26030645D01*
X83311391Y25822295D01*
X83309880Y25813723D01*
X83255744Y25611683D01*
X83252774Y25603524D01*
X83164376Y25413955D01*
X83160031Y25406428D01*
X83040058Y25235088D01*
X83034470Y25228429D01*
X82886571Y25080530D01*
X82879912Y25074942D01*
X82708572Y24954969D01*
X82701049Y24950626D01*
X82668888Y24935629D01*
X82623361Y24892883D01*
X82612071Y24831462D01*
X82639423Y24775321D01*
X82711150Y24745000D01*
X83026069Y24745000D01*
X83033882Y24744385D01*
X83114931Y24731548D01*
X83129718Y24726744D01*
X83199326Y24691277D01*
X83211899Y24682142D01*
X83267142Y24626899D01*
X83276277Y24614326D01*
X83311744Y24544718D01*
X83316548Y24529931D01*
X83329385Y24448882D01*
X83330000Y24441069D01*
X83330000Y22548931D01*
X83329385Y22541118D01*
X83316548Y22460069D01*
X83311744Y22445282D01*
X83276277Y22375674D01*
X83267142Y22363101D01*
X83211899Y22307858D01*
X83199326Y22298723D01*
X83129718Y22263256D01*
X83114931Y22258452D01*
X83033882Y22245615D01*
X83026069Y22245000D01*
X79533931Y22245000D01*
X79533931Y16054972D01*
X79673429Y16194470D01*
X79680088Y16200058D01*
X79851428Y16320031D01*
X79858955Y16324376D01*
X80048524Y16412774D01*
X80056683Y16415744D01*
X80258723Y16469880D01*
X80267295Y16471391D01*
X80477808Y16489808D01*
X80482195Y16490000D01*
X81113982Y16490000D01*
X81118747Y16488434D01*
X81129995Y16466172D01*
X81129995Y16190000D01*
X80480000Y16190000D01*
X80294664Y16171746D01*
X80116451Y16117686D01*
X79952208Y16029896D01*
X79808249Y15911751D01*
X79690104Y15767792D01*
X79602314Y15603549D01*
X79548254Y15425336D01*
X79544774Y15390005D01*
X79259137Y15390005D01*
X79259137Y15089995D01*
X79544774Y15089995D01*
X79548254Y15054664D01*
X79602314Y14876451D01*
X79690104Y14712208D01*
X79808249Y14568249D01*
X79952208Y14450104D01*
X80116451Y14362314D01*
X80294664Y14308254D01*
X80480000Y14290000D01*
X82080000Y14290000D01*
X82265336Y14308254D01*
X82443549Y14362314D01*
X82607792Y14450104D01*
X82751751Y14568249D01*
X82869896Y14712208D01*
X82957686Y14876451D01*
X83011746Y15054664D01*
X83015226Y15089995D01*
X83015226Y15390005D01*
X83011746Y15425336D01*
X82957686Y15603549D01*
X82869896Y15767792D01*
X82751751Y15911751D01*
X82607792Y16029896D01*
X82443549Y16117686D01*
X82265336Y16171746D01*
X82080000Y16190000D01*
X81430005Y16190000D01*
X81430005Y16473987D01*
X81431571Y16478752D01*
X81453833Y16490000D01*
X82077805Y16490000D01*
X82082192Y16489808D01*
X82292705Y16471391D01*
X82301277Y16469880D01*
X82503317Y16415744D01*
X82511476Y16412774D01*
X82701045Y16324376D01*
X82708572Y16320031D01*
X82879912Y16200058D01*
X82886571Y16194470D01*
X83034470Y16046571D01*
X83040058Y16039912D01*
X83160031Y15868572D01*
X83164376Y15861045D01*
X83252774Y15671476D01*
X83255744Y15663317D01*
X83309880Y15461275D01*
X83311390Y15452713D01*
X83315480Y15405957D01*
X83312383Y15392746D01*
X83309767Y15390519D01*
X83307150Y15390005D01*
X83015226Y15390005D01*
X83015226Y15089995D01*
X83300863Y15089995D01*
X83313753Y15085758D01*
X83315744Y15082957D01*
X83316028Y15080305D01*
X83311390Y15027287D01*
X83309880Y15018725D01*
X83255744Y14816683D01*
X83252774Y14808524D01*
X83164376Y14618955D01*
X83160031Y14611428D01*
X83040058Y14440088D01*
X83034470Y14433429D01*
X82886571Y14285530D01*
X82879912Y14279942D01*
X82708572Y14159969D01*
X82701045Y14155624D01*
X82511479Y14067228D01*
X82502521Y14063967D01*
X82453442Y14025350D01*
X82436845Y13965146D01*
X82459201Y13906836D01*
X82502521Y13876033D01*
X82511479Y13872772D01*
X82701045Y13784376D01*
X82708572Y13780031D01*
X82879912Y13660058D01*
X82886571Y13654470D01*
X83034470Y13506571D01*
X83040058Y13499912D01*
X83160031Y13328572D01*
X83164376Y13321045D01*
X83252774Y13131476D01*
X83255744Y13123317D01*
X83309880Y12921277D01*
X83311391Y12912705D01*
X83329619Y12704355D01*
X83329619Y12695645D01*
X83311391Y12487295D01*
X83309880Y12478723D01*
X83255744Y12276683D01*
X83252774Y12268524D01*
X83164376Y12078955D01*
X83160031Y12071428D01*
X83040058Y11900088D01*
X83034470Y11893429D01*
X82886571Y11745530D01*
X82879912Y11739942D01*
X82708572Y11619969D01*
X82701049Y11615626D01*
X82668888Y11600629D01*
X82623361Y11557883D01*
X82612071Y11496462D01*
X82639423Y11440321D01*
X82711150Y11410000D01*
X83026069Y11410000D01*
X83033882Y11409385D01*
X83114931Y11396548D01*
X83129718Y11391744D01*
X83199326Y11356277D01*
X83211899Y11347142D01*
X83267142Y11291899D01*
X83276277Y11279326D01*
X83311744Y11209718D01*
X83316548Y11194931D01*
X83329385Y11113882D01*
X83330000Y11106069D01*
X83330000Y9213931D01*
X83329385Y9206118D01*
X83316548Y9125069D01*
X83311744Y9110282D01*
X83276277Y9040674D01*
X83267142Y9028101D01*
X83211899Y8972858D01*
X83199326Y8963723D01*
X83129718Y8928256D01*
X83114931Y8923452D01*
X83033882Y8910615D01*
X83026069Y8910000D01*
X79533931Y8910000D01*
X79533931Y1270000D01*
X88800001Y1270000D01*
X88859328Y1289500D01*
X88900000Y1369999D01*
X88900000Y49430001D01*
X88880500Y49489328D01*
X88800001Y49530000D01*
X67280147Y49530000D01*
X67206247Y49497370D01*
X67081305Y49360316D01*
X67074492Y49354104D01*
X66920843Y49238074D01*
X66913013Y49233226D01*
X66740663Y49147406D01*
X66732069Y49144076D01*
X66546874Y49091384D01*
X66537825Y49089692D01*
X66343805Y49071714D01*
X66339189Y49071500D01*
X65740811Y49071500D01*
X65736195Y49071714D01*
X65542175Y49089692D01*
X65533126Y49091384D01*
X65347931Y49144076D01*
X65339337Y49147406D01*
X65166987Y49233226D01*
X65159157Y49238074D01*
X65005508Y49354104D01*
X64998695Y49360316D01*
X64873753Y49497370D01*
X64799853Y49530000D01*
X49500147Y49530000D01*
X49426247Y49497370D01*
X49301305Y49360316D01*
X49294492Y49354104D01*
X49140843Y49238074D01*
X49133013Y49233226D01*
X48960663Y49147406D01*
X48952069Y49144076D01*
X48766874Y49091384D01*
X48757825Y49089692D01*
X48563805Y49071714D01*
X48559189Y49071500D01*
X47960811Y49071500D01*
X47956195Y49071714D01*
X47762175Y49089692D01*
X47753126Y49091384D01*
X47567931Y49144076D01*
X47559337Y49147406D01*
X47386987Y49233226D01*
X47379157Y49238074D01*
X47225508Y49354104D01*
X47218695Y49360316D01*
X47093753Y49497370D01*
X47019853Y49530000D01*
X15974999Y49530000D01*
X15915672Y49510500D01*
X15875000Y49430001D01*
X15875000Y39814999D01*
X15894500Y39755672D01*
X15974999Y39715000D01*
X17186069Y39715000D01*
X17193882Y39714385D01*
X17274931Y39701548D01*
X17289718Y39696744D01*
X17359326Y39661277D01*
X17371899Y39652142D01*
X17427142Y39596899D01*
X17436277Y39584326D01*
X17471744Y39514718D01*
X17476548Y39499931D01*
X17489385Y39418882D01*
X17490000Y39411069D01*
X17490000Y38058931D01*
X17489385Y38051118D01*
X17476548Y37970069D01*
X17471744Y37955282D01*
X17436277Y37885674D01*
X17427142Y37873101D01*
X17371899Y37817858D01*
X17359326Y37808723D01*
X17289718Y37773256D01*
X17274931Y37768452D01*
X17193882Y37755615D01*
X17186069Y37755000D01*
X15974999Y37755000D01*
X15915672Y37735500D01*
X15875000Y37655001D01*
X15875000Y37481013D01*
X15873434Y37476248D01*
X15851172Y37465000D01*
X734999Y37465000D01*
X675672Y37445500D01*
X635000Y37365001D01*
X635000Y8354999D01*
G37*
G04 --- BOARD END --- *
G04 #@! TF.MD5,d0ee15f62ba5f92a326bbb6f31a704f2*
M02*
